# vtk DataFile Version 3.0
eMachineSim boundary faces
ASCII
DATASET POLYDATA
POINTS 4 double
0.000000000000000e+00 0.000000000000000e+00 0.000000000000000e+00
1.000000000000000e+00 0.000000000000000e+00 0.000000000000000e+00
1.000000000000000e+00 1.000000000000000e+00 0.000000000000000e+00
0.000000000000000e+00 1.000000000000000e+00 0.000000000000000e+00
POLYGONS 2 8
3 0 1 2
3 0 2 3
CELL_DATA 2
SCALARS face_id int 1
LOOKUP_TABLE default
1
2
SCALARS boundary_group_id int 1
LOOKUP_TABLE default
1
1
SCALARS parent_element_id int 1
LOOKUP_TABLE default
0
0
SCALARS local_face_id int 1
LOOKUP_TABLE default
-1
-1
SCALARS adjacent_element_count int 1
LOOKUP_TABLE default
0
0
SCALARS area double 1
LOOKUP_TABLE default
5.000000000000001e-01
5.000000000000001e-01
VECTORS normal double
0.000000000000000e+00 0.000000000000000e+00 1.000000000000000e+00
0.000000000000000e+00 0.000000000000000e+00 1.000000000000000e+00
