   -1
   100
<NULL>
4.41,
   -1
   -1
   450
1,
STEP:1 Time:  0.00000e+00
0,3,
  0.00000e+00,
1,
<NULL>
   -1
   -1
   451
1,271,1,
DISP-node-1
0.,-1.,0.,
271,0,0,0,0,0,0,0,0,0,
0,0,0,0,0,0,0,0,0,0,
0,0,3,7,
0,1,1,
1, 0.00000000e+00,
2, 3.07738095e-07,
3, 7.87500000e-07,
4, 0.00000000e+00,
-1,0.,
1,272,1,
DISP-node-2
0.,-1.,0.,
272,0,0,0,0,0,0,0,0,0,
0,0,0,0,0,0,0,0,0,0,
0,0,3,7,
0,1,1,
1, 0.00000000e+00,
2, 0.00000000e+00,
3,-4.66071429e-07,
4,-2.95833333e-07,
-1,0.,
1,273,1,
DISP-node-3
0.,-1.,0.,
273,0,0,0,0,0,0,0,0,0,
0,0,0,0,0,0,0,0,0,0,
0,0,3,7,
0,1,1,
1, 0.00000000e+00,
2, 0.00000000e+00,
3, 0.00000000e+00,
4, 0.00000000e+00,
-1,0.,
1,274,1,
DISP-node-4
0.,-1.,0.,
274,0,0,0,0,0,0,0,0,0,
0,0,0,0,0,0,0,0,0,0,
0,0,3,7,
0,1,1,
1, 0.00000000e+00,
2, 3.07738095e-07,
3, 9.15084054e-07,
4, 2.95833333e-07,
-1,0.,
1,701,1,
VON_MISES
0.,-1.,0.,
701,0,0,0,0,0,0,0,0,0,
0,0,0,0,0,0,0,0,0,0,
0,0,3,8,
0,1,1,
1, 1.29566585e+05,
2, 1.70220445e+05,
-1,0.,
   -1
