# vtk DataFile Version 3.0
eMachineSim mesh
ASCII
DATASET UNSTRUCTURED_GRID
POINTS 4 double
0.000000000000000e+00 0.000000000000000e+00 0.000000000000000e+00
1.000000000000000e+00 0.000000000000000e+00 0.000000000000000e+00
1.000000000000000e+00 1.000000000000000e+00 0.000000000000000e+00
0.000000000000000e+00 1.000000000000000e+00 0.000000000000000e+00
CELLS 2 8
3 0 1 2
3 0 2 3
CELL_TYPES 2
5
5
POINT_DATA 4
SCALARS node_id int 1
LOOKUP_TABLE default
1
2
3
4
CELL_DATA 2
SCALARS element_id int 1
LOOKUP_TABLE default
1
2
SCALARS property_id int 1
LOOKUP_TABLE default
1
1
SCALARS element_kind int 1
LOOKUP_TABLE default
2
2
SCALARS vtk_cell_type int 1
LOOKUP_TABLE default
5
5
