# vtk DataFile Version 3.0
eMachineSim modal mode shapes
ASCII
DATASET UNSTRUCTURED_GRID
POINTS 4 double
0.000000000000000e+00 0.000000000000000e+00 0.000000000000000e+00
1.000000000000000e+00 0.000000000000000e+00 0.000000000000000e+00
1.000000000000000e+00 1.000000000000000e+00 0.000000000000000e+00
0.000000000000000e+00 1.000000000000000e+00 0.000000000000000e+00
CELLS 2 8
3 0 1 2
3 0 2 3
CELL_TYPES 2
5
5
POINT_DATA 4
SCALARS node_id int 1
LOOKUP_TABLE default
1
2
3
4
SCALARS mode_001_displacement_magnitude double 1
LOOKUP_TABLE default
0.000000000000000e+00
1.373047698628192e-01
2.450747317515610e-01
1.373047698628191e-01
SCALARS mode_002_displacement_magnitude double 1
LOOKUP_TABLE default
0.000000000000000e+00
7.449990893893109e-02
2.822684034805581e-01
7.449990893893116e-02
SCALARS mode_003_displacement_magnitude double 1
LOOKUP_TABLE default
0.000000000000000e+00
3.107675802851860e-01
1.498374912522074e-01
3.107675802851858e-01
SCALARS mode_004_displacement_magnitude double 1
LOOKUP_TABLE default
0.000000000000000e+00
2.885725655032660e-01
2.050977845933956e-01
2.885725655032661e-01
VECTORS mode_001_displacement double
0.000000000000000e+00 0.000000000000000e+00 0.000000000000000e+00
1.373047698628192e-01 0.000000000000000e+00 0.000000000000000e+00
1.732940047190029e-01 -1.732940047190028e-01 0.000000000000000e+00
0.000000000000000e+00 -1.373047698628191e-01 0.000000000000000e+00
VECTORS mode_002_displacement double
0.000000000000000e+00 0.000000000000000e+00 0.000000000000000e+00
7.449990893893109e-02 0.000000000000000e+00 0.000000000000000e+00
1.995939022158031e-01 1.995939022158032e-01 0.000000000000000e+00
0.000000000000000e+00 7.449990893893116e-02 0.000000000000000e+00
VECTORS mode_003_displacement double
0.000000000000000e+00 0.000000000000000e+00 0.000000000000000e+00
3.107675802851860e-01 0.000000000000000e+00 0.000000000000000e+00
-1.059511061404159e-01 -1.059511061404159e-01 0.000000000000000e+00
0.000000000000000e+00 3.107675802851858e-01 0.000000000000000e+00
VECTORS mode_004_displacement double
0.000000000000000e+00 0.000000000000000e+00 0.000000000000000e+00
-2.885725655032660e-01 0.000000000000000e+00 0.000000000000000e+00
1.450260342923278e-01 -1.450260342923279e-01 0.000000000000000e+00
0.000000000000000e+00 2.885725655032661e-01 0.000000000000000e+00
CELL_DATA 2
SCALARS element_id int 1
LOOKUP_TABLE default
1
2
SCALARS property_id int 1
LOOKUP_TABLE default
1
1
SCALARS element_kind int 1
LOOKUP_TABLE default
2
2
SCALARS vtk_cell_type int 1
LOOKUP_TABLE default
5
5
