   -1
   100
<NULL>
10.3,
   -1
   -1
   403
1,0,0,1,46,0,0,0,0,0,0,0.,0.,0.,0,0,
2,0,0,1,46,0,0,0,0,0,0,1.,0.,0.,0,0,
3,0,0,1,46,0,0,0,0,0,0,1.,1.,0.,0,0,
4,0,0,1,46,0,0,0,0,0,0,0.,1.,0.,0,0,
   -1
   -1
   404
1,124,1,17,2,1,0,0,0,0,0,0,0,
1,2,3,0,0,0,0,0,0,0,
0,0,0,0,0,0,0,0,0,0,
0.,0.,0.,0,0,0,0,0,0,
0.,0.,0.,
0.,0.,0.,
0,0,0,0,0,0,0,0,0,0,0,0,0,0,0,0,
2,124,1,17,2,1,0,0,0,0,0,0,0,
1,3,4,0,0,0,0,0,0,0,
0,0,0,0,0,0,0,0,0,0,
0.,0.,0.,0,0,0,0,0,0,
0.,0.,0.,
0.,0.,0.,
0,0,0,0,0,0,0,0,0,0,0,0,0,0,0,0,
   -1
