# vtk DataFile Version 3.0
eMachineSim structural displacement result
ASCII
DATASET UNSTRUCTURED_GRID
POINTS 4 double
0.000000000000000e+00 0.000000000000000e+00 0.000000000000000e+00
1.000000000000000e+00 0.000000000000000e+00 0.000000000000000e+00
1.000000000000000e+00 1.000000000000000e+00 0.000000000000000e+00
0.000000000000000e+00 1.000000000000000e+00 0.000000000000000e+00
CELLS 2 8
3 0 1 2
3 0 2 3
CELL_TYPES 2
5
5
POINT_DATA 4
SCALARS node_id int 1
LOOKUP_TABLE default
1
2
3
4
SCALARS displacement_magnitude double 1
LOOKUP_TABLE default
0.000000000000000e+00
3.077380952380950e-07
9.150840543527199e-07
2.958333333333332e-07
VECTORS displacement double
0.000000000000000e+00 0.000000000000000e+00 0.000000000000000e+00
3.077380952380950e-07 0.000000000000000e+00 0.000000000000000e+00
7.874999999999998e-07 -4.660714285714284e-07 0.000000000000000e+00
0.000000000000000e+00 -2.958333333333332e-07 0.000000000000000e+00
CELL_DATA 2
SCALARS element_id int 1
LOOKUP_TABLE default
1
2
SCALARS property_id int 1
LOOKUP_TABLE default
1
1
SCALARS element_kind int 1
LOOKUP_TABLE default
2
2
SCALARS vtk_cell_type int 1
LOOKUP_TABLE default
5
5
SCALARS von_mises double 1
LOOKUP_TABLE default
1.295665851984993e+05
1.702204453054920e+05
