# vtk DataFile Version 3.0
eMachineSim boundary faces
ASCII
DATASET POLYDATA
POINTS 64 double
3.000000000000000e+00 3.000000000000000e+00 0.000000000000000e+00
2.000000000000000e+00 3.000000000000000e+00 0.000000000000000e+00
1.000000000000000e+00 3.000000000000000e+00 0.000000000000000e+00
0.000000000000000e+00 3.000000000000000e+00 0.000000000000000e+00
3.000000000000000e+00 2.000000000000000e+00 0.000000000000000e+00
2.000000000000000e+00 2.000000000000000e+00 0.000000000000000e+00
1.000000000000000e+00 2.000000000000000e+00 0.000000000000000e+00
0.000000000000000e+00 2.000000000000000e+00 0.000000000000000e+00
3.000000000000000e+00 1.000000000000000e+00 0.000000000000000e+00
2.000000000000000e+00 1.000000000000000e+00 0.000000000000000e+00
1.000000000000000e+00 1.000000000000000e+00 0.000000000000000e+00
0.000000000000000e+00 1.000000000000000e+00 0.000000000000000e+00
3.000000000000000e+00 0.000000000000000e+00 0.000000000000000e+00
2.000000000000000e+00 0.000000000000000e+00 0.000000000000000e+00
1.000000000000000e+00 0.000000000000000e+00 0.000000000000000e+00
0.000000000000000e+00 0.000000000000000e+00 0.000000000000000e+00
3.000000000000000e+00 3.000000000000000e+00 1.000000000000000e+00
2.000000000000000e+00 3.000000000000000e+00 1.000000000000000e+00
1.000000000000000e+00 3.000000000000000e+00 1.000000000000000e+00
0.000000000000000e+00 3.000000000000000e+00 1.000000000000000e+00
3.000000000000000e+00 2.000000000000000e+00 1.000000000000000e+00
2.000000000000000e+00 2.000000000000000e+00 1.000000000000000e+00
1.000000000000000e+00 2.000000000000000e+00 1.000000000000000e+00
0.000000000000000e+00 2.000000000000000e+00 1.000000000000000e+00
3.000000000000000e+00 1.000000000000000e+00 1.000000000000000e+00
2.000000000000000e+00 1.000000000000000e+00 1.000000000000000e+00
1.000000000000000e+00 1.000000000000000e+00 1.000000000000000e+00
0.000000000000000e+00 1.000000000000000e+00 1.000000000000000e+00
3.000000000000000e+00 0.000000000000000e+00 1.000000000000000e+00
2.000000000000000e+00 0.000000000000000e+00 1.000000000000000e+00
1.000000000000000e+00 0.000000000000000e+00 1.000000000000000e+00
0.000000000000000e+00 0.000000000000000e+00 1.000000000000000e+00
3.000000000000000e+00 3.000000000000000e+00 2.000000000000000e+00
2.000000000000000e+00 3.000000000000000e+00 2.000000000000000e+00
1.000000000000000e+00 3.000000000000000e+00 2.000000000000000e+00
0.000000000000000e+00 3.000000000000000e+00 2.000000000000000e+00
3.000000000000000e+00 2.000000000000000e+00 2.000000000000000e+00
2.000000000000000e+00 2.000000000000000e+00 2.000000000000000e+00
1.000000000000000e+00 2.000000000000000e+00 2.000000000000000e+00
0.000000000000000e+00 2.000000000000000e+00 2.000000000000000e+00
3.000000000000000e+00 1.000000000000000e+00 2.000000000000000e+00
2.000000000000000e+00 1.000000000000000e+00 2.000000000000000e+00
1.000000000000000e+00 1.000000000000000e+00 2.000000000000000e+00
0.000000000000000e+00 1.000000000000000e+00 2.000000000000000e+00
3.000000000000000e+00 0.000000000000000e+00 2.000000000000000e+00
2.000000000000000e+00 0.000000000000000e+00 2.000000000000000e+00
1.000000000000000e+00 0.000000000000000e+00 2.000000000000000e+00
0.000000000000000e+00 0.000000000000000e+00 2.000000000000000e+00
3.000000000000000e+00 3.000000000000000e+00 3.000000000000000e+00
2.000000000000000e+00 3.000000000000000e+00 3.000000000000000e+00
1.000000000000000e+00 3.000000000000000e+00 3.000000000000000e+00
0.000000000000000e+00 3.000000000000000e+00 3.000000000000000e+00
3.000000000000000e+00 2.000000000000000e+00 3.000000000000000e+00
2.000000000000000e+00 2.000000000000000e+00 3.000000000000000e+00
1.000000000000000e+00 2.000000000000000e+00 3.000000000000000e+00
0.000000000000000e+00 2.000000000000000e+00 3.000000000000000e+00
3.000000000000000e+00 1.000000000000000e+00 3.000000000000000e+00
2.000000000000000e+00 1.000000000000000e+00 3.000000000000000e+00
1.000000000000000e+00 1.000000000000000e+00 3.000000000000000e+00
0.000000000000000e+00 1.000000000000000e+00 3.000000000000000e+00
3.000000000000000e+00 0.000000000000000e+00 3.000000000000000e+00
2.000000000000000e+00 0.000000000000000e+00 3.000000000000000e+00
1.000000000000000e+00 0.000000000000000e+00 3.000000000000000e+00
0.000000000000000e+00 0.000000000000000e+00 3.000000000000000e+00
POLYGONS 18 90
4 0 1 5 4
4 1 2 6 5
4 2 3 7 6
4 4 5 9 8
4 5 6 10 9
4 6 7 11 10
4 8 9 13 12
4 9 10 14 13
4 10 11 15 14
4 48 49 53 52
4 49 50 54 53
4 50 51 55 54
4 52 53 57 56
4 53 54 58 57
4 54 55 59 58
4 56 57 61 60
4 57 58 62 61
4 58 59 63 62
CELL_DATA 18
SCALARS face_id int 1
LOOKUP_TABLE default
1
2
3
4
5
6
7
8
9
10
11
12
13
14
15
16
17
18
SCALARS boundary_group_id int 1
LOOKUP_TABLE default
2
2
2
2
2
2
2
2
2
3
3
3
3
3
3
3
3
3
SCALARS parent_element_id int 1
LOOKUP_TABLE default
10
11
12
13
14
15
16
17
18
28
29
30
31
32
33
34
35
36
SCALARS local_face_id int 1
LOOKUP_TABLE default
0
0
0
0
0
0
0
0
0
1
1
1
1
1
1
1
1
1
SCALARS adjacent_element_count int 1
LOOKUP_TABLE default
1
1
1
1
1
1
1
1
1
1
1
1
1
1
1
1
1
1
SCALARS area double 1
LOOKUP_TABLE default
1.000000000000000e+00
1.000000000000000e+00
1.000000000000000e+00
1.000000000000000e+00
1.000000000000000e+00
1.000000000000000e+00
1.000000000000000e+00
1.000000000000000e+00
1.000000000000000e+00
1.000000000000000e+00
1.000000000000000e+00
1.000000000000000e+00
1.000000000000000e+00
1.000000000000000e+00
1.000000000000000e+00
1.000000000000000e+00
1.000000000000000e+00
1.000000000000000e+00
VECTORS normal double
0.000000000000000e+00 0.000000000000000e+00 -1.000000000000000e+00
0.000000000000000e+00 0.000000000000000e+00 -1.000000000000000e+00
0.000000000000000e+00 0.000000000000000e+00 -1.000000000000000e+00
0.000000000000000e+00 0.000000000000000e+00 -1.000000000000000e+00
0.000000000000000e+00 0.000000000000000e+00 -1.000000000000000e+00
0.000000000000000e+00 0.000000000000000e+00 -1.000000000000000e+00
0.000000000000000e+00 0.000000000000000e+00 -1.000000000000000e+00
0.000000000000000e+00 0.000000000000000e+00 -1.000000000000000e+00
0.000000000000000e+00 0.000000000000000e+00 -1.000000000000000e+00
0.000000000000000e+00 0.000000000000000e+00 1.000000000000000e+00
0.000000000000000e+00 0.000000000000000e+00 1.000000000000000e+00
0.000000000000000e+00 0.000000000000000e+00 1.000000000000000e+00
0.000000000000000e+00 0.000000000000000e+00 1.000000000000000e+00
0.000000000000000e+00 0.000000000000000e+00 1.000000000000000e+00
0.000000000000000e+00 0.000000000000000e+00 1.000000000000000e+00
0.000000000000000e+00 0.000000000000000e+00 1.000000000000000e+00
0.000000000000000e+00 0.000000000000000e+00 1.000000000000000e+00
0.000000000000000e+00 0.000000000000000e+00 1.000000000000000e+00
