# vtk DataFile Version 3.0
eMachineSim scalar field result
ASCII
DATASET UNSTRUCTURED_GRID
POINTS 64 double
3.000000000000000e+00 3.000000000000000e+00 0.000000000000000e+00
2.000000000000000e+00 3.000000000000000e+00 0.000000000000000e+00
1.000000000000000e+00 3.000000000000000e+00 0.000000000000000e+00
0.000000000000000e+00 3.000000000000000e+00 0.000000000000000e+00
3.000000000000000e+00 2.000000000000000e+00 0.000000000000000e+00
2.000000000000000e+00 2.000000000000000e+00 0.000000000000000e+00
1.000000000000000e+00 2.000000000000000e+00 0.000000000000000e+00
0.000000000000000e+00 2.000000000000000e+00 0.000000000000000e+00
3.000000000000000e+00 1.000000000000000e+00 0.000000000000000e+00
2.000000000000000e+00 1.000000000000000e+00 0.000000000000000e+00
1.000000000000000e+00 1.000000000000000e+00 0.000000000000000e+00
0.000000000000000e+00 1.000000000000000e+00 0.000000000000000e+00
3.000000000000000e+00 0.000000000000000e+00 0.000000000000000e+00
2.000000000000000e+00 0.000000000000000e+00 0.000000000000000e+00
1.000000000000000e+00 0.000000000000000e+00 0.000000000000000e+00
0.000000000000000e+00 0.000000000000000e+00 0.000000000000000e+00
3.000000000000000e+00 3.000000000000000e+00 1.000000000000000e+00
2.000000000000000e+00 3.000000000000000e+00 1.000000000000000e+00
1.000000000000000e+00 3.000000000000000e+00 1.000000000000000e+00
0.000000000000000e+00 3.000000000000000e+00 1.000000000000000e+00
3.000000000000000e+00 2.000000000000000e+00 1.000000000000000e+00
2.000000000000000e+00 2.000000000000000e+00 1.000000000000000e+00
1.000000000000000e+00 2.000000000000000e+00 1.000000000000000e+00
0.000000000000000e+00 2.000000000000000e+00 1.000000000000000e+00
3.000000000000000e+00 1.000000000000000e+00 1.000000000000000e+00
2.000000000000000e+00 1.000000000000000e+00 1.000000000000000e+00
1.000000000000000e+00 1.000000000000000e+00 1.000000000000000e+00
0.000000000000000e+00 1.000000000000000e+00 1.000000000000000e+00
3.000000000000000e+00 0.000000000000000e+00 1.000000000000000e+00
2.000000000000000e+00 0.000000000000000e+00 1.000000000000000e+00
1.000000000000000e+00 0.000000000000000e+00 1.000000000000000e+00
0.000000000000000e+00 0.000000000000000e+00 1.000000000000000e+00
3.000000000000000e+00 3.000000000000000e+00 2.000000000000000e+00
2.000000000000000e+00 3.000000000000000e+00 2.000000000000000e+00
1.000000000000000e+00 3.000000000000000e+00 2.000000000000000e+00
0.000000000000000e+00 3.000000000000000e+00 2.000000000000000e+00
3.000000000000000e+00 2.000000000000000e+00 2.000000000000000e+00
2.000000000000000e+00 2.000000000000000e+00 2.000000000000000e+00
1.000000000000000e+00 2.000000000000000e+00 2.000000000000000e+00
0.000000000000000e+00 2.000000000000000e+00 2.000000000000000e+00
3.000000000000000e+00 1.000000000000000e+00 2.000000000000000e+00
2.000000000000000e+00 1.000000000000000e+00 2.000000000000000e+00
1.000000000000000e+00 1.000000000000000e+00 2.000000000000000e+00
0.000000000000000e+00 1.000000000000000e+00 2.000000000000000e+00
3.000000000000000e+00 0.000000000000000e+00 2.000000000000000e+00
2.000000000000000e+00 0.000000000000000e+00 2.000000000000000e+00
1.000000000000000e+00 0.000000000000000e+00 2.000000000000000e+00
0.000000000000000e+00 0.000000000000000e+00 2.000000000000000e+00
3.000000000000000e+00 3.000000000000000e+00 3.000000000000000e+00
2.000000000000000e+00 3.000000000000000e+00 3.000000000000000e+00
1.000000000000000e+00 3.000000000000000e+00 3.000000000000000e+00
0.000000000000000e+00 3.000000000000000e+00 3.000000000000000e+00
3.000000000000000e+00 2.000000000000000e+00 3.000000000000000e+00
2.000000000000000e+00 2.000000000000000e+00 3.000000000000000e+00
1.000000000000000e+00 2.000000000000000e+00 3.000000000000000e+00
0.000000000000000e+00 2.000000000000000e+00 3.000000000000000e+00
3.000000000000000e+00 1.000000000000000e+00 3.000000000000000e+00
2.000000000000000e+00 1.000000000000000e+00 3.000000000000000e+00
1.000000000000000e+00 1.000000000000000e+00 3.000000000000000e+00
0.000000000000000e+00 1.000000000000000e+00 3.000000000000000e+00
3.000000000000000e+00 0.000000000000000e+00 3.000000000000000e+00
2.000000000000000e+00 0.000000000000000e+00 3.000000000000000e+00
1.000000000000000e+00 0.000000000000000e+00 3.000000000000000e+00
0.000000000000000e+00 0.000000000000000e+00 3.000000000000000e+00
CELLS 45 333
8 0 1 5 4 16 17 21 20
8 1 2 6 5 17 18 22 21
8 2 3 7 6 18 19 23 22
8 4 5 9 8 20 21 25 24
8 5 6 10 9 21 22 26 25
8 6 7 11 10 22 23 27 26
8 8 9 13 12 24 25 29 28
8 9 10 14 13 25 26 30 29
8 10 11 15 14 26 27 31 30
8 16 17 21 20 32 33 37 36
8 17 18 22 21 33 34 38 37
8 18 19 23 22 34 35 39 38
8 20 21 25 24 36 37 41 40
8 21 22 26 25 37 38 42 41
8 22 23 27 26 38 39 43 42
8 24 25 29 28 40 41 45 44
8 25 26 30 29 41 42 46 45
8 26 27 31 30 42 43 47 46
8 32 33 37 36 48 49 53 52
8 33 34 38 37 49 50 54 53
8 34 35 39 38 50 51 55 54
8 36 37 41 40 52 53 57 56
8 37 38 42 41 53 54 58 57
8 38 39 43 42 54 55 59 58
8 40 41 45 44 56 57 61 60
8 41 42 46 45 57 58 62 61
8 42 43 47 46 58 59 63 62
4 0 1 5 4
4 1 2 6 5
4 2 3 7 6
4 4 5 9 8
4 5 6 10 9
4 6 7 11 10
4 8 9 13 12
4 9 10 14 13
4 10 11 15 14
4 48 49 53 52
4 49 50 54 53
4 50 51 55 54
4 52 53 57 56
4 53 54 58 57
4 54 55 59 58
4 56 57 61 60
4 57 58 62 61
4 58 59 63 62
CELL_TYPES 45
12
12
12
12
12
12
12
12
12
12
12
12
12
12
12
12
12
12
12
12
12
12
12
12
12
12
12
9
9
9
9
9
9
9
9
9
9
9
9
9
9
9
9
9
9
POINT_DATA 64
SCALARS node_id int 1
LOOKUP_TABLE default
1
2
3
4
5
6
7
8
9
10
11
12
13
14
15
16
17
18
19
20
21
22
23
24
25
26
27
28
29
30
31
32
33
34
35
36
37
38
39
40
41
42
43
44
45
46
47
48
49
50
51
52
53
54
55
56
57
58
59
60
61
62
63
64
SCALARS potential double 1
LOOKUP_TABLE default
2.000000000000000e+01
2.000000000000000e+01
2.000000000000000e+01
2.000000000000000e+01
2.000000000000000e+01
2.000000000000000e+01
2.000000000000000e+01
2.000000000000000e+01
2.000000000000000e+01
2.000000000000000e+01
2.000000000000000e+01
2.000000000000000e+01
2.000000000000000e+01
2.000000000000000e+01
2.000000000000000e+01
2.000000000000000e+01
1.333333372378758e+01
1.333333370894465e+01
1.333333356878279e+01
1.333333313981011e+01
1.333333288970470e+01
1.333333354352851e+01
1.333333368914018e+01
1.333333424736828e+01
1.333333222349898e+01
1.333333291212902e+01
1.333333368189209e+01
1.333333355787286e+01
1.333333234966731e+01
1.333333230961570e+01
1.333333349345950e+01
1.333333348147458e+01
6.666665349029413e+00
6.666666712904814e+00
6.666668264242848e+00
6.666666305671539e+00
6.666665949094088e+00
6.666666931416522e+00
6.666666540568886e+00
6.666668099703771e+00
6.666665261829348e+00
6.666664440368685e+00
6.666667901479698e+00
6.666667462839841e+00
6.666665225067507e+00
6.666666188964911e+00
6.666667408424957e+00
6.666667748297332e+00
0.000000000000000e+00
0.000000000000000e+00
0.000000000000000e+00
0.000000000000000e+00
0.000000000000000e+00
0.000000000000000e+00
0.000000000000000e+00
0.000000000000000e+00
0.000000000000000e+00
0.000000000000000e+00
0.000000000000000e+00
0.000000000000000e+00
0.000000000000000e+00
0.000000000000000e+00
0.000000000000000e+00
0.000000000000000e+00
SCALARS field_abs double 1
LOOKUP_TABLE default
6.666666533508642e+00
6.666666452954802e+00
6.666666355562812e+00
6.666666338724665e+00
6.666666820646675e+00
6.666666639255466e+00
6.666666365096205e+00
6.666666272328153e+00
6.666667329528478e+00
6.666667025777612e+00
6.666666524077594e+00
6.666666326128444e+00
6.666667551272249e+00
6.666667225999094e+00
6.666666673525588e+00
6.666666446325243e+00
6.666666882194409e+00
6.666666663026388e+00
6.666666396292491e+00
6.666666348726624e+00
6.666667029677932e+00
6.666666819121258e+00
6.666666453820437e+00
6.666666299076298e+00
6.666667268816317e+00
6.666667017124677e+00
6.666666491290453e+00
6.666666217147874e+00
6.666667360471194e+00
6.666667059033233e+00
6.666666471232513e+00
6.666666184869771e+00
6.666666733245712e+00
6.666666773522615e+00
6.666666822218593e+00
6.666666830637670e+00
6.666666589676693e+00
6.666666680372297e+00
6.666666817451905e+00
6.666666863835924e+00
6.666666335235771e+00
6.666666487111230e+00
6.666666737961234e+00
6.666666836935777e+00
6.666666224363885e+00
6.666666387000505e+00
6.666666663237240e+00
6.666666776837377e+00
6.666666235611237e+00
6.666666673947250e+00
6.666667207415014e+00
6.666667302546760e+00
6.666665940644197e+00
6.666666361757541e+00
6.666667092359137e+00
6.666667401847405e+00
6.666665462367387e+00
6.666665965750713e+00
6.666667017419151e+00
6.666667565704253e+00
6.666665279057624e+00
6.666665881933623e+00
6.666667057535034e+00
6.666667630260454e+00
VECTORS field double
1.597452209744402e-07 -2.498747527849445e-07 6.666666533508636e+00
8.055383603699851e-08 -1.305697201730360e-07 6.666666452954800e+00
1.683815331717187e-08 1.478571024294518e-07 6.666666355562811e+00
3.231385553478691e-08 3.069788924200311e-07 6.666666338724658e+00
2.476793407432948e-07 -2.871380282778096e-07 6.666666820646665e+00
1.813912043524082e-07 -1.863006601000701e-07 6.666666639255460e+00
9.276805278270096e-08 -9.533392379172052e-09 6.666666365096204e+00
7.043303760388026e-08 6.639650716398650e-08 6.666666272328152e+00
2.488790328594346e-07 -2.217437754441708e-07 6.666667329528469e+00
3.037508673031412e-07 -2.002214809393183e-07 6.666667025777603e+00
1.979491464646403e-07 -1.494479921818001e-07 6.666666524077590e+00
3.727559118243308e-08 -1.201967979291343e-07 6.666666326128444e+00
1.621446052067199e-07 -1.190862471176669e-07 6.666667551272245e+00
3.252731619384643e-07 -1.584113618515325e-07 6.666667225999084e+00
2.272003406810506e-07 -1.319720971758043e-07 6.666666673525582e+00
-3.400103730810746e-08 -6.620771776621052e-08 6.666666446325242e+00
4.530199503947628e-07 -1.475527052102274e-07 6.666666882194392e+00
2.997218505487147e-07 -1.734813372846149e-07 6.666666663026379e+00
6.440402667147356e-08 5.818185346264971e-08 6.666666396292491e+00
-1.761569735971947e-08 3.157736762843018e-07 6.666666348726617e+00
4.043705661365570e-07 -4.346215404760340e-07 6.666667029677905e+00
3.919478724676275e-07 -3.423955186767204e-07 6.666666819121238e+00
2.475121896278086e-07 -6.706133382154234e-08 6.666666453820433e+00
1.154992004569191e-07 1.160468292343222e-07 6.666666299076295e+00
2.678351899160385e-07 -3.133986625139213e-07 6.666667268816304e+00
5.554425219274940e-07 -2.421300351240648e-07 6.666667017124650e+00
4.720917084060443e-07 -1.293900518677694e-07 6.666666491290434e+00
1.011335628731390e-07 -8.791869600133047e-08 6.666666217147872e+00
1.799491979537258e-07 9.489305071399787e-08 6.666667360471191e+00
6.267111494684475e-07 2.704962982069637e-08 6.666667059033204e+00
5.135630642279448e-07 -6.647558262980432e-08 6.666666471232492e+00
-4.634697252727964e-08 -9.215737418700349e-08 6.666666184869770e+00
6.664220693220830e-07 7.970671895826368e-08 6.666666733245679e+00
4.786129470451441e-07 -1.511080941735600e-07 6.666666773522596e+00
1.035508233728647e-07 -1.054219466649656e-07 6.666666822218591e+00
-8.370217802247597e-08 1.710790139754525e-07 6.666666830637667e+00
4.372221211626871e-07 -4.385360383826996e-07 6.666666589676664e+00
5.118089384121129e-07 -4.053400470852332e-07 6.666666680372265e+00
3.558723000800666e-07 -1.198225789973628e-07 6.666666817451894e+00
1.253488444985945e-07 1.324988977930410e-07 6.666666863835921e+00
1.623518305506527e-07 -2.941816616947056e-07 6.666666335235762e+00
6.552587429071383e-07 -1.839278486870586e-07 6.666666487111195e+00
6.472596971116479e-07 -3.460811533640453e-08 6.666666737961203e+00
1.463537389596714e-07 4.457805006602494e-09 6.666666836935775e+00
1.166814880980141e-07 3.684154723342519e-07 6.666666224363873e+00
7.655125560351952e-07 2.917163026227893e-07 6.666666387000454e+00
6.863256174360270e-07 6.500698065695104e-08 6.666666663237205e+00
-4.169238910032215e-08 -8.500317159742460e-08 6.666666776837376e+00
5.865494588290806e-07 2.046440955520377e-07 6.666666235611208e+00
4.383360290298574e-07 -8.582323395092626e-08 6.666666673947235e+00
9.513174671995404e-08 -1.793504978257788e-07 6.666667207415011e+00
-9.985910579072609e-08 1.758956780233258e-08 6.666667302546759e+00
3.133824507955551e-07 -2.949670240911410e-07 6.666665940644183e+00
4.211133362413789e-07 -3.121897169170957e-07 6.666666361757519e+00
3.094882736872170e-07 -1.150558827308131e-07 6.666667092359129e+00
9.013232568723120e-08 9.930064428142426e-08 6.666667401847404e+00
3.791231412866308e-08 -1.833097738057393e-07 6.666665462367384e+00
5.033833092624300e-07 -8.381710806530588e-08 6.666665965750694e+00
5.482851238758475e-07 4.011588088092954e-08 6.666667017419128e+00
1.277159433554980e-07 6.455620408673161e-08 6.666667565704251e+00
3.560918549529665e-08 4.279585961228411e-07 6.666665279057610e+00
6.028759750719597e-07 3.709219837526533e-07 6.666665881933586e+00
5.727254470972151e-07 1.309930293977064e-07 6.666667057535008e+00
-2.469187045419247e-08 -5.189931258705273e-08 6.666667630260454e+00
CELL_DATA 45
SCALARS element_id int 1
LOOKUP_TABLE default
10
11
12
13
14
15
16
17
18
19
20
21
22
23
24
25
26
27
28
29
30
31
32
33
34
35
36
1
2
3
4
5
6
7
8
9
37
38
39
40
41
42
43
44
45
SCALARS property_id int 1
LOOKUP_TABLE default
1
1
1
1
1
1
1
1
1
1
1
1
1
1
1
1
1
1
1
1
1
1
1
1
1
1
1
2
2
2
2
2
2
2
2
2
3
3
3
3
3
3
3
3
3
SCALARS element_kind int 1
LOOKUP_TABLE default
3
3
3
3
3
3
3
3
3
3
3
3
3
3
3
3
3
3
3
3
3
3
3
3
3
3
3
2
2
2
2
2
2
2
2
2
2
2
2
2
2
2
2
2
2
SCALARS vtk_cell_type int 1
LOOKUP_TABLE default
12
12
12
12
12
12
12
12
12
12
12
12
12
12
12
12
12
12
12
12
12
12
12
12
12
12
12
9
9
9
9
9
9
9
9
9
9
9
9
9
9
9
9
9
9
SCALARS element_field_abs double 1
LOOKUP_TABLE default
6.666666533508642e+00
6.666666372400964e+00
6.666666338724665e+00
6.666667107784710e+00
6.666666543327556e+00
6.666666205931649e+00
6.666667551272249e+00
6.666666900725943e+00
6.666666446325243e+00
6.666667230880191e+00
6.666666515315782e+00
6.666666358728584e+00
6.666667246538243e+00
6.666667003214088e+00
6.666666292920313e+00
6.666667169670148e+00
6.666666614464717e+00
6.666665923414299e+00
6.666666235611237e+00
6.666667112283280e+00
6.666667302546760e+00
6.666665645677206e+00
6.666666453458495e+00
6.666667501148056e+00
6.666665279057624e+00
6.666666484809672e+00
6.666667630260454e+00
0.000000000000000e+00
0.000000000000000e+00
0.000000000000000e+00
0.000000000000000e+00
0.000000000000000e+00
0.000000000000000e+00
0.000000000000000e+00
0.000000000000000e+00
0.000000000000000e+00
0.000000000000000e+00
0.000000000000000e+00
0.000000000000000e+00
0.000000000000000e+00
0.000000000000000e+00
0.000000000000000e+00
0.000000000000000e+00
0.000000000000000e+00
0.000000000000000e+00
SCALARS element_energy double 1
LOOKUP_TABLE default
1.967597214066257e-10
1.967597118967750e-10
1.967597099089334e-10
1.967597553049475e-10
1.967597219862157e-10
1.967597020704384e-10
1.967597814830966e-10
1.967597430826988e-10
1.967597162603712e-10
1.967597625710182e-10
1.967597203327391e-10
1.967597110897230e-10
1.967597634952805e-10
1.967597491323610e-10
1.967597072051979e-10
1.967597589579164e-10
1.967597261852942e-10
1.967596853940287e-10
1.967597038223626e-10
1.967597555704888e-10
1.967597668013470e-10
1.967596689997884e-10
1.967597166814322e-10
1.967597785243694e-10
1.967596473590013e-10
1.967597185320269e-10
1.967597861456066e-10
0.000000000000000e+00
0.000000000000000e+00
0.000000000000000e+00
0.000000000000000e+00
0.000000000000000e+00
0.000000000000000e+00
0.000000000000000e+00
0.000000000000000e+00
0.000000000000000e+00
0.000000000000000e+00
0.000000000000000e+00
0.000000000000000e+00
0.000000000000000e+00
0.000000000000000e+00
0.000000000000000e+00
0.000000000000000e+00
0.000000000000000e+00
0.000000000000000e+00
VECTORS element_field double
1.597452209744402e-07 -2.498747527849445e-07 6.666666533508636e+00
1.362451099556838e-09 -1.126468756112757e-08 6.666666372400964e+00
3.231385553478691e-08 3.069788924200311e-07 6.666666338724658e+00
3.356134605121494e-07 -3.244013037706747e-07 6.666667107784694e+00
2.288436848234865e-07 -1.596618962835336e-07 6.666666543327549e+00
1.085522196729736e-07 -1.741858780920581e-07 6.666666205931645e+00
1.621446052067199e-07 -1.190862471176669e-07 6.666667551272245e+00
4.884017186702087e-07 -1.977364765853982e-07 6.666666900725922e+00
-3.400103730810746e-08 -6.620771776621052e-08 6.666666446325242e+00
7.462946798150854e-07 -4.523065763551030e-08 6.666667230880149e+00
2.914850503057764e-07 -3.875552511568771e-07 6.666666515315764e+00
-6.754525025422584e-08 3.245684601485724e-07 6.666666358728576e+00
3.758289032445530e-07 -1.118979447713006e-06 6.666667246538140e+00
9.964095289659728e-07 -4.421961525080891e-07 6.666667003213999e+00
3.886759768741415e-07 6.825842460743228e-09 6.666666292920302e+00
1.977537907007316e-07 3.088723485456627e-07 6.666667169670137e+00
1.658544483296130e-06 1.161488944401879e-07 6.666666614464510e+00
-5.869290774645182e-08 -1.181070306077965e-07 6.666665923414298e+00
5.865494588290806e-07 2.046440955520377e-07 6.666666235611208e+00
2.901225992306342e-07 -3.762905634538902e-07 6.666667112283263e+00
-9.985910579072609e-08 1.758956780233258e-08 6.666667302546759e+00
4.021544276202950e-08 -7.945781437343196e-07 6.666665645677159e+00
7.675658441437713e-07 -2.825342560322106e-07 6.666666453458445e+00
2.801237571651885e-07 1.810117207605159e-07 6.666667501148048e+00
3.560918549529665e-08 4.279585961228411e-07 6.666665279057610e+00
1.170142764648623e-06 3.138853713824655e-07 6.666666484809562e+00
-2.469187045419247e-08 -5.189931258705273e-08 6.666667630260454e+00
0.000000000000000e+00 0.000000000000000e+00 0.000000000000000e+00
0.000000000000000e+00 0.000000000000000e+00 0.000000000000000e+00
0.000000000000000e+00 0.000000000000000e+00 0.000000000000000e+00
0.000000000000000e+00 0.000000000000000e+00 0.000000000000000e+00
0.000000000000000e+00 0.000000000000000e+00 0.000000000000000e+00
0.000000000000000e+00 0.000000000000000e+00 0.000000000000000e+00
0.000000000000000e+00 0.000000000000000e+00 0.000000000000000e+00
0.000000000000000e+00 0.000000000000000e+00 0.000000000000000e+00
0.000000000000000e+00 0.000000000000000e+00 0.000000000000000e+00
0.000000000000000e+00 0.000000000000000e+00 0.000000000000000e+00
0.000000000000000e+00 0.000000000000000e+00 0.000000000000000e+00
0.000000000000000e+00 0.000000000000000e+00 0.000000000000000e+00
0.000000000000000e+00 0.000000000000000e+00 0.000000000000000e+00
0.000000000000000e+00 0.000000000000000e+00 0.000000000000000e+00
0.000000000000000e+00 0.000000000000000e+00 0.000000000000000e+00
0.000000000000000e+00 0.000000000000000e+00 0.000000000000000e+00
0.000000000000000e+00 0.000000000000000e+00 0.000000000000000e+00
0.000000000000000e+00 0.000000000000000e+00 0.000000000000000e+00
