STEP    (2I5,E11.0)
    1    1  1.000e-03
EVAL   1(I8,6E13.0)
      10  1.90723e-07  4.69024e-08  3.33333e+00  3.33333e+00  4.91899e-11
      11 -2.63517e-07  7.34887e-07  3.33333e+00  3.33333e+00  4.91900e-11
      12  5.05091e-07  4.64426e-07  3.33333e+00  3.33333e+00  4.91899e-11
      13  4.79166e-07  1.62916e-07  3.33333e+00  3.33333e+00  4.91899e-11
      14  3.08699e-07  3.35590e-07  3.33333e+00  3.33333e+00  4.91899e-11
      15 -4.37154e-07  2.36021e-07  3.33333e+00  3.33333e+00  4.91899e-11
      16  7.73922e-07  2.88221e-07  3.33333e+00  3.33333e+00  4.91899e-11
      17 -9.24299e-08  9.17443e-09  3.33333e+00  3.33333e+00  4.91899e-11
      18 -6.70967e-08  7.76718e-08  3.33333e+00  3.33333e+00  4.91899e-11
      19  8.35318e-08  3.32571e-07  3.33333e+00  3.33333e+00  4.91899e-11
      20  2.13961e-08  1.09253e-06  3.33333e+00  3.33333e+00  4.91899e-11
      21  5.22995e-07  6.36239e-07  3.33333e+00  3.33333e+00  4.91899e-11
      22  1.10375e-06  3.42254e-07  3.33333e+00  3.33333e+00  4.91899e-11
      23  9.88800e-08  6.79999e-07  3.33333e+00  3.33333e+00  4.91899e-11
      24 -3.75603e-07  3.15175e-07  3.33333e+00  3.33333e+00  4.91899e-11
      25  1.23915e-06  2.44310e-07  3.33333e+00  3.33333e+00  4.91899e-11
      26 -1.34692e-07 -1.91606e-07  3.33333e+00  3.33333e+00  4.91899e-11
      27 -1.32554e-07  1.82695e-07  3.33333e+00  3.33333e+00  4.91899e-11
      28 -1.07192e-07  2.85668e-07  3.33333e+00  3.33333e+00  4.91899e-11
      29  2.84913e-07  3.57642e-07  3.33333e+00  3.33333e+00  4.91899e-11
      30  1.79043e-08  1.71813e-07  3.33333e+00  3.33333e+00  4.91899e-11
      31  6.24586e-07  1.79338e-07  3.33333e+00  3.33333e+00  4.91899e-11
      32 -2.09819e-07  3.44410e-07  3.33333e+00  3.33333e+00  4.91899e-11
      33  6.15509e-08  7.91539e-08  3.33333e+00  3.33333e+00  4.91899e-11
      34  4.65232e-07 -4.39111e-08  3.33333e+00  3.33333e+00  4.91899e-11
      35 -4.22621e-08 -2.00780e-07  3.33333e+00  3.33333e+00  4.91899e-11
      36 -6.54577e-08  1.05024e-07  3.33333e+00  3.33333e+00  4.91899e-11
      -1
STRE   1(I8,6E13.0)
       1  0.00000e+00  0.00000e+00  3.33333e+00  3.33333e+00  1.00000e+01
       2  0.00000e+00  0.00000e+00  3.33333e+00  3.33333e+00  1.00000e+01
       3  0.00000e+00  0.00000e+00  3.33334e+00  3.33334e+00  1.00000e+01
       4  0.00000e+00  0.00000e+00  3.33333e+00  3.33333e+00  1.00000e+01
       5  0.00000e+00  0.00000e+00  3.33333e+00  3.33333e+00  1.00000e+01
       6  0.00000e+00  0.00000e+00  3.33333e+00  3.33333e+00  1.00000e+01
       7  0.00000e+00  0.00000e+00  3.33333e+00  3.33333e+00  1.00000e+01
       8  0.00000e+00  0.00000e+00  3.33333e+00  3.33333e+00  1.00000e+01
       9  0.00000e+00  0.00000e+00  3.33333e+00  3.33333e+00  1.00000e+01
      10  0.00000e+00  0.00000e+00  3.33333e+00  3.33333e+00  1.00000e+01
      11  0.00000e+00  0.00000e+00  3.33333e+00  3.33333e+00  1.00000e+01
      12  0.00000e+00  0.00000e+00  3.33333e+00  3.33333e+00  1.00000e+01
      13  0.00000e+00  0.00000e+00  3.33333e+00  3.33333e+00  1.00000e+01
      14  0.00000e+00  0.00000e+00  3.33333e+00  3.33333e+00  1.00000e+01
      15  0.00000e+00  0.00000e+00  3.33333e+00  3.33333e+00  1.00000e+01
      16  0.00000e+00  0.00000e+00  3.33333e+00  3.33333e+00  1.00000e+01
      17  2.09804e-07 -7.78376e-08  3.33333e+00  3.33333e+00  6.66667e+00
      18 -7.60778e-07  2.65447e-07  3.33333e+00  3.33333e+00  6.66667e+00
      19  5.12036e-07  2.67410e-06  3.33333e+00  3.33333e+00  6.66666e+00
      20  2.75543e-06 -8.16398e-07  3.33333e+00  3.33333e+00  6.66667e+00
      21  5.53089e-07 -7.86242e-08  3.33333e+00  3.33333e+00  6.66667e+00
      22  6.15191e-07  4.98261e-07  3.33333e+00  3.33333e+00  6.66667e+00
      23 -2.88870e-08  1.64269e-06  3.33333e+00  3.33333e+00  6.66667e+00
      24 -7.35068e-07 -2.41798e-07  3.33333e+00  3.33333e+00  6.66667e+00
      25  1.36358e-06  1.56382e-07  3.33333e+00  3.33333e+00  6.66667e+00
      26  9.60538e-07  7.45893e-07  3.33333e+00  3.33333e+00  6.66667e+00
      27 -2.28024e-07 -5.63645e-08  3.33333e+00  3.33333e+00  6.66667e+00
      28 -1.01355e-06  6.83750e-07  3.33333e+00  3.33333e+00  6.66667e+00
      29  1.73211e-06  3.92174e-07  3.33333e+00  3.33333e+00  6.66667e+00
      30  4.02445e-07  7.60710e-07  3.33333e+00  3.33333e+00  6.66667e+00
      31 -9.10293e-08 -7.24012e-07  3.33333e+00  3.33333e+00  6.66667e+00
      32  7.45162e-07  1.03470e-06  3.33333e+00  3.33333e+00  6.66667e+00
      33 -4.73616e-07  3.12104e-07  3.33333e+00  3.33333e+00  3.33333e+00
      34  1.05747e-07  8.30569e-07  3.33333e+00  3.33333e+00  3.33333e+00
      35  4.88646e-07  6.00000e-07  3.33333e+00  3.33333e+00  3.33333e+00
      36  2.92182e-07  8.72537e-08  3.33333e+00  3.33333e+00  3.33333e+00
      37  4.48496e-08 -2.66772e-07  3.33333e+00  3.33333e+00  3.33333e+00
      38  2.49695e-07  1.19678e-06  3.33333e+00  3.33333e+00  3.33333e+00
      39  1.16988e-07  2.07321e-07  3.33333e+00  3.33333e+00  3.33333e+00
      40 -2.20565e-07  2.94614e-07  3.33333e+00  3.33333e+00  3.33333e+00
      41  2.45349e-06  2.94780e-07  3.33333e+00  3.33333e+00  3.33333e+00
      42  5.79839e-07 -2.39271e-08  3.33333e+00  3.33333e+00  3.33333e+00
      43 -4.13524e-07  3.11186e-07  3.33333e+00  3.33333e+00  3.33333e+00
      44  4.66768e-07  5.71688e-08  3.33333e+00  3.33333e+00  3.33333e+00
      45 -5.92565e-07  1.43521e-06  3.33333e+00  3.33333e+00  3.33333e+00
      46  2.66101e-07 -1.61085e-06  3.33333e+00  3.33333e+00  3.33333e+00
      47  1.98084e-07  8.07731e-07  3.33333e+00  3.33333e+00  3.33333e+00
      48 -7.28599e-07 -3.87637e-07  3.33333e+00  3.33333e+00  3.33333e+00
      49  0.00000e+00  0.00000e+00  3.33333e+00  3.33333e+00  0.00000e+00
      50  0.00000e+00  0.00000e+00  3.33333e+00  3.33333e+00  0.00000e+00
      51  0.00000e+00  0.00000e+00  3.33333e+00  3.33333e+00  0.00000e+00
      52  0.00000e+00  0.00000e+00  3.33333e+00  3.33333e+00  0.00000e+00
      53  0.00000e+00  0.00000e+00  3.33333e+00  3.33333e+00  0.00000e+00
      54  0.00000e+00  0.00000e+00  3.33333e+00  3.33333e+00  0.00000e+00
      55  0.00000e+00  0.00000e+00  3.33333e+00  3.33333e+00  0.00000e+00
      56  0.00000e+00  0.00000e+00  3.33333e+00  3.33333e+00  0.00000e+00
      57  0.00000e+00  0.00000e+00  3.33333e+00  3.33333e+00  0.00000e+00
      58  0.00000e+00  0.00000e+00  3.33333e+00  3.33333e+00  0.00000e+00
      59  0.00000e+00  0.00000e+00  3.33333e+00  3.33333e+00  0.00000e+00
      60  0.00000e+00  0.00000e+00  3.33333e+00  3.33333e+00  0.00000e+00
      61  0.00000e+00  0.00000e+00  3.33333e+00  3.33333e+00  0.00000e+00
      62  0.00000e+00  0.00000e+00  3.33333e+00  3.33333e+00  0.00000e+00
      63  0.00000e+00  0.00000e+00  3.33333e+00  3.33333e+00  0.00000e+00
      64  0.00000e+00  0.00000e+00  3.33333e+00  3.33333e+00  0.00000e+00
      -1
