# vtk DataFile Version 3.0
eMachineSim mesh
ASCII
DATASET UNSTRUCTURED_GRID
POINTS 64 double
3.000000000000000e+00 3.000000000000000e+00 0.000000000000000e+00
2.000000000000000e+00 3.000000000000000e+00 0.000000000000000e+00
1.000000000000000e+00 3.000000000000000e+00 0.000000000000000e+00
0.000000000000000e+00 3.000000000000000e+00 0.000000000000000e+00
3.000000000000000e+00 2.000000000000000e+00 0.000000000000000e+00
2.000000000000000e+00 2.000000000000000e+00 0.000000000000000e+00
1.000000000000000e+00 2.000000000000000e+00 0.000000000000000e+00
0.000000000000000e+00 2.000000000000000e+00 0.000000000000000e+00
3.000000000000000e+00 1.000000000000000e+00 0.000000000000000e+00
2.000000000000000e+00 1.000000000000000e+00 0.000000000000000e+00
1.000000000000000e+00 1.000000000000000e+00 0.000000000000000e+00
0.000000000000000e+00 1.000000000000000e+00 0.000000000000000e+00
3.000000000000000e+00 0.000000000000000e+00 0.000000000000000e+00
2.000000000000000e+00 0.000000000000000e+00 0.000000000000000e+00
1.000000000000000e+00 0.000000000000000e+00 0.000000000000000e+00
0.000000000000000e+00 0.000000000000000e+00 0.000000000000000e+00
3.000000000000000e+00 3.000000000000000e+00 1.000000000000000e+00
2.000000000000000e+00 3.000000000000000e+00 1.000000000000000e+00
1.000000000000000e+00 3.000000000000000e+00 1.000000000000000e+00
0.000000000000000e+00 3.000000000000000e+00 1.000000000000000e+00
3.000000000000000e+00 2.000000000000000e+00 1.000000000000000e+00
2.000000000000000e+00 2.000000000000000e+00 1.000000000000000e+00
1.000000000000000e+00 2.000000000000000e+00 1.000000000000000e+00
0.000000000000000e+00 2.000000000000000e+00 1.000000000000000e+00
3.000000000000000e+00 1.000000000000000e+00 1.000000000000000e+00
2.000000000000000e+00 1.000000000000000e+00 1.000000000000000e+00
1.000000000000000e+00 1.000000000000000e+00 1.000000000000000e+00
0.000000000000000e+00 1.000000000000000e+00 1.000000000000000e+00
3.000000000000000e+00 0.000000000000000e+00 1.000000000000000e+00
2.000000000000000e+00 0.000000000000000e+00 1.000000000000000e+00
1.000000000000000e+00 0.000000000000000e+00 1.000000000000000e+00
0.000000000000000e+00 0.000000000000000e+00 1.000000000000000e+00
3.000000000000000e+00 3.000000000000000e+00 2.000000000000000e+00
2.000000000000000e+00 3.000000000000000e+00 2.000000000000000e+00
1.000000000000000e+00 3.000000000000000e+00 2.000000000000000e+00
0.000000000000000e+00 3.000000000000000e+00 2.000000000000000e+00
3.000000000000000e+00 2.000000000000000e+00 2.000000000000000e+00
2.000000000000000e+00 2.000000000000000e+00 2.000000000000000e+00
1.000000000000000e+00 2.000000000000000e+00 2.000000000000000e+00
0.000000000000000e+00 2.000000000000000e+00 2.000000000000000e+00
3.000000000000000e+00 1.000000000000000e+00 2.000000000000000e+00
2.000000000000000e+00 1.000000000000000e+00 2.000000000000000e+00
1.000000000000000e+00 1.000000000000000e+00 2.000000000000000e+00
0.000000000000000e+00 1.000000000000000e+00 2.000000000000000e+00
3.000000000000000e+00 0.000000000000000e+00 2.000000000000000e+00
2.000000000000000e+00 0.000000000000000e+00 2.000000000000000e+00
1.000000000000000e+00 0.000000000000000e+00 2.000000000000000e+00
0.000000000000000e+00 0.000000000000000e+00 2.000000000000000e+00
3.000000000000000e+00 3.000000000000000e+00 3.000000000000000e+00
2.000000000000000e+00 3.000000000000000e+00 3.000000000000000e+00
1.000000000000000e+00 3.000000000000000e+00 3.000000000000000e+00
0.000000000000000e+00 3.000000000000000e+00 3.000000000000000e+00
3.000000000000000e+00 2.000000000000000e+00 3.000000000000000e+00
2.000000000000000e+00 2.000000000000000e+00 3.000000000000000e+00
1.000000000000000e+00 2.000000000000000e+00 3.000000000000000e+00
0.000000000000000e+00 2.000000000000000e+00 3.000000000000000e+00
3.000000000000000e+00 1.000000000000000e+00 3.000000000000000e+00
2.000000000000000e+00 1.000000000000000e+00 3.000000000000000e+00
1.000000000000000e+00 1.000000000000000e+00 3.000000000000000e+00
0.000000000000000e+00 1.000000000000000e+00 3.000000000000000e+00
3.000000000000000e+00 0.000000000000000e+00 3.000000000000000e+00
2.000000000000000e+00 0.000000000000000e+00 3.000000000000000e+00
1.000000000000000e+00 0.000000000000000e+00 3.000000000000000e+00
0.000000000000000e+00 0.000000000000000e+00 3.000000000000000e+00
CELLS 45 333
8 0 1 5 4 16 17 21 20
8 1 2 6 5 17 18 22 21
8 2 3 7 6 18 19 23 22
8 4 5 9 8 20 21 25 24
8 5 6 10 9 21 22 26 25
8 6 7 11 10 22 23 27 26
8 8 9 13 12 24 25 29 28
8 9 10 14 13 25 26 30 29
8 10 11 15 14 26 27 31 30
8 16 17 21 20 32 33 37 36
8 17 18 22 21 33 34 38 37
8 18 19 23 22 34 35 39 38
8 20 21 25 24 36 37 41 40
8 21 22 26 25 37 38 42 41
8 22 23 27 26 38 39 43 42
8 24 25 29 28 40 41 45 44
8 25 26 30 29 41 42 46 45
8 26 27 31 30 42 43 47 46
8 32 33 37 36 48 49 53 52
8 33 34 38 37 49 50 54 53
8 34 35 39 38 50 51 55 54
8 36 37 41 40 52 53 57 56
8 37 38 42 41 53 54 58 57
8 38 39 43 42 54 55 59 58
8 40 41 45 44 56 57 61 60
8 41 42 46 45 57 58 62 61
8 42 43 47 46 58 59 63 62
4 0 1 5 4
4 1 2 6 5
4 2 3 7 6
4 4 5 9 8
4 5 6 10 9
4 6 7 11 10
4 8 9 13 12
4 9 10 14 13
4 10 11 15 14
4 48 49 53 52
4 49 50 54 53
4 50 51 55 54
4 52 53 57 56
4 53 54 58 57
4 54 55 59 58
4 56 57 61 60
4 57 58 62 61
4 58 59 63 62
CELL_TYPES 45
12
12
12
12
12
12
12
12
12
12
12
12
12
12
12
12
12
12
12
12
12
12
12
12
12
12
12
9
9
9
9
9
9
9
9
9
9
9
9
9
9
9
9
9
9
POINT_DATA 64
SCALARS node_id int 1
LOOKUP_TABLE default
1
2
3
4
5
6
7
8
9
10
11
12
13
14
15
16
17
18
19
20
21
22
23
24
25
26
27
28
29
30
31
32
33
34
35
36
37
38
39
40
41
42
43
44
45
46
47
48
49
50
51
52
53
54
55
56
57
58
59
60
61
62
63
64
CELL_DATA 45
SCALARS element_id int 1
LOOKUP_TABLE default
10
11
12
13
14
15
16
17
18
19
20
21
22
23
24
25
26
27
28
29
30
31
32
33
34
35
36
1
2
3
4
5
6
7
8
9
37
38
39
40
41
42
43
44
45
SCALARS property_id int 1
LOOKUP_TABLE default
1
1
1
1
1
1
1
1
1
1
1
1
1
1
1
1
1
1
1
1
1
1
1
1
1
1
1
2
2
2
2
2
2
2
2
2
3
3
3
3
3
3
3
3
3
SCALARS element_kind int 1
LOOKUP_TABLE default
3
3
3
3
3
3
3
3
3
3
3
3
3
3
3
3
3
3
3
3
3
3
3
3
3
3
3
2
2
2
2
2
2
2
2
2
2
2
2
2
2
2
2
2
2
SCALARS vtk_cell_type int 1
LOOKUP_TABLE default
12
12
12
12
12
12
12
12
12
12
12
12
12
12
12
12
12
12
12
12
12
12
12
12
12
12
12
9
9
9
9
9
9
9
9
9
9
9
9
9
9
9
9
9
9
