   -1
   100
<nullptr>
4.41,
   -1
   -1
   450
1,
STEP:1 Time:  0.00000e+00
0,3,
  0.00000e+00,
1,
<NULL>
   -1
   -1
   451
1,70001,1,
POTENTIAL-node-1
0.,-1.,0.,
70001,0,0,0,0,0,0,0,0,0,
0,0,0,0,0,0,0,0,0,0,
0,1,1,
1, 1.00000000e+01,
2, 1.00000000e+01,
3, 1.00000000e+01,
4, 1.00000000e+01,
5, 1.00000000e+01,
6, 1.00000000e+01,
7, 1.00000000e+01,
8, 1.00000000e+01,
9, 1.00000000e+01,
10, 1.00000000e+01,
11, 1.00000000e+01,
12, 1.00000000e+01,
13, 1.00000000e+01,
14, 1.00000000e+01,
15, 1.00000000e+01,
16, 1.00000000e+01,
17, 6.66667205e+00,
18, 6.66666941e+00,
19, 6.66667115e+00,
20, 6.66666253e+00,
21, 6.66666924e+00,
22, 6.66666935e+00,
23, 6.66666669e+00,
24, 6.66666683e+00,
25, 6.66666707e+00,
26, 6.66666885e+00,
27, 6.66666127e+00,
28, 6.66666439e+00,
29, 6.66666735e+00,
30, 6.66666367e+00,
31, 6.66666395e+00,
32, 6.66666201e+00,
33, 3.33333498e+00,
34, 3.33333612e+00,
35, 3.33333080e+00,
36, 3.33333564e+00,
37, 3.33333235e+00,
38, 3.33333326e+00,
39, 3.33333141e+00,
40, 3.33333298e+00,
41, 3.33333480e+00,
42, 3.33333023e+00,
43, 3.33333213e+00,
44, 3.33332521e+00,
45, 3.33333209e+00,
46, 3.33333178e+00,
47, 3.33332920e+00,
48, 3.33333173e+00,
49, 0.00000000e+00,
50, 0.00000000e+00,
51, 0.00000000e+00,
52, 0.00000000e+00,
53, 0.00000000e+00,
54, 0.00000000e+00,
55, 0.00000000e+00,
56, 0.00000000e+00,
57, 0.00000000e+00,
58, 0.00000000e+00,
59, 0.00000000e+00,
60, 0.00000000e+00,
61, 0.00000000e+00,
62, 0.00000000e+00,
63, 0.00000000e+00,
64, 0.00000000e+00,
-1,0.,
   -1
