   -1
   100
<NULL>
4.41,
   -1
   -1
   403
1,0,0,1,46,0,0,0,0,0,0,  3.00000e+00,  3.00000e+00,  0.00000e+00,
2,0,0,1,46,0,0,0,0,0,0,  2.00000e+00,  3.00000e+00,  0.00000e+00,
3,0,0,1,46,0,0,0,0,0,0,  1.00000e+00,  3.00000e+00,  0.00000e+00,
4,0,0,1,46,0,0,0,0,0,0,  0.00000e+00,  3.00000e+00,  0.00000e+00,
5,0,0,1,46,0,0,0,0,0,0,  3.00000e+00,  2.00000e+00,  0.00000e+00,
6,0,0,1,46,0,0,0,0,0,0,  2.00000e+00,  2.00000e+00,  0.00000e+00,
7,0,0,1,46,0,0,0,0,0,0,  1.00000e+00,  2.00000e+00,  0.00000e+00,
8,0,0,1,46,0,0,0,0,0,0,  0.00000e+00,  2.00000e+00,  0.00000e+00,
9,0,0,1,46,0,0,0,0,0,0,  3.00000e+00,  1.00000e+00,  0.00000e+00,
10,0,0,1,46,0,0,0,0,0,0,  2.00000e+00,  1.00000e+00,  0.00000e+00,
11,0,0,1,46,0,0,0,0,0,0,  1.00000e+00,  1.00000e+00,  0.00000e+00,
12,0,0,1,46,0,0,0,0,0,0,  0.00000e+00,  1.00000e+00,  0.00000e+00,
13,0,0,1,46,0,0,0,0,0,0,  3.00000e+00,  0.00000e+00,  0.00000e+00,
14,0,0,1,46,0,0,0,0,0,0,  2.00000e+00,  0.00000e+00,  0.00000e+00,
15,0,0,1,46,0,0,0,0,0,0,  1.00000e+00,  0.00000e+00,  0.00000e+00,
16,0,0,1,46,0,0,0,0,0,0,  0.00000e+00,  0.00000e+00,  0.00000e+00,
17,0,0,1,46,0,0,0,0,0,0,  3.00000e+00,  3.00000e+00,  1.00000e+00,
18,0,0,1,46,0,0,0,0,0,0,  2.00000e+00,  3.00000e+00,  1.00000e+00,
19,0,0,1,46,0,0,0,0,0,0,  1.00000e+00,  3.00000e+00,  1.00000e+00,
20,0,0,1,46,0,0,0,0,0,0,  0.00000e+00,  3.00000e+00,  1.00000e+00,
21,0,0,1,46,0,0,0,0,0,0,  3.00000e+00,  2.00000e+00,  1.00000e+00,
22,0,0,1,46,0,0,0,0,0,0,  2.00000e+00,  2.00000e+00,  1.00000e+00,
23,0,0,1,46,0,0,0,0,0,0,  1.00000e+00,  2.00000e+00,  1.00000e+00,
24,0,0,1,46,0,0,0,0,0,0,  0.00000e+00,  2.00000e+00,  1.00000e+00,
25,0,0,1,46,0,0,0,0,0,0,  3.00000e+00,  1.00000e+00,  1.00000e+00,
26,0,0,1,46,0,0,0,0,0,0,  2.00000e+00,  1.00000e+00,  1.00000e+00,
27,0,0,1,46,0,0,0,0,0,0,  1.00000e+00,  1.00000e+00,  1.00000e+00,
28,0,0,1,46,0,0,0,0,0,0,  0.00000e+00,  1.00000e+00,  1.00000e+00,
29,0,0,1,46,0,0,0,0,0,0,  3.00000e+00,  0.00000e+00,  1.00000e+00,
30,0,0,1,46,0,0,0,0,0,0,  2.00000e+00,  0.00000e+00,  1.00000e+00,
31,0,0,1,46,0,0,0,0,0,0,  1.00000e+00,  0.00000e+00,  1.00000e+00,
32,0,0,1,46,0,0,0,0,0,0,  0.00000e+00,  0.00000e+00,  1.00000e+00,
33,0,0,1,46,0,0,0,0,0,0,  3.00000e+00,  3.00000e+00,  2.00000e+00,
34,0,0,1,46,0,0,0,0,0,0,  2.00000e+00,  3.00000e+00,  2.00000e+00,
35,0,0,1,46,0,0,0,0,0,0,  1.00000e+00,  3.00000e+00,  2.00000e+00,
36,0,0,1,46,0,0,0,0,0,0,  0.00000e+00,  3.00000e+00,  2.00000e+00,
37,0,0,1,46,0,0,0,0,0,0,  3.00000e+00,  2.00000e+00,  2.00000e+00,
38,0,0,1,46,0,0,0,0,0,0,  2.00000e+00,  2.00000e+00,  2.00000e+00,
39,0,0,1,46,0,0,0,0,0,0,  1.00000e+00,  2.00000e+00,  2.00000e+00,
40,0,0,1,46,0,0,0,0,0,0,  0.00000e+00,  2.00000e+00,  2.00000e+00,
41,0,0,1,46,0,0,0,0,0,0,  3.00000e+00,  1.00000e+00,  2.00000e+00,
42,0,0,1,46,0,0,0,0,0,0,  2.00000e+00,  1.00000e+00,  2.00000e+00,
43,0,0,1,46,0,0,0,0,0,0,  1.00000e+00,  1.00000e+00,  2.00000e+00,
44,0,0,1,46,0,0,0,0,0,0,  0.00000e+00,  1.00000e+00,  2.00000e+00,
45,0,0,1,46,0,0,0,0,0,0,  3.00000e+00,  0.00000e+00,  2.00000e+00,
46,0,0,1,46,0,0,0,0,0,0,  2.00000e+00,  0.00000e+00,  2.00000e+00,
47,0,0,1,46,0,0,0,0,0,0,  1.00000e+00,  0.00000e+00,  2.00000e+00,
48,0,0,1,46,0,0,0,0,0,0,  0.00000e+00,  0.00000e+00,  2.00000e+00,
49,0,0,1,46,0,0,0,0,0,0,  3.00000e+00,  3.00000e+00,  3.00000e+00,
50,0,0,1,46,0,0,0,0,0,0,  2.00000e+00,  3.00000e+00,  3.00000e+00,
51,0,0,1,46,0,0,0,0,0,0,  1.00000e+00,  3.00000e+00,  3.00000e+00,
52,0,0,1,46,0,0,0,0,0,0,  0.00000e+00,  3.00000e+00,  3.00000e+00,
53,0,0,1,46,0,0,0,0,0,0,  3.00000e+00,  2.00000e+00,  3.00000e+00,
54,0,0,1,46,0,0,0,0,0,0,  2.00000e+00,  2.00000e+00,  3.00000e+00,
55,0,0,1,46,0,0,0,0,0,0,  1.00000e+00,  2.00000e+00,  3.00000e+00,
56,0,0,1,46,0,0,0,0,0,0,  0.00000e+00,  2.00000e+00,  3.00000e+00,
57,0,0,1,46,0,0,0,0,0,0,  3.00000e+00,  1.00000e+00,  3.00000e+00,
58,0,0,1,46,0,0,0,0,0,0,  2.00000e+00,  1.00000e+00,  3.00000e+00,
59,0,0,1,46,0,0,0,0,0,0,  1.00000e+00,  1.00000e+00,  3.00000e+00,
60,0,0,1,46,0,0,0,0,0,0,  0.00000e+00,  1.00000e+00,  3.00000e+00,
61,0,0,1,46,0,0,0,0,0,0,  3.00000e+00,  0.00000e+00,  3.00000e+00,
62,0,0,1,46,0,0,0,0,0,0,  2.00000e+00,  0.00000e+00,  3.00000e+00,
63,0,0,1,46,0,0,0,0,0,0,  1.00000e+00,  0.00000e+00,  3.00000e+00,
64,0,0,1,46,0,0,0,0,0,0,  0.00000e+00,  0.00000e+00,  3.00000e+00,
   -1
   -1
   404
10,124,1,25,8,1,0,0,
1,2,6,5,17,18,22,21,0,0,
0,0,0,0,0,0,0,0,0,0,
0.,0.,0.,
0.,0.,0.,
0.,0.,0.,
0,0,0,0,0,0,0,0,0,0,0,0,0,0,0,0,
11,124,1,25,8,1,0,0,
2,3,7,6,18,19,23,22,0,0,
0,0,0,0,0,0,0,0,0,0,
0.,0.,0.,
0.,0.,0.,
0.,0.,0.,
0,0,0,0,0,0,0,0,0,0,0,0,0,0,0,0,
12,124,1,25,8,1,0,0,
3,4,8,7,19,20,24,23,0,0,
0,0,0,0,0,0,0,0,0,0,
0.,0.,0.,
0.,0.,0.,
0.,0.,0.,
0,0,0,0,0,0,0,0,0,0,0,0,0,0,0,0,
13,124,1,25,8,1,0,0,
5,6,10,9,21,22,26,25,0,0,
0,0,0,0,0,0,0,0,0,0,
0.,0.,0.,
0.,0.,0.,
0.,0.,0.,
0,0,0,0,0,0,0,0,0,0,0,0,0,0,0,0,
14,124,1,25,8,1,0,0,
6,7,11,10,22,23,27,26,0,0,
0,0,0,0,0,0,0,0,0,0,
0.,0.,0.,
0.,0.,0.,
0.,0.,0.,
0,0,0,0,0,0,0,0,0,0,0,0,0,0,0,0,
15,124,1,25,8,1,0,0,
7,8,12,11,23,24,28,27,0,0,
0,0,0,0,0,0,0,0,0,0,
0.,0.,0.,
0.,0.,0.,
0.,0.,0.,
0,0,0,0,0,0,0,0,0,0,0,0,0,0,0,0,
16,124,1,25,8,1,0,0,
9,10,14,13,25,26,30,29,0,0,
0,0,0,0,0,0,0,0,0,0,
0.,0.,0.,
0.,0.,0.,
0.,0.,0.,
0,0,0,0,0,0,0,0,0,0,0,0,0,0,0,0,
17,124,1,25,8,1,0,0,
10,11,15,14,26,27,31,30,0,0,
0,0,0,0,0,0,0,0,0,0,
0.,0.,0.,
0.,0.,0.,
0.,0.,0.,
0,0,0,0,0,0,0,0,0,0,0,0,0,0,0,0,
18,124,1,25,8,1,0,0,
11,12,16,15,27,28,32,31,0,0,
0,0,0,0,0,0,0,0,0,0,
0.,0.,0.,
0.,0.,0.,
0.,0.,0.,
0,0,0,0,0,0,0,0,0,0,0,0,0,0,0,0,
19,124,1,25,8,1,0,0,
17,18,22,21,33,34,38,37,0,0,
0,0,0,0,0,0,0,0,0,0,
0.,0.,0.,
0.,0.,0.,
0.,0.,0.,
0,0,0,0,0,0,0,0,0,0,0,0,0,0,0,0,
20,124,1,25,8,1,0,0,
18,19,23,22,34,35,39,38,0,0,
0,0,0,0,0,0,0,0,0,0,
0.,0.,0.,
0.,0.,0.,
0.,0.,0.,
0,0,0,0,0,0,0,0,0,0,0,0,0,0,0,0,
21,124,1,25,8,1,0,0,
19,20,24,23,35,36,40,39,0,0,
0,0,0,0,0,0,0,0,0,0,
0.,0.,0.,
0.,0.,0.,
0.,0.,0.,
0,0,0,0,0,0,0,0,0,0,0,0,0,0,0,0,
22,124,1,25,8,1,0,0,
21,22,26,25,37,38,42,41,0,0,
0,0,0,0,0,0,0,0,0,0,
0.,0.,0.,
0.,0.,0.,
0.,0.,0.,
0,0,0,0,0,0,0,0,0,0,0,0,0,0,0,0,
23,124,1,25,8,1,0,0,
22,23,27,26,38,39,43,42,0,0,
0,0,0,0,0,0,0,0,0,0,
0.,0.,0.,
0.,0.,0.,
0.,0.,0.,
0,0,0,0,0,0,0,0,0,0,0,0,0,0,0,0,
24,124,1,25,8,1,0,0,
23,24,28,27,39,40,44,43,0,0,
0,0,0,0,0,0,0,0,0,0,
0.,0.,0.,
0.,0.,0.,
0.,0.,0.,
0,0,0,0,0,0,0,0,0,0,0,0,0,0,0,0,
25,124,1,25,8,1,0,0,
25,26,30,29,41,42,46,45,0,0,
0,0,0,0,0,0,0,0,0,0,
0.,0.,0.,
0.,0.,0.,
0.,0.,0.,
0,0,0,0,0,0,0,0,0,0,0,0,0,0,0,0,
26,124,1,25,8,1,0,0,
26,27,31,30,42,43,47,46,0,0,
0,0,0,0,0,0,0,0,0,0,
0.,0.,0.,
0.,0.,0.,
0.,0.,0.,
0,0,0,0,0,0,0,0,0,0,0,0,0,0,0,0,
27,124,1,25,8,1,0,0,
27,28,32,31,43,44,48,47,0,0,
0,0,0,0,0,0,0,0,0,0,
0.,0.,0.,
0.,0.,0.,
0.,0.,0.,
0,0,0,0,0,0,0,0,0,0,0,0,0,0,0,0,
28,124,1,25,8,1,0,0,
33,34,38,37,49,50,54,53,0,0,
0,0,0,0,0,0,0,0,0,0,
0.,0.,0.,
0.,0.,0.,
0.,0.,0.,
0,0,0,0,0,0,0,0,0,0,0,0,0,0,0,0,
29,124,1,25,8,1,0,0,
34,35,39,38,50,51,55,54,0,0,
0,0,0,0,0,0,0,0,0,0,
0.,0.,0.,
0.,0.,0.,
0.,0.,0.,
0,0,0,0,0,0,0,0,0,0,0,0,0,0,0,0,
30,124,1,25,8,1,0,0,
35,36,40,39,51,52,56,55,0,0,
0,0,0,0,0,0,0,0,0,0,
0.,0.,0.,
0.,0.,0.,
0.,0.,0.,
0,0,0,0,0,0,0,0,0,0,0,0,0,0,0,0,
31,124,1,25,8,1,0,0,
37,38,42,41,53,54,58,57,0,0,
0,0,0,0,0,0,0,0,0,0,
0.,0.,0.,
0.,0.,0.,
0.,0.,0.,
0,0,0,0,0,0,0,0,0,0,0,0,0,0,0,0,
32,124,1,25,8,1,0,0,
38,39,43,42,54,55,59,58,0,0,
0,0,0,0,0,0,0,0,0,0,
0.,0.,0.,
0.,0.,0.,
0.,0.,0.,
0,0,0,0,0,0,0,0,0,0,0,0,0,0,0,0,
33,124,1,25,8,1,0,0,
39,40,44,43,55,56,60,59,0,0,
0,0,0,0,0,0,0,0,0,0,
0.,0.,0.,
0.,0.,0.,
0.,0.,0.,
0,0,0,0,0,0,0,0,0,0,0,0,0,0,0,0,
34,124,1,25,8,1,0,0,
41,42,46,45,57,58,62,61,0,0,
0,0,0,0,0,0,0,0,0,0,
0.,0.,0.,
0.,0.,0.,
0.,0.,0.,
0,0,0,0,0,0,0,0,0,0,0,0,0,0,0,0,
35,124,1,25,8,1,0,0,
42,43,47,46,58,59,63,62,0,0,
0,0,0,0,0,0,0,0,0,0,
0.,0.,0.,
0.,0.,0.,
0.,0.,0.,
0,0,0,0,0,0,0,0,0,0,0,0,0,0,0,0,
36,124,1,25,8,1,0,0,
43,44,48,47,59,60,64,63,0,0,
0,0,0,0,0,0,0,0,0,0,
0.,0.,0.,
0.,0.,0.,
0.,0.,0.,
0,0,0,0,0,0,0,0,0,0,0,0,0,0,0,0,
1,124,2,17,4,1,0,0,
1,2,6,5,0,0,0,0,0,0,
0,0,0,0,0,0,0,0,0,0,
0.,0.,0.,
0.,0.,0.,
0.,0.,0.,
0,0,0,0,0,0,0,0,0,0,0,0,0,0,0,0,
2,124,2,17,4,1,0,0,
2,3,7,6,0,0,0,0,0,0,
0,0,0,0,0,0,0,0,0,0,
0.,0.,0.,
0.,0.,0.,
0.,0.,0.,
0,0,0,0,0,0,0,0,0,0,0,0,0,0,0,0,
3,124,2,17,4,1,0,0,
3,4,8,7,0,0,0,0,0,0,
0,0,0,0,0,0,0,0,0,0,
0.,0.,0.,
0.,0.,0.,
0.,0.,0.,
0,0,0,0,0,0,0,0,0,0,0,0,0,0,0,0,
4,124,2,17,4,1,0,0,
5,6,10,9,0,0,0,0,0,0,
0,0,0,0,0,0,0,0,0,0,
0.,0.,0.,
0.,0.,0.,
0.,0.,0.,
0,0,0,0,0,0,0,0,0,0,0,0,0,0,0,0,
5,124,2,17,4,1,0,0,
6,7,11,10,0,0,0,0,0,0,
0,0,0,0,0,0,0,0,0,0,
0.,0.,0.,
0.,0.,0.,
0.,0.,0.,
0,0,0,0,0,0,0,0,0,0,0,0,0,0,0,0,
6,124,2,17,4,1,0,0,
7,8,12,11,0,0,0,0,0,0,
0,0,0,0,0,0,0,0,0,0,
0.,0.,0.,
0.,0.,0.,
0.,0.,0.,
0,0,0,0,0,0,0,0,0,0,0,0,0,0,0,0,
7,124,2,17,4,1,0,0,
9,10,14,13,0,0,0,0,0,0,
0,0,0,0,0,0,0,0,0,0,
0.,0.,0.,
0.,0.,0.,
0.,0.,0.,
0,0,0,0,0,0,0,0,0,0,0,0,0,0,0,0,
8,124,2,17,4,1,0,0,
10,11,15,14,0,0,0,0,0,0,
0,0,0,0,0,0,0,0,0,0,
0.,0.,0.,
0.,0.,0.,
0.,0.,0.,
0,0,0,0,0,0,0,0,0,0,0,0,0,0,0,0,
9,124,2,17,4,1,0,0,
11,12,16,15,0,0,0,0,0,0,
0,0,0,0,0,0,0,0,0,0,
0.,0.,0.,
0.,0.,0.,
0.,0.,0.,
0,0,0,0,0,0,0,0,0,0,0,0,0,0,0,0,
37,124,3,17,4,1,0,0,
49,50,54,53,0,0,0,0,0,0,
0,0,0,0,0,0,0,0,0,0,
0.,0.,0.,
0.,0.,0.,
0.,0.,0.,
0,0,0,0,0,0,0,0,0,0,0,0,0,0,0,0,
38,124,3,17,4,1,0,0,
50,51,55,54,0,0,0,0,0,0,
0,0,0,0,0,0,0,0,0,0,
0.,0.,0.,
0.,0.,0.,
0.,0.,0.,
0,0,0,0,0,0,0,0,0,0,0,0,0,0,0,0,
39,124,3,17,4,1,0,0,
51,52,56,55,0,0,0,0,0,0,
0,0,0,0,0,0,0,0,0,0,
0.,0.,0.,
0.,0.,0.,
0.,0.,0.,
0,0,0,0,0,0,0,0,0,0,0,0,0,0,0,0,
40,124,3,17,4,1,0,0,
53,54,58,57,0,0,0,0,0,0,
0,0,0,0,0,0,0,0,0,0,
0.,0.,0.,
0.,0.,0.,
0.,0.,0.,
0,0,0,0,0,0,0,0,0,0,0,0,0,0,0,0,
41,124,3,17,4,1,0,0,
54,55,59,58,0,0,0,0,0,0,
0,0,0,0,0,0,0,0,0,0,
0.,0.,0.,
0.,0.,0.,
0.,0.,0.,
0,0,0,0,0,0,0,0,0,0,0,0,0,0,0,0,
42,124,3,17,4,1,0,0,
55,56,60,59,0,0,0,0,0,0,
0,0,0,0,0,0,0,0,0,0,
0.,0.,0.,
0.,0.,0.,
0.,0.,0.,
0,0,0,0,0,0,0,0,0,0,0,0,0,0,0,0,
43,124,3,17,4,1,0,0,
57,58,62,61,0,0,0,0,0,0,
0,0,0,0,0,0,0,0,0,0,
0.,0.,0.,
0.,0.,0.,
0.,0.,0.,
0,0,0,0,0,0,0,0,0,0,0,0,0,0,0,0,
44,124,3,17,4,1,0,0,
58,59,63,62,0,0,0,0,0,0,
0,0,0,0,0,0,0,0,0,0,
0.,0.,0.,
0.,0.,0.,
0.,0.,0.,
0,0,0,0,0,0,0,0,0,0,0,0,0,0,0,0,
45,124,3,17,4,1,0,0,
59,60,64,63,0,0,0,0,0,0,
0,0,0,0,0,0,0,0,0,0,
0.,0.,0.,
0.,0.,0.,
0.,0.,0.,
0,0,0,0,0,0,0,0,0,0,0,0,0,0,0,0,
   -1
