   -1
   100
<NULL>
4.41,
   -1
   -1
   450
1,
STEP:1 Time:  1.00000e-03
0,3,
  1.00000e-03,
1,
<NULL>
   -1
   -1
   451
1,70171,1,
THERM-elem-1
0.,-1.,0.,
70171,0,0,0,0,0,0,0,0,0,
0,0,0,0,0,0,0,0,0,0,
0,0,3,8,
0,1,1,
10, 7.98726103e-08,
11, 6.81225618e-10,
12, 1.61569278e-08,
13, 1.67806730e-07,
14, 1.14421843e-07,
15, 5.42761098e-08,
16, 8.10723019e-08,
17, 2.44200860e-07,
18,-1.70005188e-08,
19, 3.73147340e-07,
20, 1.45742525e-07,
21,-3.37726249e-08,
22, 1.87914451e-07,
23, 4.98204766e-07,
24, 1.94337989e-07,
25, 9.88768944e-08,
26, 8.29272243e-07,
27,-2.93464535e-08,
28, 2.93274729e-07,
29, 1.45061300e-07,
30,-4.99295527e-08,
31, 2.01077214e-08,
32, 3.83782922e-07,
33, 1.40061879e-07,
34, 1.78045926e-08,
35, 5.85071383e-07,
36,-1.23459346e-08,
-1,0.,
1,70172,1,
THERM-elem-2
0.,-1.,0.,
70172,0,0,0,0,0,0,0,0,0,
0,0,0,0,0,0,0,0,0,0,
0,0,3,8,
0,1,1,
10,-1.24937377e-07,
11,-5.63234363e-09,
12, 1.53489446e-07,
13,-1.62200653e-07,
14,-7.98309487e-08,
15,-8.70929390e-08,
16,-5.95431225e-08,
17,-9.88682380e-08,
18,-3.31038593e-08,
19,-2.26153291e-08,
20,-1.93777626e-07,
21, 1.62284230e-07,
22,-5.59489725e-07,
23,-2.21098077e-07,
24, 3.41292162e-09,
25, 1.54436176e-07,
26, 5.80744476e-08,
27,-5.90535159e-08,
28, 1.02322048e-07,
29,-1.88145282e-07,
30, 8.79478353e-09,
31,-3.97289072e-07,
32,-1.41267128e-07,
33, 9.05058608e-08,
34, 2.13979298e-07,
35, 1.56942686e-07,
36,-2.59496565e-08,
-1,0.,
1,70173,1,
THERM-elem-3
0.,-1.,0.,
70173,0,0,0,0,0,0,0,0,0,
0,0,0,0,0,0,0,0,0,0,
0,0,3,8,
0,1,1,
10, 3.33333327e+00,
11, 3.33333319e+00,
12, 3.33333317e+00,
13, 3.33333355e+00,
14, 3.33333327e+00,
15, 3.33333310e+00,
16, 3.33333378e+00,
17, 3.33333345e+00,
18, 3.33333322e+00,
19, 3.33333362e+00,
20, 3.33333326e+00,
21, 3.33333318e+00,
22, 3.33333362e+00,
23, 3.33333350e+00,
24, 3.33333315e+00,
25, 3.33333358e+00,
26, 3.33333331e+00,
27, 3.33333296e+00,
28, 3.33333312e+00,
29, 3.33333356e+00,
30, 3.33333365e+00,
31, 3.33333282e+00,
32, 3.33333323e+00,
33, 3.33333375e+00,
34, 3.33333264e+00,
35, 3.33333324e+00,
36, 3.33333382e+00,
-1,0.,
1,70174,1,
THERM-elem-4
0.,-1.,0.,
70174,0,0,0,0,0,0,0,0,0,
0,0,0,0,0,0,0,0,0,0,
0,0,3,8,
0,1,1,
10, 3.33333327e+00,
11, 3.33333319e+00,
12, 3.33333317e+00,
13, 3.33333355e+00,
14, 3.33333327e+00,
15, 3.33333310e+00,
16, 3.33333378e+00,
17, 3.33333345e+00,
18, 3.33333322e+00,
19, 3.33333362e+00,
20, 3.33333326e+00,
21, 3.33333318e+00,
22, 3.33333362e+00,
23, 3.33333350e+00,
24, 3.33333315e+00,
25, 3.33333358e+00,
26, 3.33333331e+00,
27, 3.33333296e+00,
28, 3.33333312e+00,
29, 3.33333356e+00,
30, 3.33333365e+00,
31, 3.33333282e+00,
32, 3.33333323e+00,
33, 3.33333375e+00,
34, 3.33333264e+00,
35, 3.33333324e+00,
36, 3.33333382e+00,
-1,0.,
1,70175,1,
THERM-elem-5
0.,-1.,0.,
70175,0,0,0,0,0,0,0,0,0,
0,0,0,0,0,0,0,0,0,0,
0,0,3,8,
0,1,1,
10, 4.91899304e-11,
11, 4.91899280e-11,
12, 4.91899275e-11,
13, 4.91899388e-11,
14, 4.91899305e-11,
15, 4.91899255e-11,
16, 4.91899454e-11,
17, 4.91899358e-11,
18, 4.91899291e-11,
19, 4.91899406e-11,
20, 4.91899301e-11,
21, 4.91899278e-11,
22, 4.91899409e-11,
23, 4.91899373e-11,
24, 4.91899268e-11,
25, 4.91899397e-11,
26, 4.91899315e-11,
27, 4.91899213e-11,
28, 4.91899260e-11,
29, 4.91899389e-11,
30, 4.91899417e-11,
31, 4.91899172e-11,
32, 4.91899292e-11,
33, 4.91899446e-11,
34, 4.91899118e-11,
35, 4.91899296e-11,
36, 4.91899465e-11,
-1,0.,
1,271,1,
THERM-node-1
0.,-1.,0.,
271,0,0,0,0,0,0,0,0,0,
0,0,0,0,0,0,0,0,0,0,
0,0,3,7,
0,1,1,
1, 7.98726103e-08,
2, 4.02769180e-08,
3, 8.41907672e-09,
4, 1.61569278e-08,
5, 1.23839670e-07,
6, 9.06956023e-08,
7, 4.63840267e-08,
8, 3.52165188e-08,
9, 1.24439516e-07,
10, 1.51875434e-07,
11, 9.89745737e-08,
12, 1.86377955e-08,
13, 8.10723019e-08,
14, 1.62636581e-07,
15, 1.13600171e-07,
16,-1.70005188e-08,
17, 2.26509975e-07,
18, 1.49860925e-07,
19, 3.22020134e-08,
20,-8.80784855e-09,
21, 2.02185283e-07,
22, 1.95973936e-07,
23, 1.23756095e-07,
24, 5.77496004e-08,
25, 1.33917594e-07,
26, 2.77721261e-07,
27, 2.36045855e-07,
28, 5.05667816e-08,
29, 8.99745982e-08,
30, 3.13355575e-07,
31, 2.56781533e-07,
32,-2.31734862e-08,
33, 3.33211035e-07,
34, 2.39306473e-07,
35, 5.17754118e-08,
36,-4.18510888e-08,
37, 2.18611061e-07,
38, 2.55904469e-07,
39, 1.77936150e-07,
40, 6.26744225e-08,
41, 8.11759150e-08,
42, 3.27629372e-07,
43, 3.23629849e-07,
44, 7.31768699e-08,
45, 5.83407435e-08,
46, 3.82756278e-07,
47, 3.43162809e-07,
48,-2.08461941e-08,
49, 2.93274729e-07,
50, 2.19168015e-07,
51, 4.75658734e-08,
52,-4.99295527e-08,
53, 1.56691225e-07,
54, 2.10556668e-07,
55, 1.54744137e-07,
56, 4.50661631e-08,
57, 1.89561570e-08,
58, 2.51691655e-07,
59, 2.74142562e-07,
60, 6.38579722e-08,
61, 1.78045926e-08,
62, 3.01437988e-07,
63, 2.86362724e-07,
64,-1.23459346e-08,
-1,0.,
1,272,1,
THERM-node-2
0.,-1.,0.,
272,0,0,0,0,0,0,0,0,0,
0,0,0,0,0,0,0,0,0,0,
0,0,3,7,
0,1,1,
1,-1.24937377e-07,
2,-6.52848602e-08,
3, 7.39285514e-08,
4, 1.53489446e-07,
5,-1.43569015e-07,
6,-9.31503305e-08,
7,-4.76669624e-09,
8, 3.31982537e-08,
9,-1.10871888e-07,
10,-1.00110741e-07,
11,-7.47239963e-08,
12,-6.00983992e-08,
13,-5.95431225e-08,
14,-7.92056803e-08,
15,-6.59860486e-08,
16,-3.31038593e-08,
17,-7.37763529e-08,
18,-8.67406688e-08,
19, 2.90909268e-08,
20, 1.57886838e-07,
21,-2.17310771e-07,
22,-1.71197760e-07,
23,-3.35306670e-08,
24, 5.80234147e-08,
25,-1.56699331e-07,
26,-1.21065018e-07,
27,-6.46950261e-08,
28,-4.39593481e-08,
29, 4.74465266e-08,
30, 1.35248157e-08,
31,-3.32377914e-08,
32,-4.60786876e-08,
33, 3.98533593e-08,
34,-7.55540472e-08,
35,-5.27109735e-08,
36, 8.55395067e-08,
37,-2.19268020e-07,
38,-2.02670024e-07,
39,-5.99112896e-08,
40, 6.62494490e-08,
41,-1.47090831e-07,
42,-9.19639245e-08,
43,-1.73040577e-08,
44, 2.22890252e-09,
45, 1.84207737e-07,
46, 1.45858152e-07,
47, 3.25034902e-08,
48,-4.25015862e-08,
49, 1.02322048e-07,
50,-4.29116171e-08,
51,-8.96752492e-08,
52, 8.79478353e-09,
53,-1.47483512e-07,
54,-1.56094859e-07,
55,-5.75279414e-08,
56, 4.96503222e-08,
57,-9.16548870e-08,
58,-4.19085541e-08,
59, 2.00579404e-08,
60, 3.22781022e-08,
61, 2.13979298e-07,
62, 1.85460992e-07,
63, 6.54965146e-08,
64,-2.59496565e-08,
-1,0.,
1,273,1,
THERM-node-3
0.,-1.,0.,
273,0,0,0,0,0,0,0,0,0,
0,0,0,0,0,0,0,0,0,0,
0,0,3,7,
0,1,1,
1, 3.33333327e+00,
2, 3.33333323e+00,
3, 3.33333318e+00,
4, 3.33333317e+00,
5, 3.33333341e+00,
6, 3.33333332e+00,
7, 3.33333318e+00,
8, 3.33333314e+00,
9, 3.33333366e+00,
10, 3.33333351e+00,
11, 3.33333326e+00,
12, 3.33333316e+00,
13, 3.33333378e+00,
14, 3.33333361e+00,
15, 3.33333334e+00,
16, 3.33333322e+00,
17, 3.33333344e+00,
18, 3.33333333e+00,
19, 3.33333320e+00,
20, 3.33333317e+00,
21, 3.33333351e+00,
22, 3.33333341e+00,
23, 3.33333323e+00,
24, 3.33333315e+00,
25, 3.33333363e+00,
26, 3.33333351e+00,
27, 3.33333325e+00,
28, 3.33333311e+00,
29, 3.33333368e+00,
30, 3.33333353e+00,
31, 3.33333324e+00,
32, 3.33333309e+00,
33, 3.33333337e+00,
34, 3.33333339e+00,
35, 3.33333341e+00,
36, 3.33333342e+00,
37, 3.33333329e+00,
38, 3.33333334e+00,
39, 3.33333341e+00,
40, 3.33333343e+00,
41, 3.33333317e+00,
42, 3.33333324e+00,
43, 3.33333337e+00,
44, 3.33333342e+00,
45, 3.33333311e+00,
46, 3.33333319e+00,
47, 3.33333333e+00,
48, 3.33333339e+00,
49, 3.33333312e+00,
50, 3.33333334e+00,
51, 3.33333360e+00,
52, 3.33333365e+00,
53, 3.33333297e+00,
54, 3.33333318e+00,
55, 3.33333355e+00,
56, 3.33333370e+00,
57, 3.33333273e+00,
58, 3.33333298e+00,
59, 3.33333351e+00,
60, 3.33333378e+00,
61, 3.33333264e+00,
62, 3.33333294e+00,
63, 3.33333353e+00,
64, 3.33333382e+00,
-1,0.,
1,274,1,
THERM-node-4
0.,-1.,0.,
274,0,0,0,0,0,0,0,0,0,
0,0,0,0,0,0,0,0,0,0,
0,0,3,7,
0,1,1,
1, 3.33333327e+00,
2, 3.33333323e+00,
3, 3.33333318e+00,
4, 3.33333317e+00,
5, 3.33333341e+00,
6, 3.33333332e+00,
7, 3.33333318e+00,
8, 3.33333314e+00,
9, 3.33333366e+00,
10, 3.33333351e+00,
11, 3.33333326e+00,
12, 3.33333316e+00,
13, 3.33333378e+00,
14, 3.33333361e+00,
15, 3.33333334e+00,
16, 3.33333322e+00,
17, 3.33333344e+00,
18, 3.33333333e+00,
19, 3.33333320e+00,
20, 3.33333317e+00,
21, 3.33333351e+00,
22, 3.33333341e+00,
23, 3.33333323e+00,
24, 3.33333315e+00,
25, 3.33333363e+00,
26, 3.33333351e+00,
27, 3.33333325e+00,
28, 3.33333311e+00,
29, 3.33333368e+00,
30, 3.33333353e+00,
31, 3.33333324e+00,
32, 3.33333309e+00,
33, 3.33333337e+00,
34, 3.33333339e+00,
35, 3.33333341e+00,
36, 3.33333342e+00,
37, 3.33333329e+00,
38, 3.33333334e+00,
39, 3.33333341e+00,
40, 3.33333343e+00,
41, 3.33333317e+00,
42, 3.33333324e+00,
43, 3.33333337e+00,
44, 3.33333342e+00,
45, 3.33333311e+00,
46, 3.33333319e+00,
47, 3.33333333e+00,
48, 3.33333339e+00,
49, 3.33333312e+00,
50, 3.33333334e+00,
51, 3.33333360e+00,
52, 3.33333365e+00,
53, 3.33333297e+00,
54, 3.33333318e+00,
55, 3.33333355e+00,
56, 3.33333370e+00,
57, 3.33333273e+00,
58, 3.33333298e+00,
59, 3.33333351e+00,
60, 3.33333378e+00,
61, 3.33333264e+00,
62, 3.33333294e+00,
63, 3.33333353e+00,
64, 3.33333382e+00,
-1,0.,
1,275,1,
THERM-node-5
0.,-1.,0.,
275,0,0,0,0,0,0,0,0,0,
0,0,0,0,0,0,0,0,0,0,
0,0,3,7,
0,1,1,
1, 1.00000000e+01,
2, 1.00000000e+01,
3, 1.00000000e+01,
4, 1.00000000e+01,
5, 1.00000000e+01,
6, 1.00000000e+01,
7, 1.00000000e+01,
8, 1.00000000e+01,
9, 1.00000000e+01,
10, 1.00000000e+01,
11, 1.00000000e+01,
12, 1.00000000e+01,
13, 1.00000000e+01,
14, 1.00000000e+01,
15, 1.00000000e+01,
16, 1.00000000e+01,
17, 6.66666686e+00,
18, 6.66666685e+00,
19, 6.66666678e+00,
20, 6.66666657e+00,
21, 6.66666644e+00,
22, 6.66666677e+00,
23, 6.66666684e+00,
24, 6.66666712e+00,
25, 6.66666611e+00,
26, 6.66666646e+00,
27, 6.66666684e+00,
28, 6.66666678e+00,
29, 6.66666617e+00,
30, 6.66666615e+00,
31, 6.66666675e+00,
32, 6.66666674e+00,
33, 3.33333267e+00,
34, 3.33333336e+00,
35, 3.33333413e+00,
36, 3.33333315e+00,
37, 3.33333297e+00,
38, 3.33333347e+00,
39, 3.33333327e+00,
40, 3.33333405e+00,
41, 3.33333263e+00,
42, 3.33333222e+00,
43, 3.33333395e+00,
44, 3.33333373e+00,
45, 3.33333261e+00,
46, 3.33333309e+00,
47, 3.33333370e+00,
48, 3.33333387e+00,
49, 0.00000000e+00,
50, 0.00000000e+00,
51, 0.00000000e+00,
52, 0.00000000e+00,
53, 0.00000000e+00,
54, 0.00000000e+00,
55, 0.00000000e+00,
56, 0.00000000e+00,
57, 0.00000000e+00,
58, 0.00000000e+00,
59, 0.00000000e+00,
60, 0.00000000e+00,
61, 0.00000000e+00,
62, 0.00000000e+00,
63, 0.00000000e+00,
64, 0.00000000e+00,
-1,0.,
   -1
