   -1
   100
<NULL>
8.1,
   -1
   -1
   405
   -1
   -1
   475
   -1
   -1
   410
   -1
   -1
   413
1,124,
Default Layer
9999,124,
Construction Layer
   -1
   -1
   570
1,0,0,0,1,24,0.,0,
0.,0.,0.,
2,0,0,0,1,24,0.,0,
3.,3.,0.,
3,0,0,0,1,24,0.,0,
3.,0.,0.,
4,0,0,0,1,24,0.,0,
0.,3.,0.,
   -1
   -1
   571
1,120,0,1,3,1.,0,0,0,0,
0,0,0,0,0,0,0,0,0,0,0,0,0,0,0,
0.,0.,0.,
0.,0.,0.,0.,0.,0.,
1,3,0,0,0,
2,120,0,1,3,1.,0,0,0,0,
0,0,0,0,0,0,0,0,0,0,0,0,0,0,0,
0.,0.,0.,
0.,0.,0.,0.,0.,0.,
3,2,0,0,0,
3,120,0,1,3,1.,0,0,0,0,
0,0,0,0,0,0,0,0,0,0,0,0,0,0,0,
0.,0.,0.,
0.,0.,0.,0.,0.,0.,
4,2,0,0,0,
4,120,0,1,3,1.,0,0,0,0,
0,0,0,0,0,0,0,0,0,0,0,0,0,0,0,
0.,0.,0.,
0.,0.,0.,0.,0.,0.,
1,4,0,0,0,
   -1
   -1
   572
1,60,0,1,3,4,0,0,0,
0,0.,0.,0.,
0,0,0,0,0,
2,
1,1,0,0,0,0,
3,4,1,2,0,0,
   -1
   -1
   573
   -1
   -1
   601
1,-601,55,0,0,1,0,
<NULL>
10,
0,0,0,0,0,0,0,0,0,0,
25,
0,0,0,0,0,0,0,0,0,0,
0,0,0,0,0,0,0,0,0,0,
0,0,0,0,0,
200,
0.,0.,0.,0.,0.,0.,0.,0.,0.,0.,
0.,0.,0.,0.,0.,0.,0.,0.,0.,0.,
0.,0.,0.,0.,0.,0.,0.,0.,0.,0.,
0.,0.,0.,0.,0.,0.,0.,0.,0.,0.,
0.,0.,0.,0.,0.,0.,0.,0.,0.,0.,
0.,0.,0.,0.,0.,0.,0.,0.,0.,0.,
0.,0.,0.,0.,0.,0.,0.,0.,0.,0.,
0.,0.,0.,0.,0.,0.,0.,0.,0.,0.,
0.,0.,0.,0.,0.,0.,0.,0.,0.,0.,
0.,0.,0.,0.,0.,0.,0.,0.,0.,0.,
0.,0.,0.,0.,0.,0.,0.,0.,0.,0.,
0.,0.,0.,0.,0.,0.,0.,0.,0.,0.,
0.,0.,0.,0.,0.,0.,0.,0.,0.,0.,
0.,0.,0.,0.,0.,0.,0.,0.,0.,0.,
0.,0.,0.,0.,0.,0.,0.,0.,0.,0.,
0.,0.,0.,0.,0.,0.,0.,0.,0.,0.,
0.,0.,0.,0.,0.,0.,0.,0.,0.,0.,
0.,0.,0.,0.,0.,0.,0.,0.,0.,0.,
0.,0.,0.,0.,0.,0.,0.,0.,0.,0.,
0.,0.,0.,0.,0.,0.,0.,0.,0.,0.,
50,
0,0,0,0,0,0,0,0,0,0,
0,0,0,0,0,0,0,0,0,0,
0,0,0,0,0,0,0,0,0,0,
0,0,0,0,0,0,0,0,0,0,
0,0,0,0,0,0,0,0,0,0,
70,
0,0,0,0,0,0,0,0,0,0,
0,0,0,0,0,0,0,0,0,0,
0,0,0,0,0,0,0,0,0,0,
0,0,0,0,0,0,0,0,0,0,
0,0,0,0,0,0,0,0,0,0,
0,0,0,0,0,0,0,0,0,0,
0,0,0,0,0,0,0,0,0,0,
   -1
   -1
   402
1,110,1,25,1,0,
solid
0,0,0,0,
90,
0,0,0,0,0,0,0,0,
0,0,0,0,0,0,0,0,
0,0,0,0,0,0,0,0,
0,0,0,0,0,0,0,0,
0,0,0,0,0,0,0,0,
0,0,0,0,0,0,0,0,
0,0,0,0,0,0,0,0,
0,0,0,0,0,0,0,0,
0,0,0,0,0,0,0,0,
0,0,0,0,0,0,0,0,
0,0,0,0,0,0,0,0,
0,0,
190,
0.,0.,0.,0.,0.,
0.,0.,0.,0.,0.,
0.,0.,0.,0.,0.,
0.,0.,0.,0.,0.,
0.,0.,0.,0.,0.,
0.,0.,0.,0.,0.,
0.,0.,0.,0.,0.,
0.,0.,0.,0.,0.,
0.,0.,0.,0.,0.,
0.,0.,0.,0.,0.,
0.,0.,0.,0.,0.,
0.,0.,0.,0.,0.,
0.,0.,0.,0.,0.,
0.,0.,0.,0.,0.,
0.,0.,0.,0.,0.,
0.,0.,0.,0.,0.,
0.,0.,0.,0.,0.,
0.,0.,0.,0.,0.,
0.,0.,0.,0.,0.,
0.,0.,0.,0.,0.,
0.,0.,0.,0.,0.,
0.,0.,0.,0.,0.,
0.,0.,0.,0.,0.,
0.,0.,0.,0.,0.,
0.,0.,0.,0.,0.,
0.,0.,0.,0.,0.,
0.,0.,0.,0.,0.,
0.,0.,0.,0.,0.,
0.,0.,0.,0.,0.,
0.,0.,0.,0.,0.,
0.,0.,0.,0.,0.,
0.,0.,0.,0.,0.,
0.,0.,0.,0.,0.,
0.,0.,0.,0.,0.,
0.,0.,0.,0.,0.,
0.,0.,0.,0.,0.,
0.,0.,0.,0.,0.,
0.,0.,0.,0.,0.,
0,
0,
2,9,1,17,1,0,
lower surface
0,0,0,0,
90,
0,0,0,0,0,0,0,0,
0,0,0,0,0,0,0,0,
0,0,0,0,0,0,0,0,
0,0,0,0,0,0,0,0,
0,0,0,0,0,0,0,0,
0,0,0,0,0,0,0,0,
0,0,0,0,0,0,0,0,
0,0,0,0,0,0,0,0,
0,0,0,0,0,0,0,0,
0,0,0,0,0,0,0,0,
0,0,0,0,0,0,0,0,
0,0,
190,
0.,0.,0.,0.,0.,
0.,0.,0.,0.,0.,
0.,0.,0.,0.,0.,
0.,0.,0.,0.,0.,
0.,0.,0.,0.,0.,
0.,0.,0.,0.,0.,
0.,0.,0.,0.,0.,
0.,0.,0.,0.,0.,
0.,0.,0.,0.,0.,
0.,0.,0.,0.,0.,
0.,0.,0.,0.,0.,
0.,0.,0.,0.,0.,
0.,0.,0.,0.,0.,
0.,0.,0.,0.,0.,
0.,0.,0.,0.,0.,
0.,0.,0.,0.,0.,
0.,0.,0.,0.,0.,
0.,0.,0.,0.,0.,
0.,0.,0.,0.,0.,
0.,0.,0.,0.,0.,
0.,0.,0.,0.,0.,
0.,0.,0.,0.,0.,
0.,0.,0.,0.,0.,
0.,0.,0.,0.,0.,
0.,0.,0.,0.,0.,
0.,0.,0.,0.,0.,
0.,0.,0.,0.,0.,
0.,0.,0.,0.,0.,
0.,0.,0.,0.,0.,
0.,0.,0.,0.,0.,
0.,0.,0.,0.,0.,
0.,0.,0.,0.,0.,
0.,0.,0.,0.,0.,
0.,0.,0.,0.,0.,
0.,0.,0.,0.,0.,
0.,0.,0.,0.,0.,
0.,0.,0.,0.,0.,
0.,0.,0.,0.,0.,
0,
0,
3,21,1,17,1,0,
upper surface
0,0,0,0,
90,
0,0,0,0,0,0,0,0,
0,0,0,0,0,0,0,0,
0,0,0,0,0,0,0,0,
0,0,0,0,0,0,0,0,
0,0,0,0,0,0,0,0,
0,0,0,0,0,0,0,0,
0,0,0,0,0,0,0,0,
0,0,0,0,0,0,0,0,
0,0,0,0,0,0,0,0,
0,0,0,0,0,0,0,0,
0,0,0,0,0,0,0,0,
0,0,
190,
0.,0.,0.,0.,0.,
0.,0.,0.,0.,0.,
0.,0.,0.,0.,0.,
0.,0.,0.,0.,0.,
0.,0.,0.,0.,0.,
0.,0.,0.,0.,0.,
0.,0.,0.,0.,0.,
0.,0.,0.,0.,0.,
0.,0.,0.,0.,0.,
0.,0.,0.,0.,0.,
0.,0.,0.,0.,0.,
0.,0.,0.,0.,0.,
0.,0.,0.,0.,0.,
0.,0.,0.,0.,0.,
0.,0.,0.,0.,0.,
0.,0.,0.,0.,0.,
0.,0.,0.,0.,0.,
0.,0.,0.,0.,0.,
0.,0.,0.,0.,0.,
0.,0.,0.,0.,0.,
0.,0.,0.,0.,0.,
0.,0.,0.,0.,0.,
0.,0.,0.,0.,0.,
0.,0.,0.,0.,0.,
0.,0.,0.,0.,0.,
0.,0.,0.,0.,0.,
0.,0.,0.,0.,0.,
0.,0.,0.,0.,0.,
0.,0.,0.,0.,0.,
0.,0.,0.,0.,0.,
0.,0.,0.,0.,0.,
0.,0.,0.,0.,0.,
0.,0.,0.,0.,0.,
0.,0.,0.,0.,0.,
0.,0.,0.,0.,0.,
0.,0.,0.,0.,0.,
0.,0.,0.,0.,0.,
0.,0.,0.,0.,0.,
0,
0,
   -1
   -1
   403
1,0,0,1,46,0,0,0,0,0,0,3.,3.,0.,0,
2,0,0,1,46,0,0,0,0,0,0,2.,3.,0.,0,
3,0,0,1,46,0,0,0,0,0,0,1.,3.,0.,0,
4,0,0,1,46,0,0,0,0,0,0,0.,3.,0.,0,
5,0,0,1,46,0,0,0,0,0,0,3.,2.,0.,0,
6,0,0,1,46,0,0,0,0,0,0,2.,2.,0.,0,
7,0,0,1,46,0,0,0,0,0,0,1.,2.,0.,0,
8,0,0,1,46,0,0,0,0,0,0,0.,2.,0.,0,
9,0,0,1,46,0,0,0,0,0,0,3.,1.,0.,0,
10,0,0,1,46,0,0,0,0,0,0,2.,1.,0.,0,
11,0,0,1,46,0,0,0,0,0,0,1.,1.,0.,0,
12,0,0,1,46,0,0,0,0,0,0,0.,1.,0.,0,
13,0,0,1,46,0,0,0,0,0,0,3.,0.,0.,0,
14,0,0,1,46,0,0,0,0,0,0,2.,0.,0.,0,
15,0,0,1,46,0,0,0,0,0,0,1.,0.,0.,0,
16,0,0,1,46,0,0,0,0,0,0,0.,0.,0.,0,
17,0,0,1,46,0,0,0,0,0,0,3.,3.,1.,0,
18,0,0,1,46,0,0,0,0,0,0,2.,3.,1.,0,
19,0,0,1,46,0,0,0,0,0,0,1.,3.,1.,0,
20,0,0,1,46,0,0,0,0,0,0,0.,3.,1.,0,
21,0,0,1,46,0,0,0,0,0,0,3.,2.,1.,0,
22,0,0,1,46,0,0,0,0,0,0,2.,2.,1.,0,
23,0,0,1,46,0,0,0,0,0,0,1.,2.,1.,0,
24,0,0,1,46,0,0,0,0,0,0,0.,2.,1.,0,
25,0,0,1,46,0,0,0,0,0,0,3.,1.,1.,0,
26,0,0,1,46,0,0,0,0,0,0,2.,1.,1.,0,
27,0,0,1,46,0,0,0,0,0,0,1.,1.,1.,0,
28,0,0,1,46,0,0,0,0,0,0,0.,1.,1.,0,
29,0,0,1,46,0,0,0,0,0,0,3.,0.,1.,0,
30,0,0,1,46,0,0,0,0,0,0,2.,0.,1.,0,
31,0,0,1,46,0,0,0,0,0,0,1.,0.,1.,0,
32,0,0,1,46,0,0,0,0,0,0,0.,0.,1.,0,
33,0,0,1,46,0,0,0,0,0,0,3.,3.,2.,0,
34,0,0,1,46,0,0,0,0,0,0,2.,3.,2.,0,
35,0,0,1,46,0,0,0,0,0,0,1.,3.,2.,0,
36,0,0,1,46,0,0,0,0,0,0,0.,3.,2.,0,
37,0,0,1,46,0,0,0,0,0,0,3.,2.,2.,0,
38,0,0,1,46,0,0,0,0,0,0,2.,2.,2.,0,
39,0,0,1,46,0,0,0,0,0,0,1.,2.,2.,0,
40,0,0,1,46,0,0,0,0,0,0,0.,2.,2.,0,
41,0,0,1,46,0,0,0,0,0,0,3.,1.,2.,0,
42,0,0,1,46,0,0,0,0,0,0,2.,1.,2.,0,
43,0,0,1,46,0,0,0,0,0,0,1.,1.,2.,0,
44,0,0,1,46,0,0,0,0,0,0,0.,1.,2.,0,
45,0,0,1,46,0,0,0,0,0,0,3.,0.,2.,0,
46,0,0,1,46,0,0,0,0,0,0,2.,0.,2.,0,
47,0,0,1,46,0,0,0,0,0,0,1.,0.,2.,0,
48,0,0,1,46,0,0,0,0,0,0,0.,0.,2.,0,
49,0,0,1,46,0,0,0,0,0,0,3.,3.,3.,0,
50,0,0,1,46,0,0,0,0,0,0,2.,3.,3.,0,
51,0,0,1,46,0,0,0,0,0,0,1.,3.,3.,0,
52,0,0,1,46,0,0,0,0,0,0,0.,3.,3.,0,
53,0,0,1,46,0,0,0,0,0,0,3.,2.,3.,0,
54,0,0,1,46,0,0,0,0,0,0,2.,2.,3.,0,
55,0,0,1,46,0,0,0,0,0,0,1.,2.,3.,0,
56,0,0,1,46,0,0,0,0,0,0,0.,2.,3.,0,
57,0,0,1,46,0,0,0,0,0,0,3.,1.,3.,0,
58,0,0,1,46,0,0,0,0,0,0,2.,1.,3.,0,
59,0,0,1,46,0,0,0,0,0,0,1.,1.,3.,0,
60,0,0,1,46,0,0,0,0,0,0,0.,1.,3.,0,
61,0,0,1,46,0,0,0,0,0,0,3.,0.,3.,0,
62,0,0,1,46,0,0,0,0,0,0,2.,0.,3.,0,
63,0,0,1,46,0,0,0,0,0,0,1.,0.,3.,0,
64,0,0,1,46,0,0,0,0,0,0,0.,0.,3.,0,
   -1
   -1
   404
1,124,2,17,4,1,0,0,1,0,0,0,0,
1,2,6,5,0,0,0,0,0,0,
0,0,0,0,0,0,0,0,0,0,
0.,0.,0.,
0.,0.,0.,
0.,0.,0.,
0,0,0,0,0,0,0,0,0,0,0,0,0,0,0,0,
2,124,2,17,4,1,0,0,1,0,0,0,0,
2,3,7,6,0,0,0,0,0,0,
0,0,0,0,0,0,0,0,0,0,
0.,0.,0.,
0.,0.,0.,
0.,0.,0.,
0,0,0,0,0,0,0,0,0,0,0,0,0,0,0,0,
3,124,2,17,4,1,0,0,1,0,0,0,0,
3,4,8,7,0,0,0,0,0,0,
0,0,0,0,0,0,0,0,0,0,
0.,0.,0.,
0.,0.,0.,
0.,0.,0.,
0,0,0,0,0,0,0,0,0,0,0,0,0,0,0,0,
4,124,2,17,4,1,0,0,1,0,0,0,0,
5,6,10,9,0,0,0,0,0,0,
0,0,0,0,0,0,0,0,0,0,
0.,0.,0.,
0.,0.,0.,
0.,0.,0.,
0,0,0,0,0,0,0,0,0,0,0,0,0,0,0,0,
5,124,2,17,4,1,0,0,1,0,0,0,0,
6,7,11,10,0,0,0,0,0,0,
0,0,0,0,0,0,0,0,0,0,
0.,0.,0.,
0.,0.,0.,
0.,0.,0.,
0,0,0,0,0,0,0,0,0,0,0,0,0,0,0,0,
6,124,2,17,4,1,0,0,1,0,0,0,0,
7,8,12,11,0,0,0,0,0,0,
0,0,0,0,0,0,0,0,0,0,
0.,0.,0.,
0.,0.,0.,
0.,0.,0.,
0,0,0,0,0,0,0,0,0,0,0,0,0,0,0,0,
7,124,2,17,4,1,0,0,1,0,0,0,0,
9,10,14,13,0,0,0,0,0,0,
0,0,0,0,0,0,0,0,0,0,
0.,0.,0.,
0.,0.,0.,
0.,0.,0.,
0,0,0,0,0,0,0,0,0,0,0,0,0,0,0,0,
8,124,2,17,4,1,0,0,1,0,0,0,0,
10,11,15,14,0,0,0,0,0,0,
0,0,0,0,0,0,0,0,0,0,
0.,0.,0.,
0.,0.,0.,
0.,0.,0.,
0,0,0,0,0,0,0,0,0,0,0,0,0,0,0,0,
9,124,2,17,4,1,0,0,1,0,0,0,0,
11,12,16,15,0,0,0,0,0,0,
0,0,0,0,0,0,0,0,0,0,
0.,0.,0.,
0.,0.,0.,
0.,0.,0.,
0,0,0,0,0,0,0,0,0,0,0,0,0,0,0,0,
10,124,1,25,8,1,0,0,0,0,0,0,0,
1,2,6,5,17,18,22,21,0,0,
0,0,0,0,0,0,0,0,0,0,
0.,0.,0.,
0.,0.,0.,
0.,0.,0.,
0,0,0,0,0,0,0,0,0,0,0,0,0,0,0,0,
11,124,1,25,8,1,0,0,0,0,0,0,0,
2,3,7,6,18,19,23,22,0,0,
0,0,0,0,0,0,0,0,0,0,
0.,0.,0.,
0.,0.,0.,
0.,0.,0.,
0,0,0,0,0,0,0,0,0,0,0,0,0,0,0,0,
12,124,1,25,8,1,0,0,0,0,0,0,0,
3,4,8,7,19,20,24,23,0,0,
0,0,0,0,0,0,0,0,0,0,
0.,0.,0.,
0.,0.,0.,
0.,0.,0.,
0,0,0,0,0,0,0,0,0,0,0,0,0,0,0,0,
13,124,1,25,8,1,0,0,0,0,0,0,0,
5,6,10,9,21,22,26,25,0,0,
0,0,0,0,0,0,0,0,0,0,
0.,0.,0.,
0.,0.,0.,
0.,0.,0.,
0,0,0,0,0,0,0,0,0,0,0,0,0,0,0,0,
14,124,1,25,8,1,0,0,0,0,0,0,0,
6,7,11,10,22,23,27,26,0,0,
0,0,0,0,0,0,0,0,0,0,
0.,0.,0.,
0.,0.,0.,
0.,0.,0.,
0,0,0,0,0,0,0,0,0,0,0,0,0,0,0,0,
15,124,1,25,8,1,0,0,0,0,0,0,0,
7,8,12,11,23,24,28,27,0,0,
0,0,0,0,0,0,0,0,0,0,
0.,0.,0.,
0.,0.,0.,
0.,0.,0.,
0,0,0,0,0,0,0,0,0,0,0,0,0,0,0,0,
16,124,1,25,8,1,0,0,0,0,0,0,0,
9,10,14,13,25,26,30,29,0,0,
0,0,0,0,0,0,0,0,0,0,
0.,0.,0.,
0.,0.,0.,
0.,0.,0.,
0,0,0,0,0,0,0,0,0,0,0,0,0,0,0,0,
17,124,1,25,8,1,0,0,0,0,0,0,0,
10,11,15,14,26,27,31,30,0,0,
0,0,0,0,0,0,0,0,0,0,
0.,0.,0.,
0.,0.,0.,
0.,0.,0.,
0,0,0,0,0,0,0,0,0,0,0,0,0,0,0,0,
18,124,1,25,8,1,0,0,0,0,0,0,0,
11,12,16,15,27,28,32,31,0,0,
0,0,0,0,0,0,0,0,0,0,
0.,0.,0.,
0.,0.,0.,
0.,0.,0.,
0,0,0,0,0,0,0,0,0,0,0,0,0,0,0,0,
19,124,1,25,8,1,0,0,0,0,0,0,0,
17,18,22,21,33,34,38,37,0,0,
0,0,0,0,0,0,0,0,0,0,
0.,0.,0.,
0.,0.,0.,
0.,0.,0.,
0,0,0,0,0,0,0,0,0,0,0,0,0,0,0,0,
20,124,1,25,8,1,0,0,0,0,0,0,0,
18,19,23,22,34,35,39,38,0,0,
0,0,0,0,0,0,0,0,0,0,
0.,0.,0.,
0.,0.,0.,
0.,0.,0.,
0,0,0,0,0,0,0,0,0,0,0,0,0,0,0,0,
21,124,1,25,8,1,0,0,0,0,0,0,0,
19,20,24,23,35,36,40,39,0,0,
0,0,0,0,0,0,0,0,0,0,
0.,0.,0.,
0.,0.,0.,
0.,0.,0.,
0,0,0,0,0,0,0,0,0,0,0,0,0,0,0,0,
22,124,1,25,8,1,0,0,0,0,0,0,0,
21,22,26,25,37,38,42,41,0,0,
0,0,0,0,0,0,0,0,0,0,
0.,0.,0.,
0.,0.,0.,
0.,0.,0.,
0,0,0,0,0,0,0,0,0,0,0,0,0,0,0,0,
23,124,1,25,8,1,0,0,0,0,0,0,0,
22,23,27,26,38,39,43,42,0,0,
0,0,0,0,0,0,0,0,0,0,
0.,0.,0.,
0.,0.,0.,
0.,0.,0.,
0,0,0,0,0,0,0,0,0,0,0,0,0,0,0,0,
24,124,1,25,8,1,0,0,0,0,0,0,0,
23,24,28,27,39,40,44,43,0,0,
0,0,0,0,0,0,0,0,0,0,
0.,0.,0.,
0.,0.,0.,
0.,0.,0.,
0,0,0,0,0,0,0,0,0,0,0,0,0,0,0,0,
25,124,1,25,8,1,0,0,0,0,0,0,0,
25,26,30,29,41,42,46,45,0,0,
0,0,0,0,0,0,0,0,0,0,
0.,0.,0.,
0.,0.,0.,
0.,0.,0.,
0,0,0,0,0,0,0,0,0,0,0,0,0,0,0,0,
26,124,1,25,8,1,0,0,0,0,0,0,0,
26,27,31,30,42,43,47,46,0,0,
0,0,0,0,0,0,0,0,0,0,
0.,0.,0.,
0.,0.,0.,
0.,0.,0.,
0,0,0,0,0,0,0,0,0,0,0,0,0,0,0,0,
27,124,1,25,8,1,0,0,0,0,0,0,0,
27,28,32,31,43,44,48,47,0,0,
0,0,0,0,0,0,0,0,0,0,
0.,0.,0.,
0.,0.,0.,
0.,0.,0.,
0,0,0,0,0,0,0,0,0,0,0,0,0,0,0,0,
28,124,1,25,8,1,0,0,0,0,0,0,0,
33,34,38,37,49,50,54,53,0,0,
0,0,0,0,0,0,0,0,0,0,
0.,0.,0.,
0.,0.,0.,
0.,0.,0.,
0,0,0,0,0,0,0,0,0,0,0,0,0,0,0,0,
29,124,1,25,8,1,0,0,0,0,0,0,0,
34,35,39,38,50,51,55,54,0,0,
0,0,0,0,0,0,0,0,0,0,
0.,0.,0.,
0.,0.,0.,
0.,0.,0.,
0,0,0,0,0,0,0,0,0,0,0,0,0,0,0,0,
30,124,1,25,8,1,0,0,0,0,0,0,0,
35,36,40,39,51,52,56,55,0,0,
0,0,0,0,0,0,0,0,0,0,
0.,0.,0.,
0.,0.,0.,
0.,0.,0.,
0,0,0,0,0,0,0,0,0,0,0,0,0,0,0,0,
31,124,1,25,8,1,0,0,0,0,0,0,0,
37,38,42,41,53,54,58,57,0,0,
0,0,0,0,0,0,0,0,0,0,
0.,0.,0.,
0.,0.,0.,
0.,0.,0.,
0,0,0,0,0,0,0,0,0,0,0,0,0,0,0,0,
32,124,1,25,8,1,0,0,0,0,0,0,0,
38,39,43,42,54,55,59,58,0,0,
0,0,0,0,0,0,0,0,0,0,
0.,0.,0.,
0.,0.,0.,
0.,0.,0.,
0,0,0,0,0,0,0,0,0,0,0,0,0,0,0,0,
33,124,1,25,8,1,0,0,0,0,0,0,0,
39,40,44,43,55,56,60,59,0,0,
0,0,0,0,0,0,0,0,0,0,
0.,0.,0.,
0.,0.,0.,
0.,0.,0.,
0,0,0,0,0,0,0,0,0,0,0,0,0,0,0,0,
34,124,1,25,8,1,0,0,0,0,0,0,0,
41,42,46,45,57,58,62,61,0,0,
0,0,0,0,0,0,0,0,0,0,
0.,0.,0.,
0.,0.,0.,
0.,0.,0.,
0,0,0,0,0,0,0,0,0,0,0,0,0,0,0,0,
35,124,1,25,8,1,0,0,0,0,0,0,0,
42,43,47,46,58,59,63,62,0,0,
0,0,0,0,0,0,0,0,0,0,
0.,0.,0.,
0.,0.,0.,
0.,0.,0.,
0,0,0,0,0,0,0,0,0,0,0,0,0,0,0,0,
36,124,1,25,8,1,0,0,0,0,0,0,0,
43,44,48,47,59,60,64,63,0,0,
0,0,0,0,0,0,0,0,0,0,
0.,0.,0.,
0.,0.,0.,
0.,0.,0.,
0,0,0,0,0,0,0,0,0,0,0,0,0,0,0,0,
37,124,3,17,4,1,0,0,0,0,0,0,0,
49,50,54,53,0,0,0,0,0,0,
0,0,0,0,0,0,0,0,0,0,
0.,0.,0.,
0.,0.,0.,
0.,0.,0.,
0,0,0,0,0,0,0,0,0,0,0,0,0,0,0,0,
38,124,3,17,4,1,0,0,0,0,0,0,0,
50,51,55,54,0,0,0,0,0,0,
0,0,0,0,0,0,0,0,0,0,
0.,0.,0.,
0.,0.,0.,
0.,0.,0.,
0,0,0,0,0,0,0,0,0,0,0,0,0,0,0,0,
39,124,3,17,4,1,0,0,0,0,0,0,0,
51,52,56,55,0,0,0,0,0,0,
0,0,0,0,0,0,0,0,0,0,
0.,0.,0.,
0.,0.,0.,
0.,0.,0.,
0,0,0,0,0,0,0,0,0,0,0,0,0,0,0,0,
40,124,3,17,4,1,0,0,0,0,0,0,0,
53,54,58,57,0,0,0,0,0,0,
0,0,0,0,0,0,0,0,0,0,
0.,0.,0.,
0.,0.,0.,
0.,0.,0.,
0,0,0,0,0,0,0,0,0,0,0,0,0,0,0,0,
41,124,3,17,4,1,0,0,0,0,0,0,0,
54,55,59,58,0,0,0,0,0,0,
0,0,0,0,0,0,0,0,0,0,
0.,0.,0.,
0.,0.,0.,
0.,0.,0.,
0,0,0,0,0,0,0,0,0,0,0,0,0,0,0,0,
42,124,3,17,4,1,0,0,0,0,0,0,0,
55,56,60,59,0,0,0,0,0,0,
0,0,0,0,0,0,0,0,0,0,
0.,0.,0.,
0.,0.,0.,
0.,0.,0.,
0,0,0,0,0,0,0,0,0,0,0,0,0,0,0,0,
43,124,3,17,4,1,0,0,0,0,0,0,0,
57,58,62,61,0,0,0,0,0,0,
0,0,0,0,0,0,0,0,0,0,
0.,0.,0.,
0.,0.,0.,
0.,0.,0.,
0,0,0,0,0,0,0,0,0,0,0,0,0,0,0,0,
44,124,3,17,4,1,0,0,0,0,0,0,0,
58,59,63,62,0,0,0,0,0,0,
0,0,0,0,0,0,0,0,0,0,
0.,0.,0.,
0.,0.,0.,
0.,0.,0.,
0,0,0,0,0,0,0,0,0,0,0,0,0,0,0,0,
45,124,3,17,4,1,0,0,0,0,0,0,0,
59,60,64,63,0,0,0,0,0,0,
0,0,0,0,0,0,0,0,0,0,
0.,0.,0.,
0.,0.,0.,
0.,0.,0.,
0,0,0,0,0,0,0,0,0,0,0,0,0,0,0,0,
   -1
   -1
   615
   -1
   -1
   514
0,1,
16,0,
-1,-1,
0,2,
1,0,
-1,-1,
0,3,
13,0,
-1,-1,
0,4,
4,0,
-1,-1,
1,1,
14,15,
-1,-1,
1,2,
5,0,
9,0,
-1,-1,
1,3,
2,3,
-1,-1,
1,4,
8,0,
12,0,
-1,-1,
2,1,
6,7,
10,11,
-1,-1,
   -1
   -1
   506
   -1
   -1
   507
   -1
   -1
   408
   -1
   -1
   409
1,
Default XY View
0,0,0,
-60.,0.,-54.73561,
1.5,1.5,1.5,
1.,1.,0,0.,0.,0.,0.,0.,0.,
1.5,1.5,1.5,
1.,
0.,0.,1.,1.,
2,0,1,1,0,
-1,-1,0,0,0,1,0,0,0,4000000,
9,
0,0,0,
0,0,0,
0,0,0,
0,0,0,
0,0,0,
0,0,0,
0,0,0,
0,0,0,
0,0,0,
100.,100.,1,7,
0,1,1.,
0.,0.,0.,
0.,0.,1.,
2.,1.,70.,0.5,
0.,25.,0.,0.,0.,0,50.,1000.,0.,0.,0.,100.,-100.,1,
5.,90.,10.,10.,1.,
4,101,0,0,0,0,0,0,0,0,0.,0.,1.,
0,0,0,0,0,0,14,110,
0,1,1,1,0,1,0,1,1,0,1,1,0,1,1,1,0,0,1,
0,0,0.00000001,25.,100.,0.,0.,0.,20,
0,1,1,0,0,1,20.,0,
12,
0,0.,
0,0.,
0,0.,
0,0.,
0,0.,
0,0.,
0,0.,
0,0.,
0,0.,
0,0.,
0,0.,
0,0.,
0,5,0,0,0,0.,25.,
4,16408,20,16504,100,16488,
0.,0.,
0.,0.,0.,0.,
9,
1.,
1.,
1.,
1.,
1.,
1.,
1.,
1.,
1.,
2,
<NULL>
<NULL>
0,0,0,0,
0.,0.,0.,0.,
0.,0.,0.,0.,
90,1,124,72,0,
0,60,1,1,
0,24,0,1,
0,120,0,1,
0,60,0,1,
0,24642,0,1,
0,124,0,1,
0,46,1,1,
0,120,1,1,
3,124,0,1,
0,124,0,0,
1,14,0,1,
0,62,0,0,
0,62,0,0,
0,10,1,1,
0,52,1,1,
0,4,1,1,
0,120,1,1,
0,12,1,1,
0,2,1,1,
0,120,1,1,
0,8312,1,1,
0,24600,0,0,
0,0,0,0,
1,123,0,1,
0,0,0,0,
3,124,0,1,
0,24648,0,1,
0,124,0,0,
0,4,0,0,
0,100,0,0,
0,124,0,1,
0,60,0,1,
0,56,0,1,
0,24,0,1,
0,8216,0,1,
0,4,0,0,
0,124,2,0,
0,0,1,1,
0,0,0,1,
1,124,5,1,
0,0,0,1,
0,24,0,1,
0,124,0,0,
0,100,0,1,
1,100,0,1,
0,0,0,1,
0,16,0,0,
0,124,4,1,
0,0,0,0,
2,124,1,1,
1,8254,0,0,
0,124,1,1,
1,0,5,1,
0,124,0,1,
0,100,0,1,
0,100,0,1,
1,46,0,1,
1,120,0,1,
1,4,0,1,
1,52,0,1,
1,24,0,1,
1,93,0,1,
1,12,0,1,
1,10,0,1,
1,104,0,1,
0,100,1,1,
0,24,1,1,
0,60,1,1,
0,104,1,1,
0,0,0,0,
0,90,1,1,
0,14,1,1,
0,8261,1,1,
0,19,0,0,
1,24,1,1,
0,4,0,0,
0,0,1,0,
0,0,0,0,
0,8201,0,1,
0,0,0,0,
0,20,1,1,
0,34,1,1,
0,9,1,1,
0,49,1,1,
0,105,1,1,
0,62,0,0,
0,0,1,1,
0,0,1,1,
0,0,1,1,
-1,
   -1
   -1
   411
   -1
   -1
   420
   -1
   -1
   822
   -1
   -1
   412
0,0,0,0,0,
   -1
   -1
   450
   -1
   -1
   451
   -1
