# vtk DataFile Version 3.0
eMachineSim boundary faces
ASCII
DATASET POLYDATA
POINTS 8 double
0.000000000000000e+00 0.000000000000000e+00 0.000000000000000e+00
1.000000000000000e+00 0.000000000000000e+00 0.000000000000000e+00
1.000000000000000e+00 1.000000000000000e+00 0.000000000000000e+00
0.000000000000000e+00 1.000000000000000e+00 0.000000000000000e+00
0.000000000000000e+00 0.000000000000000e+00 1.000000000000000e+00
1.000000000000000e+00 0.000000000000000e+00 1.000000000000000e+00
1.000000000000000e+00 1.000000000000000e+00 1.000000000000000e+00
0.000000000000000e+00 1.000000000000000e+00 1.000000000000000e+00
POLYGONS 6 30
4 0 3 2 1
4 0 1 5 4
4 0 4 7 3
4 1 2 6 5
4 3 7 6 2
4 4 5 6 7
CELL_DATA 6
SCALARS face_id int 1
LOOKUP_TABLE default
1
2
3
4
5
6
SCALARS boundary_group_id int 1
LOOKUP_TABLE default
0
0
0
0
0
0
SCALARS parent_element_id int 1
LOOKUP_TABLE default
1
1
1
1
1
1
SCALARS local_face_id int 1
LOOKUP_TABLE default
0
2
5
3
4
1
SCALARS adjacent_element_count int 1
LOOKUP_TABLE default
1
1
1
1
1
1
SCALARS area double 1
LOOKUP_TABLE default
1.000000000000000e+00
1.000000000000000e+00
1.000000000000000e+00
1.000000000000000e+00
1.000000000000000e+00
1.000000000000000e+00
VECTORS normal double
0.000000000000000e+00 0.000000000000000e+00 -1.000000000000000e+00
0.000000000000000e+00 -1.000000000000000e+00 0.000000000000000e+00
-1.000000000000000e+00 0.000000000000000e+00 0.000000000000000e+00
1.000000000000000e+00 0.000000000000000e+00 0.000000000000000e+00
0.000000000000000e+00 1.000000000000000e+00 0.000000000000000e+00
0.000000000000000e+00 0.000000000000000e+00 1.000000000000000e+00
