# vtk DataFile Version 3.0
eMachineSim mesh
ASCII
DATASET UNSTRUCTURED_GRID
POINTS 8 double
0.000000000000000e+00 0.000000000000000e+00 0.000000000000000e+00
1.000000000000000e+00 0.000000000000000e+00 0.000000000000000e+00
1.000000000000000e+00 1.000000000000000e+00 0.000000000000000e+00
0.000000000000000e+00 1.000000000000000e+00 0.000000000000000e+00
0.000000000000000e+00 0.000000000000000e+00 1.000000000000000e+00
1.000000000000000e+00 0.000000000000000e+00 1.000000000000000e+00
1.000000000000000e+00 1.000000000000000e+00 1.000000000000000e+00
0.000000000000000e+00 1.000000000000000e+00 1.000000000000000e+00
CELLS 1 9
8 0 1 2 3 4 5 6 7
CELL_TYPES 1
12
POINT_DATA 8
SCALARS node_id int 1
LOOKUP_TABLE default
1
2
3
4
5
6
7
8
CELL_DATA 1
SCALARS element_id int 1
LOOKUP_TABLE default
1
SCALARS property_id int 1
LOOKUP_TABLE default
100
SCALARS element_kind int 1
LOOKUP_TABLE default
3
SCALARS vtk_cell_type int 1
LOOKUP_TABLE default
12
