# vtk DataFile Version 3.0
eMachineSim scalar field result
ASCII
DATASET UNSTRUCTURED_GRID
POINTS 8 double
0.000000000000000e+00 0.000000000000000e+00 0.000000000000000e+00
1.000000000000000e+00 0.000000000000000e+00 0.000000000000000e+00
1.000000000000000e+00 1.000000000000000e+00 0.000000000000000e+00
0.000000000000000e+00 1.000000000000000e+00 0.000000000000000e+00
0.000000000000000e+00 0.000000000000000e+00 1.000000000000000e+00
1.000000000000000e+00 0.000000000000000e+00 1.000000000000000e+00
1.000000000000000e+00 1.000000000000000e+00 1.000000000000000e+00
0.000000000000000e+00 1.000000000000000e+00 1.000000000000000e+00
CELLS 1 9
8 0 1 2 3 4 5 6 7
CELL_TYPES 1
12
POINT_DATA 8
SCALARS node_id int 1
LOOKUP_TABLE default
1
2
3
4
5
6
7
8
SCALARS temperature double 1
LOOKUP_TABLE default
1.033333333333333e+02
1.033333333333333e+02
1.033333333333333e+02
1.033333333333333e+02
1.033333333333333e+02
1.033333333333333e+02
1.033333333333333e+02
1.033333333333333e+02
SCALARS field_abs double 1
LOOKUP_TABLE default
1.295030659794713e-14
1.295030659794713e-14
1.295030659794713e-14
1.295030659794713e-14
1.295030659794713e-14
1.295030659794713e-14
1.295030659794713e-14
1.295030659794713e-14
VECTORS field double
4.447060004192988e-15 9.868649107779146e-16 1.212271405040205e-14
4.447060004192988e-15 9.868649107779146e-16 1.212271405040205e-14
4.447060004192988e-15 9.868649107779146e-16 1.212271405040205e-14
4.447060004192988e-15 9.868649107779146e-16 1.212271405040205e-14
4.447060004192988e-15 9.868649107779146e-16 1.212271405040205e-14
4.447060004192988e-15 9.868649107779146e-16 1.212271405040205e-14
4.447060004192988e-15 9.868649107779146e-16 1.212271405040205e-14
4.447060004192988e-15 9.868649107779146e-16 1.212271405040205e-14
CELL_DATA 1
SCALARS element_id int 1
LOOKUP_TABLE default
1
SCALARS property_id int 1
LOOKUP_TABLE default
100
SCALARS element_kind int 1
LOOKUP_TABLE default
3
SCALARS vtk_cell_type int 1
LOOKUP_TABLE default
12
SCALARS element_field_abs double 1
LOOKUP_TABLE default
1.295030659794713e-14
SCALARS element_energy double 1
LOOKUP_TABLE default
8.385522049041642e-28
VECTORS element_field double
4.447060004192988e-15 9.868649107779146e-16 1.212271405040205e-14
