   -1
   100
<NULL>
4.41,
   -1
   -1
   450
1,
STEP:1 Time:  0.00000e+00
0,3,
  0.00000e+00,
1,
<NULL>
   -1
   -1
   451
1,271,1,
DISP-node-1
0.,-1.,0.,
271,0,0,0,0,0,0,0,0,0,
0,0,0,0,0,0,0,0,0,0,
0,0,3,7,
0,1,1,
1, 0.00000000e+00,
2, 0.00000000e+00,
3, 1.21444113e-10,
4, 2.40454745e-10,
5, 3.11063732e-10,
6, 0.00000000e+00,
7, 3.64142894e-10,
8, 1.68707893e-10,
9, 5.18861278e-10,
10, 0.00000000e+00,
11, 6.75997981e-10,
12, 1.92731081e-10,
13, 4.42301019e-10,
14, 2.81345021e-10,
15, 0.00000000e+00,
16, 7.68472099e-11,
17, 2.24305301e-10,
18, 1.30474263e-10,
19, 3.70460853e-11,
20, 0.00000000e+00,
21, 2.67669642e-10,
22, 1.92157233e-10,
23, 1.95659970e-10,
24, 3.58091929e-10,
25, 0.00000000e+00,
26,-4.56886356e-11,
27, 2.61761503e-10,
28, 1.85772172e-10,
30, 9.41827358e-11,
31, 1.17820379e-10,
32,-5.27826690e-11,
33,-8.82282814e-11,
34, 6.03223444e-12,
35, 0.00000000e+00,
38, 2.98946443e-11,
40, 1.20868536e-11,
41,-7.23454131e-11,
43,-3.93498600e-11,
44,-1.14367372e-11,
45, 0.00000000e+00,
46, 7.14235578e-08,
47, 7.26527540e-08,
48, 7.21800577e-08,
49, 2.58928368e-11,
50, 6.23647677e-11,
52, 7.27976779e-08,
53, 7.26642432e-08,
54, 1.46509954e-12,
55,-2.77137721e-11,
56, 7.25802721e-11,
57, 0.00000000e+00,
58, 3.48959829e-11,
59, 7.23703431e-08,
60, 7.22268089e-08,
61, 7.25977092e-08,
63, 7.15586569e-08,
64, 7.25638457e-08,
65, 7.22072729e-08,
66, 7.18574215e-08,
67,-3.68155717e-11,
69,-6.68109960e-11,
70, 0.00000000e+00,
71, 7.22325911e-08,
72, 7.24737304e-08,
73, 7.23940270e-08,
74, 7.16883014e-08,
75, 7.15180974e-08,
76, 7.20830116e-08,
77, 7.11065059e-08,
78, 7.15087059e-08,
80,-6.21223662e-11,
81, 7.07346139e-08,
83,-7.76042662e-11,
84, 6.96290190e-08,
85,-8.53383941e-11,
87, 7.05806691e-08,
88, 0.00000000e+00,
89, 7.04215032e-08,
90, 6.97788752e-08,
91, 7.12002756e-08,
92, 7.01610664e-08,
93, 7.18201702e-08,
94, 7.22527456e-08,
95, 7.21974889e-08,
96, 7.23864427e-08,
99, 6.91959822e-08,
100, 6.94699549e-08,
101, 6.75683571e-08,
102, 6.88191527e-08,
103, 6.84982597e-08,
105,-9.77862072e-11,
106, 7.20157473e-08,
107, 7.23029406e-08,
108, 7.15882376e-08,
109, 7.22685805e-08,
110, 7.18860461e-08,
111, 7.09382707e-08,
112, 7.01631347e-08,
113, 6.92245729e-08,
114, 6.80018467e-08,
116, 6.55866093e-08,
117, 0.00000000e+00,
119, 6.82755770e-08,
120, 6.61438101e-08,
122,-1.00007357e-10,
125,-7.31544648e-11,
127, 6.36891807e-08,
128, 6.30089647e-08,
129, 0.00000000e+00,
130, 6.71310852e-08,
137, 4.35353917e-11,
141, 6.36948586e-08,
142, 2.50350494e-09,
147, 6.04466681e-08,
148, 5.95825757e-08,
149, 0.00000000e+00,
153, 6.48421594e-08,
155, 6.80439749e-08,
156, 5.82497288e-08,
157, 5.99700607e-08,
158, 5.48285659e-08,
159, 1.47143194e-08,
160, 3.36933271e-09,
161, 5.59089547e-08,
162, 7.04417587e-08,
163, 2.39753333e-08,
164, 0.00000000e+00,
165, 1.91009257e-09,
166, 1.14754877e-08,
167, 1.51368319e-09,
168, 4.92609451e-08,
169, 4.75467747e-08,
170, 6.18742091e-08,
171, 6.60990115e-08,
172, 4.52094877e-09,
173, 5.30966119e-08,
174, 6.90213492e-08,
175, 7.21160645e-08,
176, 7.13474054e-08,
177, 5.67937932e-08,
178, 4.93204163e-08,
179, 2.08783281e-08,
180, 3.24994267e-08,
182, 7.00158836e-08,
183, 7.27114794e-08,
185, 1.77735885e-08,
186, 7.09900978e-08,
187, 6.73991927e-08,
188, 6.38367755e-08,
189, 3.78947642e-08,
190, 7.72111855e-09,
191, 1.23496750e-08,
192, 7.13421207e-08,
193, 4.67207705e-08,
194, 6.01712309e-08,
195, 5.22262023e-08,
196, 5.45146451e-08,
197, 4.95988665e-08,
199, 3.02106398e-08,
200, 4.31684375e-08,
201, 5.66459443e-08,
203, 2.29677898e-08,
205, 2.86556698e-08,
209, 4.63995016e-08,
210, 5.20481379e-08,
211, 4.26637721e-08,
212, 6.85922307e-08,
213, 3.60074813e-08,
216, 4.93839809e-08,
217, 5.85803695e-08,
218, 5.43687508e-08,
219, 5.54501395e-08,
220, 5.32233667e-08,
221, 5.07434248e-08,
222, 3.81679731e-08,
223, 6.57175750e-08,
224, 6.95663669e-08,
225, 6.99574398e-08,
228, 4.79292046e-08,
229, 6.31724358e-08,
230, 4.46129006e-08,
231, 4.05048517e-08,
233, 5.65116906e-08,
234, 6.03909752e-08,
236, 5.74924370e-08,
237, 3.21992038e-08,
239, 7.00659261e-08,
240, 6.74105395e-08,
248, 6.88429171e-08,
250, 3.58370173e-08,
252, 5.84608530e-08,
253, 5.93729007e-08,
264, 6.58018522e-08,
267, 6.20615760e-08,
274, 6.36202898e-08,
275, 6.02783140e-08,
278, 6.11203169e-08,
299, 6.50633534e-08,
300, 6.27494754e-08,
301, 6.35243236e-08,
302, 6.19562347e-08,
305, 6.79893369e-08,
316, 6.96977619e-08,
320, 6.42622939e-08,
321, 6.63720236e-08,
324, 6.49812111e-08,
344, 6.75539070e-08,
345, 6.56540713e-08,
346, 6.63054030e-08,
371, 7.02060518e-08,
372, 6.85526842e-08,
373, 6.94395216e-08,
385, 6.69143289e-08,
397, 6.75016884e-08,
398, 7.08417525e-08,
399, 7.01514825e-08,
427, 6.80215788e-08,
428, 6.97823997e-08,
429, 6.89608414e-08,
430, 6.93943798e-08,
431, 6.85094274e-08,
456, 7.04996509e-08,
1680, 4.19890562e-10,
1681, 8.36325417e-10,
1682, 6.38296072e-10,
1683, 3.51979751e-10,
1684, 4.80230880e-10,
1685, 6.11206001e-10,
1686, 8.14587060e-10,
1687, 1.07855117e-09,
1688, 4.62753671e-10,
1689, 5.73783480e-10,
1690, 5.57774925e-10,
1691, 1.32717749e-09,
1692, 1.06935802e-09,
1693, 4.37424298e-10,
1694, 3.40975490e-10,
1695, 5.34856424e-10,
1697, 7.02426313e-10,
1698, 6.24068799e-10,
1699, 1.32305525e-09,
1700, 1.33428575e-09,
1701, 9.62632172e-10,
1702, 1.53259664e-09,
1705, 7.53581815e-10,
1708, 8.90294443e-10,
1709, 1.28245020e-09,
1711, 1.45615239e-09,
1712, 1.70255752e-09,
1713, 1.73015394e-09,
1714, 6.90148704e-08,
1715, 7.03467921e-08,
1716, 1.27558791e-09,
1717, 9.37644846e-10,
1719, 6.74548225e-08,
1720, 6.57477016e-08,
1721, 1.57693065e-09,
1722, 1.85104960e-09,
1723, 1.21426478e-09,
1724, 2.03612232e-09,
1725, 1.46286240e-09,
1726, 6.63127782e-08,
1727, 6.39314207e-08,
1728, 6.79413455e-08,
1730, 6.94053423e-08,
1731, 7.06255163e-08,
1732, 6.45454425e-08,
1733, 1.77271595e-09,
1735, 1.79227996e-09,
1736, 2.28918809e-09,
1737, 7.09002012e-08,
1738, 6.97969491e-08,
1739, 6.84287528e-08,
1740, 6.21355117e-08,
1741, 6.68820677e-08,
1742, 6.27508781e-08,
1743, 6.51560508e-08,
1745, 2.25832456e-09,
1746, 6.33513964e-08,
1748, 1.95230871e-09,
1749, 5.92141760e-08,
1750, 2.84119378e-09,
1752, 6.05171701e-08,
1753, 3.34197399e-09,
1754, 6.39166088e-08,
1755, 6.15942475e-08,
1756, 6.57265959e-08,
1757, 6.10789977e-08,
1758, 6.74178276e-08,
1759, 7.17997739e-08,
1760, 7.11515449e-08,
1761, 6.88791487e-08,
1762, 7.01590055e-08,
1765, 5.97739440e-08,
1766, 6.20278541e-08,
1767, 5.90951744e-08,
1768, 6.02316800e-08,
1769, 6.05106614e-08,
1771, 3.36982594e-09,
1772, 6.92663936e-08,
1773, 7.04778202e-08,
1774, 6.78990840e-08,
1775, 7.13643471e-08,
1776, 6.62314206e-08,
1777, 6.44361587e-08,
1778, 6.24503291e-08,
1779, 6.14456200e-08,
1781, 5.78548284e-08,
1782, 4.30672801e-09,
1784, 6.04803931e-08,
1785, 6.04228014e-08,
1787, 3.85272470e-09,
1790, 4.27094021e-09,
1792, 5.93770043e-08,
1793, 5.61872112e-08,
1794, 4.58158860e-09,
1795, 6.25849203e-08,
1801, 4.61317501e-09,
1805, 6.19780009e-08,
1806, 3.88021212e-09,
1810, 5.82104296e-08,
1811, 5.40584897e-08,
1812, 4.19178055e-09,
1816, 6.61879034e-08,
1818, 6.63898113e-08,
1819, 6.15600590e-08,
1820, 6.62335906e-08,
1821, 5.14007060e-08,
1822, 1.30905114e-08,
1823, 3.90763491e-09,
1824, 5.69668877e-08,
1825, 6.78615117e-08,
1826, 2.86602070e-08,
1827, 3.90281997e-09,
1828, 4.35936864e-09,
1829, 7.23489148e-08,
1830, 1.58225829e-08,
1831, 3.63747087e-09,
1832, 5.59899965e-08,
1833, 4.80837732e-08,
1834, 6.93709412e-08,
1835, 6.92199371e-08,
1836, 1.03295064e-08,
1837, 6.69474846e-08,
1838, 6.92966214e-08,
1839, 7.17502993e-08,
1840, 7.03183181e-08,
1841, 7.02762939e-08,
1842, 6.14229474e-08,
1843, 3.27635503e-08,
1844, 4.39265194e-08,
1846, 7.12128553e-08,
1848, 3.55429875e-08,
1849, 7.23706313e-08,
1850, 7.12886224e-08,
1851, 7.14633773e-08,
1852, 5.57361604e-08,
1853, 1.76479147e-08,
1854, 2.67316139e-08,
1855, 7.30153908e-08,
1856, 6.51160540e-08,
1857, 7.23197018e-08,
1858, 6.92041928e-08,
1859, 7.05955090e-08,
1860, 6.73097203e-08,
1862, 4.77459280e-08,
1863, 6.17523624e-08,
1864, 7.17434122e-08,
1866, 4.36397035e-08,
1868, 5.01599202e-08,
1872, 6.62530024e-08,
1873, 6.98910780e-08,
1874, 6.35287921e-08,
1875, 7.26217534e-08,
1876, 5.61911315e-08,
1879, 6.82518218e-08,
1880, 7.26054994e-08,
1881, 7.11526203e-08,
1882, 7.16900039e-08,
1883, 7.05398338e-08,
1884, 6.91290669e-08,
1885, 5.96660206e-08,
1886, 7.28163573e-08,
1887, 7.33699433e-08,
1888, 7.37212918e-08,
1891, 6.72585989e-08,
1892, 7.35280795e-08,
1893, 6.50227283e-08,
1894, 6.17179498e-08,
1897, 7.21667890e-08,
1898, 7.32777300e-08,
1900, 7.25703303e-08,
1901, 5.45024382e-08,
1902, 7.30582311e-08,
1903, 7.35506798e-08,
1908, 7.36659090e-08,
1910, 5.75429909e-08,
1912, 7.29406116e-08,
1913, 7.32551195e-08,
1923, 7.13125787e-08,
1924, 7.39776442e-08,
1927, 7.37358470e-08,
1931, 7.39956794e-08,
1932, 7.35243715e-08,
1935, 7.37316042e-08,
1948, 7.40562814e-08,
1949, 7.40180213e-08,
1950, 7.40800195e-08,
1951, 7.38939646e-08,
1954, 7.36507759e-08,
1961, 7.25168842e-08,
1962, 7.10651909e-08,
1964, 7.41057263e-08,
1965, 7.39017843e-08,
1966, 7.40661321e-08,
1969, 7.35681075e-08,
1970, 7.39859350e-08,
1971, 7.38539308e-08,
1979, 7.16439993e-08,
1980, 7.09151117e-08,
1981, 7.30078542e-08,
1982, 7.23785480e-08,
1988, 7.36858603e-08,
1993, 7.34565502e-08,
1994, 7.15395790e-08,
1999, 7.31776375e-08,
2000, 7.18863295e-08,
2001, 7.25773705e-08,
2002, 7.22472484e-08,
2003, 7.28881893e-08,
2006, 7.11834794e-08,
-1,0.,
1,272,1,
DISP-node-2
0.,-1.,0.,
272,0,0,0,0,0,0,0,0,0,
0,0,0,0,0,0,0,0,0,0,
0,0,3,7,
0,1,1,
1, 0.00000000e+00,
2, 3.69829190e-10,
3, 2.89660480e-10,
4, 1.56802542e-10,
5, 0.00000000e+00,
6, 6.08920525e-10,
7, 2.08504150e-10,
8, 4.38261519e-10,
9, 0.00000000e+00,
10, 7.96961065e-10,
11, 0.00000000e+00,
12, 5.31724332e-10,
13, 2.26578829e-10,
14, 4.92088545e-10,
15, 9.82947382e-10,
16, 7.59469124e-10,
17, 5.75252622e-10,
18, 7.23049288e-10,
19, 9.60113298e-10,
20, 1.24227591e-09,
21, 5.28289374e-10,
22, 6.81695837e-10,
23, 6.53695939e-10,
24, 4.13755519e-10,
25, 1.53291416e-09,
26, 1.24000203e-09,
27, 4.88137634e-10,
28, 5.96957435e-10,
30, 8.22592345e-10,
31, 7.35565846e-10,
32, 1.51802759e-09,
33, 1.53613786e-09,
34, 1.11181976e-09,
35, 1.76447804e-09,
38, 8.65363492e-10,
40, 1.03143597e-09,
41, 1.47626371e-09,
43, 1.67701299e-09,
44, 1.96701079e-09,
45, 2.00349581e-09,
46, 7.58397177e-08,
47, 7.39568395e-08,
48, 7.50210884e-08,
49, 1.47195482e-09,
50, 1.08612146e-09,
52, 7.26648280e-08,
53, 7.12291529e-08,
54, 1.80810841e-09,
55, 2.15004184e-09,
56, 1.40108054e-09,
57, 2.37269935e-09,
58, 1.67520246e-09,
59, 7.16764688e-08,
60, 6.96847895e-08,
61, 7.30339242e-08,
63, 7.58596734e-08,
64, 7.42304456e-08,
65, 7.51841403e-08,
66, 7.01805163e-08,
67, 2.04682402e-09,
69, 2.07394645e-09,
70, 2.70067721e-09,
71, 7.53318372e-08,
72, 7.44947964e-08,
73, 7.33937031e-08,
74, 7.58612019e-08,
75, 6.81633433e-08,
76, 7.21186904e-08,
77, 6.86602412e-08,
78, 7.06637352e-08,
80, 2.66447514e-09,
81, 6.91338529e-08,
83, 2.27954983e-09,
84, 6.57834612e-08,
85, 3.38213611e-09,
87, 6.68184300e-08,
88, 3.98420604e-09,
89, 6.95708009e-08,
90, 6.76513779e-08,
91, 7.11047111e-08,
92, 6.72618801e-08,
93, 7.25259013e-08,
94, 7.54539817e-08,
95, 7.37140244e-08,
96, 7.47306962e-08,
99, 6.62142549e-08,
100, 6.79555162e-08,
101, 6.52703470e-08,
102, 6.65425656e-08,
103, 6.67008318e-08,
105, 4.02758567e-09,
106, 7.39814223e-08,
107, 7.49327640e-08,
108, 7.28907253e-08,
109, 7.55452183e-08,
110, 7.58107194e-08,
111, 7.14907599e-08,
112, 6.99727880e-08,
113, 6.82656545e-08,
114, 6.73168561e-08,
116, 6.39813487e-08,
117, 5.23149188e-09,
119, 6.65387131e-08,
120, 6.62722108e-08,
122, 4.64162429e-09,
125, 5.18648040e-09,
127, 6.51997752e-08,
128, 6.22872685e-08,
129, 5.65672190e-09,
130, 6.82161361e-08,
137, 5.66443593e-09,
141, 6.75426028e-08,
142, 5.13390157e-09,
147, 6.40038427e-08,
148, 6.01152521e-08,
149, 5.28035821e-09,
153, 7.12449034e-08,
155, 7.14601653e-08,
156, 6.70640737e-08,
157, 7.12833849e-08,
158, 5.73853584e-08,
159, 1.57265623e-08,
160, 5.28449751e-09,
161, 6.27244874e-08,
162, 7.27618101e-08,
163, 3.30629340e-08,
164, 5.02992425e-09,
165, 5.87254363e-09,
166, 1.88661224e-08,
167, 4.87451814e-09,
168, 6.17240263e-08,
169, 5.39449611e-08,
170, 7.39384818e-08,
171, 7.37806241e-08,
172, 1.27053635e-08,
173, 7.19439724e-08,
174, 7.38333914e-08,
175, 7.55990108e-08,
176, 7.46571282e-08,
177, 7.47174450e-08,
178, 6.69373112e-08,
179, 3.76728787e-08,
180, 4.95633387e-08,
182, 7.52353207e-08,
183, 7.56951896e-08,
185, 4.06511318e-08,
186, 7.59374203e-08,
187, 7.53702611e-08,
188, 7.55871677e-08,
189, 6.14832106e-08,
190, 2.09642952e-08,
191, 3.10663194e-08,
192, 7.61458987e-08,
193, 7.03170811e-08,
194, 7.62817031e-08,
195, 7.38401323e-08,
196, 7.49460684e-08,
197, 7.22265284e-08,
199, 5.34996770e-08,
200, 6.72115912e-08,
201, 7.58420531e-08,
203, 4.92050116e-08,
205, 5.59251663e-08,
209, 7.12843393e-08,
210, 7.43644806e-08,
211, 6.88334811e-08,
212, 7.62323674e-08,
213, 6.19235289e-08,
216, 7.30021542e-08,
217, 7.64439062e-08,
218, 7.53568618e-08,
219, 7.57715272e-08,
220, 7.48744613e-08,
221, 7.37398960e-08,
222, 6.52088604e-08,
223, 7.64822992e-08,
224, 7.65572299e-08,
225, 7.66668305e-08,
228, 7.21488808e-08,
229, 7.69655127e-08,
230, 7.01896335e-08,
231, 6.71429298e-08,
233, 7.61205659e-08,
234, 7.68482083e-08,
236, 7.63947417e-08,
237, 6.02350931e-08,
239, 7.55742299e-08,
240, 7.67728154e-08,
248, 7.65031127e-08,
250, 6.31995241e-08,
252, 7.66320491e-08,
253, 7.68131733e-08,
264, 7.69387870e-08,
267, 7.70415259e-08,
274, 7.70503570e-08,
275, 7.69518570e-08,
278, 7.70304115e-08,
299, 7.68712983e-08,
300, 7.70709838e-08,
301, 7.70086365e-08,
302, 7.70684698e-08,
305, 7.61768758e-08,
316, 7.46330426e-08,
320, 7.69178092e-08,
321, 7.64883389e-08,
324, 7.67623148e-08,
344, 7.59322599e-08,
345, 7.65703359e-08,
346, 7.63246194e-08,
371, 7.34177053e-08,
372, 7.51583009e-08,
373, 7.43291844e-08,
385, 7.60454260e-08,
397, 7.57117842e-08,
398, 7.23496243e-08,
399, 7.32188247e-08,
427, 7.53295666e-08,
428, 7.36566449e-08,
429, 7.45232433e-08,
430, 7.41033042e-08,
431, 7.49332548e-08,
456, 7.27787551e-08,
1680, 3.29659166e-10,
1681, 0.00000000e+00,
1682, 9.55299289e-11,
1683, 4.09160045e-10,
1684, 2.56513282e-10,
1685, 1.49013785e-10,
1686, 4.32415888e-11,
1687, 0.00000000e+00,
1688, 3.18562435e-10,
1689, 2.20667737e-10,
1690, 2.35939567e-10,
1691, 0.00000000e+00,
1692,-3.79271583e-11,
1693, 3.10198382e-10,
1694, 3.91520692e-10,
1695, 2.25888488e-10,
1697, 1.23780652e-10,
1698, 1.30982852e-10,
1699,-4.07853108e-11,
1700,-7.06775979e-11,
1701, 3.55982440e-11,
1702, 0.00000000e+00,
1705, 5.65475686e-11,
1708, 3.69754569e-11,
1709,-4.70756830e-11,
1711,-2.38314520e-11,
1712,-4.07267162e-12,
1713, 0.00000000e+00,
1714, 7.65526616e-08,
1715, 7.63414636e-08,
1716, 3.51953399e-11,
1717, 7.09911848e-11,
1719, 7.64371722e-08,
1720, 7.60406159e-08,
1721, 1.30987796e-11,
1722,-2.08782539e-11,
1723, 7.58277779e-11,
1724, 0.00000000e+00,
1725, 4.31150174e-11,
1726, 7.56283187e-08,
1727, 7.53396181e-08,
1728, 7.61193566e-08,
1730, 7.63461606e-08,
1731, 7.62524331e-08,
1732, 7.48513303e-08,
1733,-2.48454158e-11,
1735,-4.90589004e-11,
1736, 0.00000000e+00,
1737, 7.61490081e-08,
1738, 7.61258702e-08,
1739, 7.57864002e-08,
1740, 7.43626270e-08,
1741, 7.52115307e-08,
1742, 7.38313943e-08,
1743, 7.43735087e-08,
1745,-4.98475608e-11,
1746, 7.33300971e-08,
1748,-6.06646164e-11,
1749, 7.19378808e-08,
1750,-7.06062580e-11,
1752, 7.31531433e-08,
1753, 0.00000000e+00,
1754, 7.28880161e-08,
1755, 7.21021426e-08,
1756, 7.39365470e-08,
1757, 7.26139571e-08,
1758, 7.48195333e-08,
1759, 7.58430112e-08,
1760, 7.60397220e-08,
1761, 7.54609240e-08,
1762, 7.59069346e-08,
1765, 7.13804275e-08,
1766, 7.16636978e-08,
1767, 6.92513879e-08,
1768, 7.08802716e-08,
1769, 7.04376554e-08,
1771,-7.80921601e-11,
1772, 7.51622705e-08,
1773, 7.57027840e-08,
1774, 7.44706345e-08,
1775, 7.59375521e-08,
1776, 7.35581559e-08,
1777, 7.25129065e-08,
1778, 7.13018143e-08,
1779, 6.97352529e-08,
1781, 6.68907380e-08,
1782, 0.00000000e+00,
1784, 7.00900126e-08,
1785, 6.74859015e-08,
1787,-7.69248942e-11,
1790,-5.39187998e-11,
1792, 6.46478248e-08,
1793, 6.39261783e-08,
1794, 0.00000000e+00,
1795, 6.86260706e-08,
1801, 3.85041707e-11,
1805, 6.46109296e-08,
1806, 2.49737604e-09,
1810, 6.10203333e-08,
1811, 6.01157240e-08,
1812, 0.00000000e+00,
1816, 6.59114131e-08,
1818, 6.97235796e-08,
1819, 5.85972312e-08,
1820, 6.04466629e-08,
1821, 5.49788706e-08,
1822, 1.42664106e-08,
1823, 3.51513341e-09,
1824, 5.60988064e-08,
1825, 7.28256262e-08,
1826, 2.33737391e-08,
1827, 0.00000000e+00,
1828, 2.34532200e-09,
1829, 7.57503477e-08,
1830, 1.15186384e-08,
1831, 1.68913777e-09,
1832, 4.91016689e-08,
1833, 4.73521805e-08,
1834, 6.25149973e-08,
1835, 6.73597272e-08,
1836, 5.04251174e-09,
1837, 5.30304376e-08,
1838, 7.09328784e-08,
1839, 7.51193205e-08,
1840, 7.40247143e-08,
1841, 5.68928340e-08,
1842, 4.91325019e-08,
1843, 2.07523728e-08,
1844, 3.21015948e-08,
1846, 7.22079277e-08,
1848, 1.78926378e-08,
1849, 7.34842717e-08,
1850, 6.88934474e-08,
1851, 6.46696769e-08,
1852, 3.74977910e-08,
1853, 8.23865424e-09,
1854, 1.27627473e-08,
1855, 7.39464184e-08,
1856, 4.63493046e-08,
1857, 6.04538811e-08,
1858, 5.19682455e-08,
1859, 5.43463009e-08,
1860, 4.92758722e-08,
1862, 2.98872216e-08,
1863, 4.27758249e-08,
1864, 5.65681911e-08,
1866, 2.29213396e-08,
1868, 2.83441092e-08,
1872, 4.59138429e-08,
1873, 5.16849933e-08,
1874, 4.21593935e-08,
1875, 7.03591310e-08,
1876, 3.55927822e-08,
1879, 4.89504213e-08,
1880, 5.86037175e-08,
1881, 5.41007354e-08,
1882, 5.52271195e-08,
1883, 5.29063739e-08,
1884, 5.03429075e-08,
1885, 3.76823457e-08,
1886, 6.67811532e-08,
1887, 7.16167074e-08,
1888, 7.21654436e-08,
1891, 4.74667917e-08,
1892, 6.37119716e-08,
1893, 4.41144760e-08,
1894, 4.00059042e-08,
1897, 5.63347645e-08,
1898, 6.05315455e-08,
1900, 5.73649215e-08,
1901, 3.18054952e-08,
1902, 7.21049673e-08,
1903, 6.87411276e-08,
1908, 7.04406579e-08,
1910, 3.53678670e-08,
1912, 5.83864046e-08,
1913, 5.93563718e-08,
1923, 7.34744767e-08,
1924, 6.66217496e-08,
1927, 6.23385536e-08,
1931, 6.40432542e-08,
1932, 6.03230403e-08,
1935, 6.12321777e-08,
1948, 6.56384572e-08,
1949, 6.30008362e-08,
1950, 6.38531546e-08,
1951, 6.21376852e-08,
1954, 6.91220959e-08,
1961, 7.11679014e-08,
1962, 7.28495493e-08,
1964, 6.46654185e-08,
1965, 6.71066470e-08,
1966, 6.54630176e-08,
1969, 6.84553022e-08,
1970, 6.62134690e-08,
1971, 6.69468562e-08,
1979, 7.16345857e-08,
1980, 7.25143245e-08,
1981, 6.96307628e-08,
1982, 7.06960084e-08,
1988, 6.76403098e-08,
1993, 6.83106998e-08,
1994, 7.14903669e-08,
1999, 6.89144375e-08,
2000, 7.10323151e-08,
2001, 7.00374834e-08,
2002, 7.05597860e-08,
2003, 6.94946171e-08,
2006, 7.19211152e-08,
-1,0.,
1,273,1,
DISP-node-3
0.,-1.,0.,
273,0,0,0,0,0,0,0,0,0,
0,0,0,0,0,0,0,0,0,0,
0,0,3,7,
0,1,1,
1, 0.00000000e+00,
2, 0.00000000e+00,
3, 0.00000000e+00,
4, 0.00000000e+00,
5, 0.00000000e+00,
6, 0.00000000e+00,
7, 0.00000000e+00,
8, 0.00000000e+00,
9, 0.00000000e+00,
10, 0.00000000e+00,
11, 0.00000000e+00,
12, 0.00000000e+00,
13, 0.00000000e+00,
14, 0.00000000e+00,
15, 0.00000000e+00,
16, 0.00000000e+00,
17, 0.00000000e+00,
18, 0.00000000e+00,
19, 0.00000000e+00,
20, 0.00000000e+00,
21, 0.00000000e+00,
22, 0.00000000e+00,
23, 0.00000000e+00,
24, 0.00000000e+00,
25, 0.00000000e+00,
26, 0.00000000e+00,
27, 0.00000000e+00,
28, 0.00000000e+00,
30, 0.00000000e+00,
31, 0.00000000e+00,
32, 0.00000000e+00,
33, 0.00000000e+00,
34, 0.00000000e+00,
35, 0.00000000e+00,
38, 0.00000000e+00,
40, 0.00000000e+00,
41, 0.00000000e+00,
43, 0.00000000e+00,
44, 0.00000000e+00,
45, 0.00000000e+00,
46, 0.00000000e+00,
47, 0.00000000e+00,
48, 0.00000000e+00,
49, 0.00000000e+00,
50, 0.00000000e+00,
52, 0.00000000e+00,
53, 0.00000000e+00,
54, 0.00000000e+00,
55, 0.00000000e+00,
56, 0.00000000e+00,
57, 0.00000000e+00,
58, 0.00000000e+00,
59, 0.00000000e+00,
60, 0.00000000e+00,
61, 0.00000000e+00,
63, 0.00000000e+00,
64, 0.00000000e+00,
65, 0.00000000e+00,
66, 0.00000000e+00,
67, 0.00000000e+00,
69, 0.00000000e+00,
70, 0.00000000e+00,
71, 0.00000000e+00,
72, 0.00000000e+00,
73, 0.00000000e+00,
74, 0.00000000e+00,
75, 0.00000000e+00,
76, 0.00000000e+00,
77, 0.00000000e+00,
78, 0.00000000e+00,
80, 0.00000000e+00,
81, 0.00000000e+00,
83, 0.00000000e+00,
84, 0.00000000e+00,
85, 0.00000000e+00,
87, 0.00000000e+00,
88, 0.00000000e+00,
89, 0.00000000e+00,
90, 0.00000000e+00,
91, 0.00000000e+00,
92, 0.00000000e+00,
93, 0.00000000e+00,
94, 0.00000000e+00,
95, 0.00000000e+00,
96, 0.00000000e+00,
99, 0.00000000e+00,
100, 0.00000000e+00,
101, 0.00000000e+00,
102, 0.00000000e+00,
103, 0.00000000e+00,
105, 0.00000000e+00,
106, 0.00000000e+00,
107, 0.00000000e+00,
108, 0.00000000e+00,
109, 0.00000000e+00,
110, 0.00000000e+00,
111, 0.00000000e+00,
112, 0.00000000e+00,
113, 0.00000000e+00,
114, 0.00000000e+00,
116, 0.00000000e+00,
117, 0.00000000e+00,
119, 0.00000000e+00,
120, 0.00000000e+00,
122, 0.00000000e+00,
125, 0.00000000e+00,
127, 0.00000000e+00,
128, 0.00000000e+00,
129, 0.00000000e+00,
130, 0.00000000e+00,
137, 0.00000000e+00,
141, 0.00000000e+00,
142, 0.00000000e+00,
147, 0.00000000e+00,
148, 0.00000000e+00,
149, 0.00000000e+00,
153, 0.00000000e+00,
155, 0.00000000e+00,
156, 0.00000000e+00,
157, 0.00000000e+00,
158, 0.00000000e+00,
159, 0.00000000e+00,
160, 0.00000000e+00,
161, 0.00000000e+00,
162, 0.00000000e+00,
163, 0.00000000e+00,
164, 0.00000000e+00,
165, 0.00000000e+00,
166, 0.00000000e+00,
167, 0.00000000e+00,
168, 0.00000000e+00,
169, 0.00000000e+00,
170, 0.00000000e+00,
171, 0.00000000e+00,
172, 0.00000000e+00,
173, 0.00000000e+00,
174, 0.00000000e+00,
175, 0.00000000e+00,
176, 0.00000000e+00,
177, 0.00000000e+00,
178, 0.00000000e+00,
179, 0.00000000e+00,
180, 0.00000000e+00,
182, 0.00000000e+00,
183, 0.00000000e+00,
185, 0.00000000e+00,
186, 0.00000000e+00,
187, 0.00000000e+00,
188, 0.00000000e+00,
189, 0.00000000e+00,
190, 0.00000000e+00,
191, 0.00000000e+00,
192, 0.00000000e+00,
193, 0.00000000e+00,
194, 0.00000000e+00,
195, 0.00000000e+00,
196, 0.00000000e+00,
197, 0.00000000e+00,
199, 0.00000000e+00,
200, 0.00000000e+00,
201, 0.00000000e+00,
203, 0.00000000e+00,
205, 0.00000000e+00,
209, 0.00000000e+00,
210, 0.00000000e+00,
211, 0.00000000e+00,
212, 0.00000000e+00,
213, 0.00000000e+00,
216, 0.00000000e+00,
217, 0.00000000e+00,
218, 0.00000000e+00,
219, 0.00000000e+00,
220, 0.00000000e+00,
221, 0.00000000e+00,
222, 0.00000000e+00,
223, 0.00000000e+00,
224, 0.00000000e+00,
225, 0.00000000e+00,
228, 0.00000000e+00,
229, 0.00000000e+00,
230, 0.00000000e+00,
231, 0.00000000e+00,
233, 0.00000000e+00,
234, 0.00000000e+00,
236, 0.00000000e+00,
237, 0.00000000e+00,
239, 0.00000000e+00,
240, 0.00000000e+00,
248, 0.00000000e+00,
250, 0.00000000e+00,
252, 0.00000000e+00,
253, 0.00000000e+00,
264, 0.00000000e+00,
267, 0.00000000e+00,
274, 0.00000000e+00,
275, 0.00000000e+00,
278, 0.00000000e+00,
299, 0.00000000e+00,
300, 0.00000000e+00,
301, 0.00000000e+00,
302, 0.00000000e+00,
305, 0.00000000e+00,
316, 0.00000000e+00,
320, 0.00000000e+00,
321, 0.00000000e+00,
324, 0.00000000e+00,
344, 0.00000000e+00,
345, 0.00000000e+00,
346, 0.00000000e+00,
371, 0.00000000e+00,
372, 0.00000000e+00,
373, 0.00000000e+00,
385, 0.00000000e+00,
397, 0.00000000e+00,
398, 0.00000000e+00,
399, 0.00000000e+00,
427, 0.00000000e+00,
428, 0.00000000e+00,
429, 0.00000000e+00,
430, 0.00000000e+00,
431, 0.00000000e+00,
456, 0.00000000e+00,
1680, 0.00000000e+00,
1681, 0.00000000e+00,
1682, 0.00000000e+00,
1683, 0.00000000e+00,
1684, 0.00000000e+00,
1685, 0.00000000e+00,
1686, 0.00000000e+00,
1687, 0.00000000e+00,
1688, 0.00000000e+00,
1689, 0.00000000e+00,
1690, 0.00000000e+00,
1691, 0.00000000e+00,
1692, 0.00000000e+00,
1693, 0.00000000e+00,
1694, 0.00000000e+00,
1695, 0.00000000e+00,
1697, 0.00000000e+00,
1698, 0.00000000e+00,
1699, 0.00000000e+00,
1700, 0.00000000e+00,
1701, 0.00000000e+00,
1702, 0.00000000e+00,
1705, 0.00000000e+00,
1708, 0.00000000e+00,
1709, 0.00000000e+00,
1711, 0.00000000e+00,
1712, 0.00000000e+00,
1713, 0.00000000e+00,
1714, 0.00000000e+00,
1715, 0.00000000e+00,
1716, 0.00000000e+00,
1717, 0.00000000e+00,
1719, 0.00000000e+00,
1720, 0.00000000e+00,
1721, 0.00000000e+00,
1722, 0.00000000e+00,
1723, 0.00000000e+00,
1724, 0.00000000e+00,
1725, 0.00000000e+00,
1726, 0.00000000e+00,
1727, 0.00000000e+00,
1728, 0.00000000e+00,
1730, 0.00000000e+00,
1731, 0.00000000e+00,
1732, 0.00000000e+00,
1733, 0.00000000e+00,
1735, 0.00000000e+00,
1736, 0.00000000e+00,
1737, 0.00000000e+00,
1738, 0.00000000e+00,
1739, 0.00000000e+00,
1740, 0.00000000e+00,
1741, 0.00000000e+00,
1742, 0.00000000e+00,
1743, 0.00000000e+00,
1745, 0.00000000e+00,
1746, 0.00000000e+00,
1748, 0.00000000e+00,
1749, 0.00000000e+00,
1750, 0.00000000e+00,
1752, 0.00000000e+00,
1753, 0.00000000e+00,
1754, 0.00000000e+00,
1755, 0.00000000e+00,
1756, 0.00000000e+00,
1757, 0.00000000e+00,
1758, 0.00000000e+00,
1759, 0.00000000e+00,
1760, 0.00000000e+00,
1761, 0.00000000e+00,
1762, 0.00000000e+00,
1765, 0.00000000e+00,
1766, 0.00000000e+00,
1767, 0.00000000e+00,
1768, 0.00000000e+00,
1769, 0.00000000e+00,
1771, 0.00000000e+00,
1772, 0.00000000e+00,
1773, 0.00000000e+00,
1774, 0.00000000e+00,
1775, 0.00000000e+00,
1776, 0.00000000e+00,
1777, 0.00000000e+00,
1778, 0.00000000e+00,
1779, 0.00000000e+00,
1781, 0.00000000e+00,
1782, 0.00000000e+00,
1784, 0.00000000e+00,
1785, 0.00000000e+00,
1787, 0.00000000e+00,
1790, 0.00000000e+00,
1792, 0.00000000e+00,
1793, 0.00000000e+00,
1794, 0.00000000e+00,
1795, 0.00000000e+00,
1801, 0.00000000e+00,
1805, 0.00000000e+00,
1806, 0.00000000e+00,
1810, 0.00000000e+00,
1811, 0.00000000e+00,
1812, 0.00000000e+00,
1816, 0.00000000e+00,
1818, 0.00000000e+00,
1819, 0.00000000e+00,
1820, 0.00000000e+00,
1821, 0.00000000e+00,
1822, 0.00000000e+00,
1823, 0.00000000e+00,
1824, 0.00000000e+00,
1825, 0.00000000e+00,
1826, 0.00000000e+00,
1827, 0.00000000e+00,
1828, 0.00000000e+00,
1829, 0.00000000e+00,
1830, 0.00000000e+00,
1831, 0.00000000e+00,
1832, 0.00000000e+00,
1833, 0.00000000e+00,
1834, 0.00000000e+00,
1835, 0.00000000e+00,
1836, 0.00000000e+00,
1837, 0.00000000e+00,
1838, 0.00000000e+00,
1839, 0.00000000e+00,
1840, 0.00000000e+00,
1841, 0.00000000e+00,
1842, 0.00000000e+00,
1843, 0.00000000e+00,
1844, 0.00000000e+00,
1846, 0.00000000e+00,
1848, 0.00000000e+00,
1849, 0.00000000e+00,
1850, 0.00000000e+00,
1851, 0.00000000e+00,
1852, 0.00000000e+00,
1853, 0.00000000e+00,
1854, 0.00000000e+00,
1855, 0.00000000e+00,
1856, 0.00000000e+00,
1857, 0.00000000e+00,
1858, 0.00000000e+00,
1859, 0.00000000e+00,
1860, 0.00000000e+00,
1862, 0.00000000e+00,
1863, 0.00000000e+00,
1864, 0.00000000e+00,
1866, 0.00000000e+00,
1868, 0.00000000e+00,
1872, 0.00000000e+00,
1873, 0.00000000e+00,
1874, 0.00000000e+00,
1875, 0.00000000e+00,
1876, 0.00000000e+00,
1879, 0.00000000e+00,
1880, 0.00000000e+00,
1881, 0.00000000e+00,
1882, 0.00000000e+00,
1883, 0.00000000e+00,
1884, 0.00000000e+00,
1885, 0.00000000e+00,
1886, 0.00000000e+00,
1887, 0.00000000e+00,
1888, 0.00000000e+00,
1891, 0.00000000e+00,
1892, 0.00000000e+00,
1893, 0.00000000e+00,
1894, 0.00000000e+00,
1897, 0.00000000e+00,
1898, 0.00000000e+00,
1900, 0.00000000e+00,
1901, 0.00000000e+00,
1902, 0.00000000e+00,
1903, 0.00000000e+00,
1908, 0.00000000e+00,
1910, 0.00000000e+00,
1912, 0.00000000e+00,
1913, 0.00000000e+00,
1923, 0.00000000e+00,
1924, 0.00000000e+00,
1927, 0.00000000e+00,
1931, 0.00000000e+00,
1932, 0.00000000e+00,
1935, 0.00000000e+00,
1948, 0.00000000e+00,
1949, 0.00000000e+00,
1950, 0.00000000e+00,
1951, 0.00000000e+00,
1954, 0.00000000e+00,
1961, 0.00000000e+00,
1962, 0.00000000e+00,
1964, 0.00000000e+00,
1965, 0.00000000e+00,
1966, 0.00000000e+00,
1969, 0.00000000e+00,
1970, 0.00000000e+00,
1971, 0.00000000e+00,
1979, 0.00000000e+00,
1980, 0.00000000e+00,
1981, 0.00000000e+00,
1982, 0.00000000e+00,
1988, 0.00000000e+00,
1993, 0.00000000e+00,
1994, 0.00000000e+00,
1999, 0.00000000e+00,
2000, 0.00000000e+00,
2001, 0.00000000e+00,
2002, 0.00000000e+00,
2003, 0.00000000e+00,
2006, 0.00000000e+00,
-1,0.,
1,274,1,
DISP-node-4
0.,-1.,0.,
274,0,0,0,0,0,0,0,0,0,
0,0,0,0,0,0,0,0,0,0,
0,0,3,7,
0,1,1,
1, 0.00000000e+00,
2, 3.69829190e-10,
3, 3.14088946e-10,
4, 2.87063619e-10,
5, 3.11063732e-10,
6, 6.08920525e-10,
7, 4.19611758e-10,
8, 4.69612087e-10,
9, 5.18861278e-10,
10, 7.96961065e-10,
11, 6.75997981e-10,
12, 5.65575844e-10,
13, 4.96958909e-10,
14, 5.66838739e-10,
15, 9.82947382e-10,
16, 7.63347132e-10,
17, 6.17436998e-10,
18, 7.34727029e-10,
19, 9.60827746e-10,
20, 1.24227591e-09,
21, 5.92230276e-10,
22, 7.08260980e-10,
23, 6.82349767e-10,
24, 5.47195997e-10,
25, 1.53291416e-09,
26, 1.24084346e-09,
27, 5.53892981e-10,
28, 6.25195553e-10,
30, 8.27966517e-10,
31, 7.44942116e-10,
32, 1.51894496e-09,
33, 1.53866948e-09,
34, 1.11183612e-09,
35, 1.76447804e-09,
38, 8.65879705e-10,
40, 1.03150679e-09,
41, 1.47803532e-09,
43, 1.67747458e-09,
44, 1.96704404e-09,
45, 2.00349581e-09,
46, 1.04177672e-07,
47, 1.03672739e-07,
48, 1.04106313e-07,
49, 1.47218254e-09,
50, 1.08791047e-09,
52, 1.02857567e-07,
53, 1.01753056e-07,
54, 1.80810900e-09,
55, 2.15022044e-09,
56, 1.40295922e-09,
57, 2.37269935e-09,
58, 1.67556588e-09,
59, 1.01857659e-07,
60, 1.00362751e-07,
61, 1.02977578e-07,
63, 1.04284857e-07,
64, 1.03805928e-07,
65, 1.04242723e-07,
66, 1.00442988e-07,
67, 2.04715509e-09,
69, 2.07502231e-09,
70, 2.70067721e-09,
71, 1.04366819e-07,
72, 1.03932268e-07,
73, 1.03089916e-07,
74, 1.04374971e-07,
75, 9.87981762e-08,
76, 1.01966004e-07,
77, 9.88451511e-08,
78, 1.00532873e-07,
80, 2.66519923e-09,
81, 9.89084183e-08,
83, 2.28087041e-09,
84, 9.57896866e-08,
85, 3.38321257e-09,
87, 9.71922499e-08,
88, 3.98420604e-09,
89, 9.89913352e-08,
90, 9.71895074e-08,
91, 1.00624844e-07,
92, 9.71943195e-08,
93, 1.02069306e-07,
94, 1.04468955e-07,
95, 1.03180593e-07,
96, 1.04040733e-07,
99, 9.57727075e-08,
100, 9.71803828e-08,
101, 9.39452025e-08,
102, 9.57287251e-08,
103, 9.56086426e-08,
105, 4.02877257e-09,
106, 1.03244945e-07,
107, 1.04127971e-07,
108, 1.02166206e-07,
109, 1.04545816e-07,
110, 1.04474249e-07,
111, 1.00713291e-07,
112, 9.90911527e-08,
113, 9.72226366e-08,
114, 9.56859983e-08,
116, 9.16254130e-08,
117, 5.23149188e-09,
119, 9.53360097e-08,
120, 9.36323103e-08,
122, 4.64270153e-09,
125, 5.18699629e-09,
127, 9.11445139e-08,
128, 8.85992858e-08,
129, 5.65672190e-09,
130, 9.57080134e-08,
137, 5.66460323e-09,
141, 9.28387753e-08,
142, 5.71178451e-09,
147, 8.80357403e-08,
148, 8.46399838e-08,
149, 5.28035821e-09,
153, 9.63345312e-08,
155, 9.86738960e-08,
156, 8.88291669e-08,
157, 9.31543298e-08,
158, 7.93678209e-08,
159, 2.15368511e-08,
160, 6.26724156e-09,
161, 8.40248328e-08,
162, 1.01273503e-07,
163, 4.08408400e-08,
164, 5.02992425e-09,
165, 6.17537224e-09,
166, 2.20820604e-08,
167, 5.10413205e-09,
168, 7.89714894e-08,
169, 7.19079593e-08,
170, 9.64122235e-08,
171, 9.90588705e-08,
172, 1.34857421e-08,
173, 8.94158004e-08,
174, 1.01070848e-07,
175, 1.04479363e-07,
176, 1.03267318e-07,
177, 9.38521791e-08,
178, 8.31450966e-08,
179, 4.30714566e-08,
180, 5.92683497e-08,
182, 1.02774401e-07,
183, 1.04960569e-07,
185, 4.43668228e-08,
186, 1.03952325e-07,
187, 1.01110471e-07,
188, 9.89371206e-08,
189, 7.22232535e-08,
190, 2.23409343e-08,
191, 3.34309837e-08,
192, 1.04345082e-07,
193, 8.44234701e-08,
194, 9.71569619e-08,
195, 9.04430282e-08,
196, 9.26755615e-08,
197, 8.76168875e-08,
199, 6.14402002e-08,
200, 7.98806108e-08,
201, 9.46613967e-08,
203, 5.43014966e-08,
205, 6.28392524e-08,
209, 8.50551044e-08,
210, 9.07694036e-08,
211, 8.09829955e-08,
212, 1.02548856e-07,
213, 7.16314327e-08,
216, 8.81367805e-08,
217, 9.63085172e-08,
218, 9.29226436e-08,
219, 9.38937820e-08,
220, 9.18635495e-08,
221, 8.95123870e-08,
222, 7.55578563e-08,
223, 1.00838196e-07,
224, 1.03443167e-07,
225, 1.03787505e-07,
228, 8.66179523e-08,
229, 9.95713151e-08,
230, 8.31678758e-08,
231, 7.84143866e-08,
233, 9.48045977e-08,
234, 9.77380019e-08,
236, 9.56113847e-08,
237, 6.83012091e-08,
239, 1.03056772e-07,
240, 1.02167735e-07,
248, 1.02917800e-07,
250, 7.26530911e-08,
252, 9.63853842e-08,
253, 9.70845247e-08,
264, 1.01239620e-07,
267, 9.89294493e-08,
274, 9.99214631e-08,
275, 9.77500048e-08,
278, 9.83329926e-08,
299, 1.00709664e-07,
300, 9.93852766e-08,
301, 9.98282013e-08,
302, 9.88843974e-08,
305, 1.02105173e-07,
316, 1.02116938e-07,
320, 1.00229695e-07,
321, 1.01270487e-07,
324, 1.00573410e-07,
344, 1.01632861e-07,
345, 1.00863638e-07,
346, 1.01103185e-07,
371, 1.01582721e-07,
372, 1.01726303e-07,
373, 1.01718606e-07,
385, 1.01293802e-07,
397, 1.01433487e-07,
398, 1.01257207e-07,
399, 1.01401315e-07,
427, 1.01496201e-07,
428, 1.01463711e-07,
429, 1.01534779e-07,
430, 1.01522804e-07,
431, 1.01530952e-07,
456, 1.01325949e-07,
1680, 5.33838224e-10,
1681, 8.36325417e-10,
1682, 6.45405177e-10,
1683, 5.39723714e-10,
1684, 5.44445371e-10,
1685, 6.29108802e-10,
1686, 8.15733972e-10,
1687, 1.07855117e-09,
1688, 5.61803333e-10,
1689, 6.14753392e-10,
1690, 6.05623932e-10,
1691, 1.32717749e-09,
1692, 1.07003040e-09,
1693, 5.36249058e-10,
1694, 5.19184685e-10,
1695, 5.80600554e-10,
1697, 7.13249168e-10,
1698, 6.37666349e-10,
1699, 1.32368373e-09,
1700, 1.33615635e-09,
1701, 9.63290160e-10,
1702, 1.53259664e-09,
1705, 7.55700456e-10,
1708, 8.91061939e-10,
1709, 1.28331393e-09,
1711, 1.45634739e-09,
1712, 1.70256239e-09,
1713, 1.73015394e-09,
1714, 1.03069697e-07,
1715, 1.03810839e-07,
1716, 1.27607336e-09,
1717, 9.40328456e-10,
1719, 1.01945056e-07,
1720, 1.00523308e-07,
1721, 1.57698505e-09,
1722, 1.85116734e-09,
1723, 1.21663010e-09,
1724, 2.03612232e-09,
1725, 1.46349763e-09,
1726, 1.00583434e-07,
1727, 9.88093346e-08,
1728, 1.02030304e-07,
1730, 1.03178669e-07,
1731, 1.03934581e-07,
1732, 9.88374210e-08,
1733, 1.77289005e-09,
1735, 1.79295126e-09,
1736, 2.28918809e-09,
1737, 1.04045711e-07,
1738, 1.03280018e-07,
1739, 1.02108142e-07,
1740, 9.69052223e-08,
1741, 1.00647828e-07,
1742, 9.68955493e-08,
1743, 9.88773470e-08,
1745, 2.25887463e-09,
1746, 9.69056374e-08,
1748, 1.95325100e-09,
1749, 9.31739091e-08,
1750, 2.84207096e-09,
1752, 9.49405616e-08,
1753, 3.34197399e-09,
1754, 9.69432605e-08,
1755, 9.48291638e-08,
1756, 9.89272379e-08,
1757, 9.48864096e-08,
1758, 1.00713088e-07,
1759, 1.04438354e-07,
1760, 1.04137321e-07,
1761, 1.02169899e-07,
1762, 1.03364156e-07,
1765, 9.31025769e-08,
1766, 9.47794295e-08,
1767, 9.10384225e-08,
1768, 9.30154190e-08,
1769, 9.28601284e-08,
1771, 3.37073067e-09,
1772, 1.02211546e-07,
1773, 1.03431304e-07,
1774, 1.00777780e-07,
1775, 1.04208358e-07,
1776, 9.89818335e-08,
1777, 9.70058769e-08,
1778, 9.47839244e-08,
1779, 9.29439063e-08,
1781, 8.84395386e-08,
1782, 4.30672801e-09,
1784, 9.25769292e-08,
1785, 9.05829004e-08,
1787, 3.85349258e-09,
1790, 4.27128055e-09,
1792, 8.77779579e-08,
1793, 8.51091005e-08,
1794, 4.58158860e-09,
1795, 9.28784680e-08,
1801, 4.61333570e-09,
1805, 8.95312505e-08,
1806, 4.61442664e-09,
1810, 8.43322904e-08,
1811, 8.08468960e-08,
1812, 4.19178055e-09,
1816, 9.34085271e-08,
1818, 9.62755660e-08,
1819, 8.49898604e-08,
1820, 8.96698812e-08,
1821, 7.52642597e-08,
1822, 1.93621270e-08,
1823, 5.25602259e-09,
1824, 7.99518754e-08,
1825, 9.95427376e-08,
1826, 3.69829575e-08,
1827, 3.90281997e-09,
1828, 4.95021517e-09,
1829, 1.04749609e-07,
1830, 1.95712330e-08,
1831, 4.01053372e-09,
1832, 7.44704881e-08,
1833, 6.74853928e-08,
1834, 9.33833624e-08,
1835, 9.65853640e-08,
1836, 1.14945913e-08,
1837, 8.54060478e-08,
1838, 9.91639802e-08,
1839, 1.03879824e-07,
1840, 1.02099580e-07,
1841, 9.04187593e-08,
1842, 7.86560945e-08,
1843, 3.87828726e-08,
1844, 5.44063553e-08,
1846, 1.01416249e-07,
1848, 3.97925929e-08,
1849, 1.03137997e-07,
1850, 9.91381600e-08,
1851, 9.63803994e-08,
1852, 6.71759176e-08,
1853, 1.94762501e-08,
1854, 2.96220678e-08,
1855, 1.03919777e-07,
1856, 7.99272077e-08,
1857, 9.42592754e-08,
1858, 8.65443172e-08,
1859, 8.90912247e-08,
1860, 8.34188829e-08,
1862, 5.63286752e-08,
1863, 7.51207392e-08,
1864, 9.13623414e-08,
1866, 4.92931185e-08,
1868, 5.76142875e-08,
1872, 8.06073278e-08,
1873, 8.69258380e-08,
1874, 7.62451433e-08,
1875, 1.01115411e-07,
1876, 6.65153321e-08,
1879, 8.39908026e-08,
1880, 9.33057032e-08,
1881, 8.93844782e-08,
1882, 9.04958087e-08,
1883, 8.81756914e-08,
1884, 8.55174615e-08,
1885, 7.05690668e-08,
1886, 9.88025521e-08,
1887, 1.02528539e-07,
1888, 1.03163366e-07,
1891, 8.23214154e-08,
1892, 9.72912833e-08,
1893, 7.85750736e-08,
1894, 7.35498314e-08,
1897, 9.15513579e-08,
1898, 9.50457454e-08,
1900, 9.25050650e-08,
1901, 6.31039246e-08,
1902, 1.02648095e-07,
1903, 1.00672961e-07,
1908, 1.01924248e-07,
1910, 6.75431848e-08,
1912, 9.34307501e-08,
1913, 9.42840994e-08,
1923, 1.02391321e-07,
1924, 9.95547556e-08,
1927, 9.65560479e-08,
1931, 9.78616318e-08,
1932, 9.51036403e-08,
1935, 9.58422091e-08,
1948, 9.89582735e-08,
1949, 9.71996545e-08,
1950, 9.78011996e-08,
1951, 9.65474491e-08,
1954, 1.01006440e-07,
1961, 1.01604964e-07,
1962, 1.01770910e-07,
1964, 9.83528089e-08,
1965, 9.98237236e-08,
1966, 9.88493733e-08,
1969, 1.00490770e-07,
1970, 9.92881768e-08,
1971, 9.96809142e-08,
1979, 1.01313259e-07,
1980, 1.01426231e-07,
1981, 1.00888998e-07,
1982, 1.01175984e-07,
1988, 1.00024085e-07,
1993, 1.00310600e-07,
1994, 1.01137451e-07,
1999, 1.00519482e-07,
2000, 1.01060547e-07,
2001, 1.00859922e-07,
2002, 1.00986872e-07,
2003, 1.00708440e-07,
2006, 1.01191574e-07,
-1,0.,
1,701,1,
VON_MISES
0.,-1.,0.,
701,0,0,0,0,0,0,0,0,0,
0,0,0,0,0,0,0,0,0,0,
0,0,3,8,
0,1,1,
949, 4.83666944e+05,
950, 2.96851999e+05,
951, 4.60088517e+05,
952, 5.31691582e+05,
953, 1.12104244e+05,
954, 4.96389110e+05,
955, 4.93547713e+05,
956, 4.28566327e+05,
957, 1.85176483e+05,
958, 1.01001568e+05,
959, 1.93165399e+05,
960, 1.18942413e+05,
961, 3.79242379e+05,
962, 3.65131669e+05,
963, 3.19916121e+05,
964, 2.05012244e+05,
965, 3.24167819e+05,
966, 3.82652451e+04,
967, 5.61082310e+04,
968, 3.64821773e+05,
969, 3.60882475e+05,
970, 2.79755068e+05,
971, 2.65244888e+05,
972, 1.07060244e+05,
973, 1.80762943e+05,
974, 1.63564282e+05,
975, 1.23217495e+05,
976, 3.18447747e+05,
977, 4.54754133e+05,
978, 3.01577918e+05,
979, 4.49745787e+05,
980, 1.10078820e+05,
981, 4.31882738e+05,
982, 9.46860665e+04,
983, 5.51959299e+05,
984, 3.99348053e+04,
985, 1.95348105e+05,
986, 3.41788662e+05,
987, 6.57150629e+04,
988, 6.80922396e+04,
989, 3.14511933e+04,
990, 3.36781374e+04,
991, 4.60454367e+04,
992, 5.77060251e+04,
993, 1.02187868e+05,
994, 8.90035405e+04,
995, 8.74472804e+04,
996, 5.10159981e+04,
997, 7.92902378e+05,
998, 8.12399675e+05,
999, 1.41113487e+06,
1000, 6.66686047e+05,
1001, 7.25842801e+05,
1002, 3.22499035e+06,
1003, 1.76124379e+06,
1004, 3.73339792e+04,
1005, 4.18941559e+04,
1006, 4.12277637e+04,
1007, 1.67871356e+06,
1008, 3.63734175e+04,
1009, 1.70007024e+06,
1010, 1.93671455e+06,
1011, 1.80023131e+06,
1012, 2.25207666e+04,
1013, 5.28914079e+04,
1014, 4.10904270e+04,
1015, 1.77999453e+06,
1016, 1.12427638e+06,
1017, 2.44399014e+04,
1018, 6.06801884e+04,
1019, 1.51084705e+04,
1020, 2.22133730e+04,
1021, 1.43617237e+04,
1022, 2.88683692e+04,
1023, 2.91143028e+04,
1024, 3.41857422e+04,
1025, 3.10000349e+04,
1026, 5.31567099e+04,
1027, 4.19099995e+04,
1028, 3.60016417e+04,
1029, 1.97771768e+06,
1030, 1.96235978e+06,
1031, 1.76617661e+06,
1032, 3.66750507e+04,
1033, 2.36546238e+04,
1034, 4.90463180e+04,
1035, 3.06132225e+04,
1036, 3.63130019e+04,
1037, 1.59174507e+04,
1038, 3.93362472e+04,
1039, 4.60384310e+04,
1040, 4.07055419e+04,
1041, 3.04159908e+04,
1042, 3.51073921e+04,
1043, 2.07863844e+04,
1044, 3.52629476e+04,
1045, 6.77388059e+05,
1046, 4.17535168e+04,
1047, 6.37642820e+05,
1048, 6.56223719e+05,
1049, 7.58307648e+05,
1050, 3.25371376e+05,
1051, 1.74951681e+05,
1052, 1.89465298e+05,
1053, 1.62602830e+05,
1054, 2.94494763e+05,
1055, 1.16316144e+05,
1056, 2.29240997e+05,
1057, 1.11424455e+05,
1058, 2.69627327e+05,
1059, 2.84509400e+05,
1060, 3.07826782e+05,
1061, 2.95562840e+05,
1062, 2.94568013e+05,
1063, 1.60527325e+05,
1064, 8.66082726e+04,
1065, 2.89289541e+05,
1066, 2.88597560e+05,
1067, 2.49093417e+05,
1068, 1.11436977e+04,
1069, 7.27920402e+04,
1070, 2.93675456e+05,
1071, 3.00176127e+05,
1072, 6.58333019e+04,
1073, 3.43501456e+04,
1074, 4.00581465e+05,
1075, 1.40388830e+05,
1076, 3.88495217e+05,
1077, 3.83757336e+05,
1078, 3.49889972e+05,
1079, 1.80959795e+04,
1080, 1.45710953e+05,
1081, 4.78680141e+04,
1082, 2.53027374e+05,
1083, 2.73901570e+05,
1084, 2.96280101e+05,
1085, 2.81355911e+05,
1086, 2.85271137e+05,
1087, 1.63392725e+05,
1088, 2.90064907e+05,
1089, 3.57414299e+04,
1090, 1.03049249e+05,
1091, 6.01173925e+04,
1092, 2.44264418e+05,
1093, 2.81373695e+05,
1094, 2.77875192e+05,
1095, 2.46563901e+05,
1096, 6.62410177e+04,
1097, 2.70499357e+05,
1098, 2.69031648e+05,
1099, 2.71024473e+05,
1100, 2.52539613e+05,
1101, 2.60739941e+05,
1102, 1.92548690e+05,
1103, 2.88318610e+05,
1104, 2.73892901e+05,
1105, 2.76526657e+05,
1106, 1.71231709e+05,
1107, 2.66048302e+05,
1108, 7.92574319e+04,
1109, 1.86509429e+04,
1110, 4.56584037e+04,
1111, 1.04352336e+05,
1112, 2.10236658e+04,
1113, 6.86060777e+04,
1114, 1.05810119e+05,
1115, 2.55535527e+05,
1116, 2.54756610e+05,
1117, 1.86180559e+05,
1118, 2.48576274e+05,
1119, 2.58071643e+05,
1120, 2.57118740e+05,
1121, 2.51306334e+05,
1122, 2.42695744e+05,
1123, 9.83102937e+04,
1124, 2.51259170e+05,
1125, 2.42992985e+05,
1126, 2.37664046e+05,
1127, 2.39749483e+05,
1128, 8.68584737e+04,
1129, 7.77864608e+04,
1130, 1.41613952e+05,
1131, 2.32547517e+05,
1132, 2.39695267e+05,
1133, 3.05829623e+05,
1134, 4.32765528e+04,
1135, 1.27375399e+04,
1136, 2.27644701e+04,
1137, 2.61406874e+05,
1138, 3.21705124e+05,
1139, 3.14301340e+05,
1140, 2.10129298e+04,
1141, 1.64758673e+04,
1142, 3.05963536e+04,
1143, 2.10310138e+04,
1144, 2.28982068e+04,
1145, 1.77454691e+04,
1146, 1.27294111e+04,
1147, 1.95228456e+04,
1148, 1.75377631e+04,
1149, 7.43762697e+04,
1150, 7.44033597e+04,
1151, 1.95113470e+04,
1152, 1.94619427e+04,
1153, 1.94469156e+04,
1154, 2.05866309e+04,
1155, 1.67866459e+04,
1156, 2.78529855e+05,
1157, 8.14160589e+04,
1158, 1.62863719e+05,
1159, 3.37504631e+05,
1160, 1.53342572e+05,
1161, 3.36282315e+05,
1162, 3.26908461e+05,
1163, 3.08187041e+05,
1164, 5.38504077e+04,
1165, 1.55621657e+05,
1166, 1.05285182e+05,
1167, 5.78425098e+04,
1168, 2.41277308e+05,
1169, 1.98280556e+04,
1170, 1.68808789e+06,
1171, 2.20454426e+06,
1172, 6.50729340e+05,
1173, 1.21168577e+06,
1174, 1.07215233e+06,
1175, 1.03259932e+06,
1176, 2.15721686e+06,
1177, 7.77549895e+05,
1178, 7.89694334e+05,
1179, 3.23322520e+04,
1180, 2.36031320e+04,
1181, 3.78453162e+04,
1182, 7.27338815e+04,
1183, 9.15920373e+04,
1184, 8.74405747e+04,
1185, 7.73415119e+04,
1186, 6.85866859e+05,
1187, 2.11134623e+05,
1188, 1.99899120e+05,
1189, 1.54186136e+05,
1190, 5.81487672e+05,
1191, 8.16956240e+05,
1192, 6.74110545e+05,
1193, 1.44761823e+06,
1194, 8.78488828e+05,
1195, 5.22455643e+05,
1196, 8.19624268e+05,
1197, 9.01251692e+05,
1198, 7.43939990e+04,
1199, 1.57574215e+05,
1200, 3.03518659e+05,
1201, 8.93689520e+04,
1202, 4.14549183e+04,
1203, 1.23577790e+05,
1204, 1.06136100e+05,
1205, 1.06071062e+05,
1206, 1.35465600e+04,
1207, 1.08772638e+05,
1208, 8.07017202e+04,
1209, 1.07936006e+05,
1210, 1.03527681e+05,
1211, 1.01874888e+05,
1212, 1.37678518e+05,
1213, 1.56982015e+04,
1214, 4.00983880e+04,
1215, 1.87154159e+05,
1216, 7.83239010e+04,
1217, 1.25070800e+05,
1218, 5.75941850e+04,
1219, 7.58465651e+04,
1220, 5.17007789e+04,
1221, 1.04333152e+05,
1222, 9.76670922e+04,
1223, 1.01470734e+05,
1224, 1.06289442e+05,
1225, 8.39414084e+04,
1226, 9.17926410e+04,
1227, 9.53146219e+04,
1228, 9.18206971e+04,
1229, 1.04824684e+05,
1230, 1.08609336e+05,
1231, 9.46113536e+04,
1232, 1.10213971e+05,
1233, 8.91397534e+04,
1234, 1.15348734e+05,
1235, 1.12887762e+05,
1236, 1.24055921e+05,
1237, 9.93941830e+04,
1238, 1.14370125e+05,
1239, 9.34551416e+04,
1240, 1.14569649e+05,
1241, 8.05045546e+04,
1242, 1.50529833e+05,
1243, 1.47501810e+05,
1244, 1.73415411e+05,
1245, 1.21752314e+05,
1246, 1.21543791e+05,
1247, 1.42644338e+05,
1248, 1.37873639e+05,
1249, 1.61514564e+05,
1250, 1.21457827e+05,
1251, 1.25338229e+05,
1252, 9.64465039e+04,
1253, 9.50533367e+04,
1254, 1.30803781e+05,
1255, 1.27320528e+05,
1256, 1.46306201e+05,
1257, 1.03483561e+05,
1258, 1.21651528e+05,
1259, 9.71243491e+04,
1260, 1.01843995e+05,
1261, 7.27086353e+04,
1262, 1.50025295e+05,
1263, 1.49557996e+05,
1264, 1.77860829e+05,
1817, 2.54916225e+04,
1818, 2.18884599e+04,
1819, 2.16461502e+04,
1820, 2.15277701e+04,
1821, 2.34063672e+04,
1822, 2.14944836e+04,
1823, 2.04956210e+04,
1824, 2.28370716e+04,
1825, 2.29401887e+04,
1826, 2.48814439e+04,
1827, 2.35456992e+04,
1828, 2.22613186e+04,
1829, 2.29526953e+04,
1830, 2.24974673e+04,
1831, 2.17547980e+04,
3254, 4.77757856e+05,
3255, 2.94803442e+05,
3256, 4.55350780e+05,
3257, 5.25097704e+05,
3258, 1.11002671e+05,
3259, 4.91049679e+05,
3260, 4.87279458e+05,
3261, 4.24018196e+05,
3262, 1.80598579e+05,
3263, 9.63877018e+04,
3264, 1.87733038e+05,
3265, 1.17581712e+05,
3266, 3.77138966e+05,
3267, 3.63768176e+05,
3268, 3.15743753e+05,
3269, 1.97151472e+05,
3270, 3.22005597e+05,
3271, 4.01314347e+04,
3272, 5.62686605e+04,
3273, 3.62033250e+05,
3274, 3.60130790e+05,
3275, 2.79004522e+05,
3276, 2.60234212e+05,
3277, 1.03957916e+05,
3278, 1.76051504e+05,
3279, 1.60199849e+05,
3280, 1.24136123e+05,
3281, 3.15962385e+05,
3282, 4.49538494e+05,
3283, 2.99069402e+05,
3284, 4.45835388e+05,
3285, 1.09567366e+05,
3286, 4.18872072e+05,
3287, 9.27605916e+04,
3288, 5.29784272e+05,
3289, 4.27680110e+04,
3290, 2.03767876e+05,
3291, 3.34071073e+05,
3292, 6.68999135e+04,
3293, 4.88709275e+04,
3294, 2.65239754e+04,
3295, 2.73378020e+04,
3296, 3.81536580e+04,
3297, 4.47704687e+04,
3298, 8.30721331e+04,
3299, 7.30740137e+04,
3300, 6.88558909e+04,
3301, 3.76305114e+04,
3302, 8.27826970e+05,
3303, 8.39816402e+05,
3304, 1.38584130e+06,
3305, 6.16499813e+05,
3306, 7.14885152e+05,
3307, 3.08358940e+06,
3308, 1.75098152e+06,
3309, 3.06714101e+04,
3310, 3.26110403e+04,
3311, 3.20412474e+04,
3312, 1.66444795e+06,
3313, 3.30428520e+04,
3314, 1.69387330e+06,
3315, 1.92280991e+06,
3316, 1.79866336e+06,
3317, 1.98788217e+04,
3318, 4.83237975e+04,
3319, 3.66338862e+04,
3320, 1.73434675e+06,
3321, 1.14751697e+06,
3322, 2.33860347e+04,
3323, 5.55696408e+04,
3324, 1.55505880e+04,
3325, 2.05595296e+04,
3326, 1.48872801e+04,
3327, 2.58180370e+04,
3328, 2.66004582e+04,
3329, 3.21131711e+04,
3330, 2.61398618e+04,
3331, 4.83652066e+04,
3332, 3.43013347e+04,
3333, 3.25351497e+04,
3334, 1.86255631e+06,
3335, 1.94901564e+06,
3336, 1.85122639e+06,
3337, 3.46793440e+04,
3338, 2.03921078e+04,
3339, 4.41545121e+04,
3340, 2.75508595e+04,
3341, 3.20058952e+04,
3342, 1.43133788e+04,
3343, 3.35144616e+04,
3344, 3.89841687e+04,
3345, 3.68618803e+04,
3346, 2.71984141e+04,
3347, 3.16277045e+04,
3348, 1.80145500e+04,
3349, 3.13127247e+04,
3350, 6.65819055e+05,
3351, 4.23015582e+04,
3352, 6.27825615e+05,
3353, 6.46038020e+05,
3354, 7.44526823e+05,
3355, 3.21790220e+05,
3356, 1.71405924e+05,
3357, 1.84697659e+05,
3358, 1.58019044e+05,
3359, 2.93224892e+05,
3360, 1.13082333e+05,
3361, 2.24872004e+05,
3362, 1.08331003e+05,
3363, 2.68156764e+05,
3364, 2.85602827e+05,
3365, 3.08700189e+05,
3366, 2.95772294e+05,
3367, 2.95016163e+05,
3368, 1.59420374e+05,
3369, 8.48868125e+04,
3370, 2.90264347e+05,
3371, 2.89661275e+05,
3372, 2.49238365e+05,
3373, 1.30472796e+04,
3374, 7.16336864e+04,
3375, 2.93191698e+05,
3376, 3.01933107e+05,
3377, 6.68220252e+04,
3378, 3.45408948e+04,
3379, 3.99382912e+05,
3380, 1.37502496e+05,
3381, 3.88753878e+05,
3382, 3.81823280e+05,
3383, 3.48251242e+05,
3384, 1.59100696e+04,
3385, 1.45796359e+05,
3386, 4.65979584e+04,
3387, 2.52415513e+05,
3388, 2.75403843e+05,
3389, 2.98169189e+05,
3390, 2.82614323e+05,
3391, 2.86599345e+05,
3392, 1.63657039e+05,
3393, 2.91501590e+05,
3394, 3.42096966e+04,
3395, 1.04860022e+05,
3396, 5.96742379e+04,
3397, 2.45609415e+05,
3398, 2.83192321e+05,
3399, 2.79520377e+05,
3400, 2.47746502e+05,
3401, 6.54343969e+04,
3402, 2.71458628e+05,
3403, 2.71516623e+05,
3404, 2.73138774e+05,
3405, 2.53385333e+05,
3406, 2.63835356e+05,
3407, 1.89346289e+05,
3408, 2.90301102e+05,
3409, 2.75451860e+05,
3410, 2.78106804e+05,
3411, 1.71017038e+05,
3412, 2.68272371e+05,
3413, 7.78007552e+04,
3414, 1.47647779e+04,
3415, 4.33620012e+04,
3416, 1.04040182e+05,
3417, 2.31499070e+04,
3418, 6.73201587e+04,
3419, 1.07103190e+05,
3420, 2.57159820e+05,
3421, 2.55266324e+05,
3422, 1.85199408e+05,
3423, 2.50974250e+05,
3424, 2.62077424e+05,
3425, 2.59565316e+05,
3426, 2.54249374e+05,
3427, 2.44293295e+05,
3428, 9.89893870e+04,
3429, 2.54111844e+05,
3430, 2.43827862e+05,
3431, 2.38478893e+05,
3432, 2.40304155e+05,
3433, 8.85978671e+04,
3434, 7.83859258e+04,
3435, 1.40726737e+05,
3436, 2.32696113e+05,
3437, 2.40077313e+05,
3438, 3.05151423e+05,
3439, 4.22094693e+04,
3440, 1.15453051e+04,
3441, 1.94479604e+04,
3442, 2.61022409e+05,
3443, 3.19914216e+05,
3444, 3.12018039e+05,
3445, 2.00741614e+04,
3446, 1.61245828e+04,
3447, 2.78896039e+04,
3448, 1.88934793e+04,
3449, 2.17959482e+04,
3450, 1.76590657e+04,
3451, 1.17191720e+04,
3452, 1.97630377e+04,
3453, 1.69747961e+04,
3454, 7.50182198e+04,
3455, 7.41878071e+04,
3456, 1.77753575e+04,
3457, 1.89530835e+04,
3458, 1.89797340e+04,
3459, 2.01366992e+04,
3460, 1.60266610e+04,
3461, 2.79557346e+05,
3462, 7.97748958e+04,
3463, 1.62436114e+05,
3464, 3.34801099e+05,
3465, 1.53594156e+05,
3466, 3.33141312e+05,
3467, 3.24627981e+05,
3468, 3.06093358e+05,
3469, 5.22812254e+04,
3470, 1.54727840e+05,
3471, 1.06892645e+05,
3472, 5.88045368e+04,
3473, 2.41894829e+05,
3474, 1.66849038e+06,
3475, 2.08347107e+06,
3476, 7.30317333e+05,
3477, 1.17535309e+06,
3478, 1.04928644e+06,
3479, 1.00820713e+06,
3480, 2.06652855e+06,
3481, 7.64214620e+05,
3482, 7.72331297e+05,
3483, 2.66583040e+04,
3484, 2.05810436e+04,
3485, 3.08615182e+04,
3486, 5.73028986e+04,
3487, 7.49296702e+04,
3488, 6.76128745e+04,
3489, 5.92595428e+04,
3490, 6.80141955e+05,
3491, 2.06187274e+05,
3492, 1.98007310e+05,
3493, 1.51858083e+05,
3494, 5.73763047e+05,
3495, 8.01286085e+05,
3496, 6.66217817e+05,
3497, 1.40517541e+06,
3498, 8.41557832e+05,
3499, 5.18041481e+05,
3500, 8.03568440e+05,
3501, 8.80621304e+05,
3502, 7.32761498e+04,
3503, 1.57165503e+05,
3504, 3.03594892e+05,
3505, 8.89993092e+04,
3506, 3.99621694e+04,
3507, 1.25410838e+05,
3508, 1.07238997e+05,
3509, 1.07593202e+05,
3510, 1.31734875e+04,
3511, 1.09757871e+05,
3512, 8.17822874e+04,
3513, 1.09286084e+05,
3514, 1.04632816e+05,
3515, 1.02464415e+05,
3516, 1.35709462e+05,
3517, 1.54469704e+04,
3518, 3.91763023e+04,
3519, 1.84050114e+05,
3520, 7.71878949e+04,
3521, 1.26797417e+05,
3522, 5.79584569e+04,
3523, 7.71867596e+04,
3524, 5.21887249e+04,
3525, 1.05597492e+05,
3526, 9.86801167e+04,
3527, 1.02366438e+05,
3528, 1.07190332e+05,
3529, 8.55146244e+04,
3530, 9.24854629e+04,
3531, 9.62699930e+04,
3532, 9.25228549e+04,
3533, 1.05562459e+05,
3534, 1.09403414e+05,
3535, 9.56443301e+04,
3536, 1.11068555e+05,
3537, 8.86900772e+04,
3538, 1.16127121e+05,
3539, 1.13705380e+05,
3540, 1.24936999e+05,
3541, 1.00495132e+05,
3542, 1.15236348e+05,
3543, 9.40684632e+04,
3544, 1.15369264e+05,
3545, 8.13239335e+04,
3546, 1.50955077e+05,
3547, 1.47755791e+05,
3548, 1.74030573e+05,
3549, 1.22147606e+05,
3550, 1.21657585e+05,
3551, 1.43309072e+05,
3552, 1.38529895e+05,
3553, 1.62320048e+05,
3554, 1.21405862e+05,
3555, 1.25524592e+05,
3556, 9.72775856e+04,
3557, 9.51685970e+04,
3558, 1.31620848e+05,
3559, 1.28031414e+05,
3560, 1.47162523e+05,
3561, 1.03480833e+05,
3562, 1.22177302e+05,
3563, 9.71838610e+04,
3564, 1.02207206e+05,
3565, 7.25253635e+04,
3566, 1.50155170e+05,
3567, 1.49766662e+05,
3568, 1.78266012e+05,
-1,0.,
   -1
