# vtk DataFile Version 3.0
eMachineSim mesh
ASCII
DATASET UNSTRUCTURED_GRID
POINTS 431 double
0.000000000000000e+00 0.000000000000000e+00 0.000000000000000e+00
0.000000000000000e+00 4.000000000000000e-03 0.000000000000000e+00
2.000000000000000e-03 3.464100000000000e-03 0.000000000000000e+00
3.464100000000000e-03 2.000000000000000e-03 0.000000000000000e+00
4.000000000000000e-03 0.000000000000000e+00 0.000000000000000e+00
0.000000000000000e+00 6.300000000000000e-03 0.000000000000000e+00
5.455960000000000e-03 3.150000000000000e-03 0.000000000000000e+00
3.150000000000000e-03 5.455960000000000e-03 0.000000000000000e+00
6.300000000000000e-03 0.000000000000000e+00 0.000000000000000e+00
0.000000000000000e+00 8.000000000000000e-03 0.000000000000000e+00
8.000000000000000e-03 0.000000000000000e+00 0.000000000000000e+00
4.000000000000000e-03 6.928200000000000e-03 0.000000000000000e+00
6.928200000000000e-03 4.000000000000000e-03 0.000000000000000e+00
5.935420000000000e-03 7.735200000000000e-03 0.000000000000000e+00
0.000000000000000e+00 9.400000000000000e-03 0.000000000000000e+00
2.329370000000000e-03 8.693330000000001e-03 0.000000000000000e+00
4.875000000000000e-03 8.443750000000000e-03 0.000000000000000e+00
2.976420000000000e-03 9.608149999999999e-03 0.000000000000000e+00
1.915760000000000e-03 1.004750000000000e-02 0.000000000000000e+00
0.000000000000000e+00 1.100000000000000e-02 0.000000000000000e+00
7.000760000000000e-03 9.123559999999999e-03 0.000000000000000e+00
4.037080000000000e-03 1.004750000000000e-02 0.000000000000000e+00
5.750000000000000e-03 9.959290000000001e-03 0.000000000000000e+00
8.131730000000000e-03 8.131730000000000e-03 0.000000000000000e+00
0.000000000000000e+00 1.250000000000000e-02 0.000000000000000e+00
1.476420000000000e-03 1.110810000000000e-02 0.000000000000000e+00
8.285080000000000e-03 1.009970000000000e-02 0.000000000000000e+00
7.377780000000000e-03 1.100700000000000e-02 0.000000000000000e+00
4.476420000000000e-03 1.110810000000000e-02 0.000000000000000e+00
6.470470000000000e-03 1.191430000000000e-02 0.000000000000000e+00
1.089450000000000e-03 1.245240000000000e-02 0.000000000000000e+00
1.915760000000000e-03 1.216880000000000e-02 0.000000000000000e+00
4.037080000000000e-03 1.216880000000000e-02 0.000000000000000e+00
0.000000000000000e+00 1.380000000000000e-02 0.000000000000000e+00
5.563160000000000e-03 1.282160000000000e-02 0.000000000000000e+00
4.525480000000000e-03 1.272790000000000e-02 0.000000000000000e+00
2.976420000000000e-03 1.260810000000000e-02 0.000000000000000e+00
1.920590000000000e-03 1.366570000000000e-02 0.000000000000000e+00
8.007400000000000e-04 1.527900000000000e-02 0.000000000000000e+00
0.000000000000000e+00 1.530000000000000e-02 0.000000000000000e+00
9.270179999999999e-03 9.270179999999999e-03 0.000000000000000e+00
7.455570000000000e-03 1.108480000000000e-02 0.000000000000000e+00
8.362870000000000e-03 1.017750000000000e-02 0.000000000000000e+00
3.299830000000000e-03 1.395360000000000e-02 0.000000000000000e+00
4.655860000000000e-03 1.372890000000000e-02 0.000000000000000e+00
6.548260000000000e-03 1.199210000000000e-02 0.000000000000000e+00
5.640950000000000e-03 1.289940000000000e-02 0.000000000000000e+00
2.074180000000000e-03 1.517920000000000e-02 0.000000000000000e+00
8.485280000000000e-04 1.640490000000000e-02 0.000000000000000e+00
3.748550000000000e-03 1.463620000000000e-02 0.000000000000000e+00
0.000000000000000e+00 1.700000000000000e-02 0.000000000000000e+00
2.841240000000000e-03 1.554350000000000e-02 0.000000000000000e+00
6.043550000000000e-03 1.330290000000000e-02 0.000000000000000e+00
4.733650000000000e-03 1.380670000000000e-02 0.000000000000000e+00
6.950970000000000e-03 1.239550000000000e-02 0.000000000000000e+00
9.673230000000000e-03 9.673230000000000e-03 0.000000000000000e+00
7.858390000000000e-03 1.148810000000000e-02 0.000000000000000e+00
8.765810000000001e-03 1.058060000000000e-02 0.000000000000000e+00
5.136130000000000e-03 1.421030000000000e-02 0.000000000000000e+00
1.845550000000000e-03 1.653920000000000e-02 0.000000000000000e+00
2.199100000000000e-03 1.689280000000000e-02 0.000000000000000e+00
0.000000000000000e+00 1.820000000000000e-02 0.000000000000000e+00
9.207750000000001e-03 1.102260000000000e-02 0.000000000000000e+00
8.300330000000000e-03 1.193000000000000e-02 0.000000000000000e+00
7.392910000000000e-03 1.283740000000000e-02 0.000000000000000e+00
1.011520000000000e-02 1.011520000000000e-02 0.000000000000000e+00
3.826340000000000e-03 1.471400000000000e-02 0.000000000000000e+00
6.485490000000000e-03 1.374490000000000e-02 0.000000000000000e+00
4.228710000000000e-03 1.511780000000000e-02 0.000000000000000e+00
5.578070000000000e-03 1.465230000000000e-02 0.000000000000000e+00
7.500000000000000e-04 1.834190000000000e-02 0.000000000000000e+00
4.670650000000000e-03 1.555970000000000e-02 0.000000000000000e+00
1.474550000000000e-03 1.761730000000000e-02 0.000000000000000e+00
2.011730000000000e-03 1.652860000000000e-02 0.000000000000000e+00
7.500000000000000e-04 1.978320000000000e-02 0.000000000000000e+00
2.919030000000000e-03 1.562130000000000e-02 0.000000000000000e+00
0.000000000000000e+00 2.113330000000000e-02 0.000000000000000e+00
5.112590000000000e-03 1.600160000000000e-02 0.000000000000000e+00
3.763230000000000e-03 1.646710000000000e-02 0.000000000000000e+00
6.020010000000000e-03 1.509420000000000e-02 0.000000000000000e+00
3.321290000000000e-03 1.602520000000000e-02 0.000000000000000e+00
6.927430000000000e-03 1.418680000000000e-02 0.000000000000000e+00
9.649690000000001e-03 1.146450000000000e-02 0.000000000000000e+00
7.834850000000001e-03 1.327940000000000e-02 0.000000000000000e+00
8.742270000000000e-03 1.237200000000000e-02 0.000000000000000e+00
2.434220000000000e-03 1.695110000000000e-02 0.000000000000000e+00
4.205170000000000e-03 1.690910000000000e-02 0.000000000000000e+00
3.250000000000000e-03 1.867030000000000e-02 0.000000000000000e+00
2.856720000000000e-03 1.737360000000000e-02 0.000000000000000e+00
3.279220000000000e-03 1.779610000000000e-02 0.000000000000000e+00
7.500000000000000e-04 2.122440000000000e-02 0.000000000000000e+00
8.238250000000001e-03 1.368210000000000e-02 0.000000000000000e+00
9.145550000000001e-03 1.277480000000000e-02 0.000000000000000e+00
7.330940000000000e-03 1.458940000000000e-02 0.000000000000000e+00
1.005290000000000e-02 1.186750000000000e-02 0.000000000000000e+00
1.096020000000000e-02 1.096020000000000e-02 0.000000000000000e+00
6.423630000000000e-03 1.549670000000000e-02 0.000000000000000e+00
5.516330000000000e-03 1.640400000000000e-02 0.000000000000000e+00
4.609020000000000e-03 1.731130000000000e-02 0.000000000000000e+00
4.350000000000000e-03 1.849530000000000e-02 0.000000000000000e+00
3.250000000000000e-03 2.002590000000000e-02 0.000000000000000e+00
0.000000000000000e+00 2.406670000000000e-02 0.000000000000000e+00
3.701710000000000e-03 1.821860000000000e-02 0.000000000000000e+00
4.350000000000000e-03 1.985400000000000e-02 0.000000000000000e+00
7.500000000000000e-04 2.266570000000000e-02 0.000000000000000e+00
7.500000000000000e-04 2.410700000000000e-02 0.000000000000000e+00
4.350000000000000e-03 2.121270000000000e-02 0.000000000000000e+00
3.250000000000000e-03 2.138140000000000e-02 0.000000000000000e+00
0.000000000000000e+00 2.700000000000000e-02 0.000000000000000e+00
5.176380000000000e-03 1.931850000000000e-02 0.000000000000000e+00
7.500000000000000e-04 2.554830000000000e-02 0.000000000000000e+00
5.322280000000000e-03 2.134650000000000e-02 0.000000000000000e+00
7.500000000000000e-04 2.698960000000000e-02 0.000000000000000e+00
4.350000000000000e-03 2.257130000000000e-02 0.000000000000000e+00
3.250000000000000e-03 2.273700000000000e-02 0.000000000000000e+00
0.000000000000000e+00 2.725000000000000e-02 0.000000000000000e+00
7.017100000000000e-03 2.085090000000000e-02 0.000000000000000e+00
7.004150000000000e-03 1.873340000000000e-02 0.000000000000000e+00
5.398830000000000e-03 2.338490000000000e-02 0.000000000000000e+00
7.016920000000000e-03 2.295130000000000e-02 0.000000000000000e+00
3.250000000000000e-03 2.409260000000000e-02 0.000000000000000e+00
1.583330000000000e-03 2.692760000000000e-02 0.000000000000000e+00
8.939720000000000e-04 2.723530000000000e-02 0.000000000000000e+00
4.350000000000000e-03 2.393000000000000e-02 0.000000000000000e+00
7.607130000000000e-03 1.631350000000000e-02 0.000000000000000e+00
2.416670000000000e-03 2.686570000000000e-02 0.000000000000000e+00
0.000000000000000e+00 2.750000000000000e-02 0.000000000000000e+00
9.597360000000000e-04 2.748320000000000e-02 0.000000000000000e+00
1.786980000000000e-03 2.719130000000000e-02 0.000000000000000e+00
4.799410000000000e-04 2.749580000000000e-02 0.000000000000000e+00
4.350000000000000e-03 2.528860000000000e-02 0.000000000000000e+00
3.250000000000000e-03 2.544810000000000e-02 0.000000000000000e+00
8.600830000000000e-03 2.240590000000000e-02 0.000000000000000e+00
8.666719999999999e-03 2.022100000000000e-02 0.000000000000000e+00
1.439240000000000e-03 2.746230000000000e-02 0.000000000000000e+00
7.221080000000000e-03 2.497710000000000e-02 0.000000000000000e+00
8.767420000000000e-03 1.797590000000000e-02 0.000000000000000e+00
1.116420000000000e-02 1.411950000000000e-02 0.000000000000000e+00
9.449580000000001e-03 1.532010000000000e-02 0.000000000000000e+00
8.999040000000000e-03 2.439300000000000e-02 0.000000000000000e+00
5.405700000000000e-03 2.543180000000000e-02 0.000000000000000e+00
2.678070000000000e-03 2.711810000000000e-02 0.000000000000000e+00
3.250000000000000e-03 2.680370000000000e-02 0.000000000000000e+00
1.045000000000000e-02 1.705280000000000e-02 0.000000000000000e+00
1.414210000000000e-02 1.414210000000000e-02 0.000000000000000e+00
2.874530000000000e-03 2.734940000000000e-02 0.000000000000000e+00
1.203630000000000e-02 1.597270000000000e-02 0.000000000000000e+00
1.026050000000000e-02 1.946080000000000e-02 0.000000000000000e+00
1.014280000000000e-02 2.175140000000000e-02 0.000000000000000e+00
4.350000000000000e-03 2.664730000000000e-02 0.000000000000000e+00
1.918300000000000e-03 2.743300000000000e-02 0.000000000000000e+00
2.396780000000000e-03 2.739540000000000e-02 0.000000000000000e+00
1.355630000000000e-02 1.555630000000000e-02 0.000000000000000e+00
6.560460000000000e-03 2.619080000000000e-02 0.000000000000000e+00
1.073040000000000e-02 2.368250000000000e-02 0.000000000000000e+00
8.427450000000000e-03 2.565110000000000e-02 0.000000000000000e+00
9.345160000000000e-03 2.533120000000000e-02 0.000000000000000e+00
7.498810000000000e-03 2.593780000000000e-02 0.000000000000000e+00
3.566270000000000e-03 2.701560000000000e-02 0.000000000000000e+00
5.613620000000000e-03 2.641000000000000e-02 0.000000000000000e+00
1.025080000000000e-02 2.497840000000000e-02 0.000000000000000e+00
3.351410000000000e-03 2.729500000000000e-02 0.000000000000000e+00
3.827260000000000e-03 2.723240000000000e-02 0.000000000000000e+00
7.117520000000000e-03 2.656300000000000e-02 0.000000000000000e+00
8.953120000000000e-03 2.600180000000000e-02 0.000000000000000e+00
6.186150000000000e-03 2.679520000000000e-02 0.000000000000000e+00
1.178820000000000e-02 1.857520000000000e-02 0.000000000000000e+00
4.450630000000000e-03 2.688410000000000e-02 0.000000000000000e+00
8.040220000000001e-03 2.629840000000000e-02 0.000000000000000e+00
1.114310000000000e-02 2.459330000000000e-02 0.000000000000000e+00
9.855120000000000e-03 2.567350000000000e-02 0.000000000000000e+00
1.030170000000000e-02 2.549760000000000e-02 0.000000000000000e+00
9.405550000000000e-03 2.584150000000000e-02 0.000000000000000e+00
8.497970000000001e-03 2.615410000000000e-02 0.000000000000000e+00
5.247250000000000e-03 2.699470000000000e-02 0.000000000000000e+00
1.163540000000000e-02 2.099090000000000e-02 0.000000000000000e+00
1.323990000000000e-02 1.757000000000000e-02 0.000000000000000e+00
1.414210000000000e-02 1.697060000000000e-02 0.000000000000000e+00
7.580030000000000e-03 2.643470000000000e-02 0.000000000000000e+00
1.240610000000000e-02 2.284920000000000e-02 0.000000000000000e+00
6.652850000000000e-03 2.668310000000000e-02 0.000000000000000e+00
5.717570000000000e-03 2.689910000000000e-02 0.000000000000000e+00
1.074510000000000e-02 2.531390000000000e-02 0.000000000000000e+00
1.202100000000000e-02 2.417640000000000e-02 0.000000000000000e+00
1.118530000000000e-02 2.512250000000000e-02 0.000000000000000e+00
4.301950000000000e-03 2.716140000000000e-02 0.000000000000000e+00
1.555630000000000e-02 1.755630000000000e-02 0.000000000000000e+00
1.307130000000000e-02 2.012810000000000e-02 0.000000000000000e+00
1.444360000000000e-02 1.916730000000000e-02 0.000000000000000e+00
4.775320000000000e-03 2.708220000000000e-02 0.000000000000000e+00
1.162200000000000e-02 2.492350000000000e-02 0.000000000000000e+00
1.205520000000000e-02 2.471680000000000e-02 0.000000000000000e+00
1.401760000000000e-02 2.189760000000000e-02 0.000000000000000e+00
1.288330000000000e-02 2.372810000000000e-02 0.000000000000000e+00
1.372890000000000e-02 2.324900000000000e-02 0.000000000000000e+00
1.248470000000000e-02 2.450270000000000e-02 0.000000000000000e+00
1.291050000000000e-02 2.428110000000000e-02 0.000000000000000e+00
1.455670000000000e-02 2.273990000000000e-02 0.000000000000000e+00
1.375000000000000e-02 2.381570000000000e-02 0.000000000000000e+00
1.416350000000000e-02 2.357210000000000e-02 0.000000000000000e+00
1.333230000000000e-02 2.405200000000000e-02 0.000000000000000e+00
1.555640000000000e-02 2.083260000000000e-02 0.000000000000000e+00
1.701470000000000e-02 1.965960000000000e-02 0.000000000000000e+00
1.457280000000000e-02 2.332130000000000e-02 0.000000000000000e+00
1.536570000000000e-02 2.220120000000000e-02 0.000000000000000e+00
1.497760000000000e-02 2.306340000000000e-02 0.000000000000000e+00
1.615480000000000e-02 2.163390000000000e-02 0.000000000000000e+00
1.537780000000000e-02 2.279850000000000e-02 0.000000000000000e+00
1.577340000000000e-02 2.252670000000000e-02 0.000000000000000e+00
1.839240000000000e-02 1.976660000000000e-02 0.000000000000000e+00
1.692290000000000e-02 2.103840000000000e-02 0.000000000000000e+00
1.766910000000000e-02 2.041580000000000e-02 0.000000000000000e+00
1.616410000000000e-02 2.224800000000000e-02 0.000000000000000e+00
1.654990000000000e-02 2.196250000000000e-02 0.000000000000000e+00
1.944540000000000e-02 1.944540000000000e-02 0.000000000000000e+00
1.875500000000000e-02 2.011220000000000e-02 0.000000000000000e+00
1.693070000000000e-02 2.167030000000000e-02 0.000000000000000e+00
1.840110000000000e-02 2.043650000000000e-02 0.000000000000000e+00
1.767670000000000e-02 2.106620000000000e-02 0.000000000000000e+00
1.804160000000000e-02 2.075450000000000e-02 0.000000000000000e+00
1.730630000000000e-02 2.137150000000000e-02 0.000000000000000e+00
1.910310000000000e-02 1.978180000000000e-02 0.000000000000000e+00
7.735200000000000e-03 5.935420000000000e-03 0.000000000000000e+00
9.400000000000000e-03 0.000000000000000e+00 0.000000000000000e+00
8.693330000000001e-03 2.329370000000000e-03 0.000000000000000e+00
6.894290000000000e-03 6.894290000000000e-03 0.000000000000000e+00
8.443750000000000e-03 4.875000000000000e-03 0.000000000000000e+00
9.608149999999999e-03 2.976420000000000e-03 0.000000000000000e+00
1.004750000000000e-02 1.915760000000000e-03 0.000000000000000e+00
1.100000000000000e-02 0.000000000000000e+00 0.000000000000000e+00
9.123559999999999e-03 7.000760000000000e-03 0.000000000000000e+00
1.004750000000000e-02 4.037080000000000e-03 0.000000000000000e+00
9.959290000000001e-03 5.750000000000000e-03 0.000000000000000e+00
1.250000000000000e-02 0.000000000000000e+00 0.000000000000000e+00
1.110810000000000e-02 1.476420000000000e-03 0.000000000000000e+00
1.009970000000000e-02 8.285080000000000e-03 0.000000000000000e+00
9.192390000000000e-03 9.192390000000000e-03 0.000000000000000e+00
1.100700000000000e-02 7.377780000000000e-03 0.000000000000000e+00
1.110810000000000e-02 4.476420000000000e-03 0.000000000000000e+00
1.191430000000000e-02 6.470470000000000e-03 0.000000000000000e+00
1.245240000000000e-02 1.089450000000000e-03 0.000000000000000e+00
1.216880000000000e-02 1.915760000000000e-03 0.000000000000000e+00
1.216880000000000e-02 4.037080000000000e-03 0.000000000000000e+00
1.380000000000000e-02 0.000000000000000e+00 0.000000000000000e+00
1.282160000000000e-02 5.563160000000000e-03 0.000000000000000e+00
1.272790000000000e-02 4.525480000000000e-03 0.000000000000000e+00
1.260810000000000e-02 2.976420000000000e-03 0.000000000000000e+00
1.366570000000000e-02 1.920590000000000e-03 0.000000000000000e+00
1.527900000000000e-02 8.007400000000000e-04 0.000000000000000e+00
1.530000000000000e-02 0.000000000000000e+00 0.000000000000000e+00
1.108480000000000e-02 7.455570000000000e-03 0.000000000000000e+00
1.017750000000000e-02 8.362870000000000e-03 0.000000000000000e+00
1.395360000000000e-02 3.299830000000000e-03 0.000000000000000e+00
1.372890000000000e-02 4.655860000000000e-03 0.000000000000000e+00
1.199210000000000e-02 6.548260000000000e-03 0.000000000000000e+00
1.289940000000000e-02 5.640950000000000e-03 0.000000000000000e+00
1.517920000000000e-02 2.074180000000000e-03 0.000000000000000e+00
1.640490000000000e-02 8.485280000000000e-04 0.000000000000000e+00
1.463620000000000e-02 3.748550000000000e-03 0.000000000000000e+00
1.700000000000000e-02 0.000000000000000e+00 0.000000000000000e+00
1.554350000000000e-02 2.841240000000000e-03 0.000000000000000e+00
1.330290000000000e-02 6.043550000000000e-03 0.000000000000000e+00
1.380670000000000e-02 4.733650000000000e-03 0.000000000000000e+00
1.239550000000000e-02 6.950970000000000e-03 0.000000000000000e+00
1.148810000000000e-02 7.858390000000000e-03 0.000000000000000e+00
1.058060000000000e-02 8.765810000000001e-03 0.000000000000000e+00
1.421030000000000e-02 5.136130000000000e-03 0.000000000000000e+00
1.653920000000000e-02 1.845550000000000e-03 0.000000000000000e+00
1.689280000000000e-02 2.199100000000000e-03 0.000000000000000e+00
1.820000000000000e-02 0.000000000000000e+00 0.000000000000000e+00
1.102260000000000e-02 9.207750000000001e-03 0.000000000000000e+00
1.193000000000000e-02 8.300330000000000e-03 0.000000000000000e+00
1.283740000000000e-02 7.392910000000000e-03 0.000000000000000e+00
1.471400000000000e-02 3.826340000000000e-03 0.000000000000000e+00
1.374490000000000e-02 6.485490000000000e-03 0.000000000000000e+00
1.511780000000000e-02 4.228710000000000e-03 0.000000000000000e+00
1.465230000000000e-02 5.578070000000000e-03 0.000000000000000e+00
1.834190000000000e-02 7.500000000000000e-04 0.000000000000000e+00
1.555970000000000e-02 4.670650000000000e-03 0.000000000000000e+00
1.761730000000000e-02 1.474550000000000e-03 0.000000000000000e+00
1.652860000000000e-02 2.011730000000000e-03 0.000000000000000e+00
1.978320000000000e-02 7.500000000000000e-04 0.000000000000000e+00
1.562130000000000e-02 2.919030000000000e-03 0.000000000000000e+00
2.113330000000000e-02 0.000000000000000e+00 0.000000000000000e+00
1.600160000000000e-02 5.112590000000000e-03 0.000000000000000e+00
1.646710000000000e-02 3.763230000000000e-03 0.000000000000000e+00
1.509420000000000e-02 6.020010000000000e-03 0.000000000000000e+00
1.602520000000000e-02 3.321290000000000e-03 0.000000000000000e+00
1.418680000000000e-02 6.927430000000000e-03 0.000000000000000e+00
1.055710000000000e-02 1.055710000000000e-02 0.000000000000000e+00
1.146450000000000e-02 9.649690000000001e-03 0.000000000000000e+00
1.327940000000000e-02 7.834850000000001e-03 0.000000000000000e+00
1.237200000000000e-02 8.742270000000000e-03 0.000000000000000e+00
1.695110000000000e-02 2.434220000000000e-03 0.000000000000000e+00
1.690910000000000e-02 4.205170000000000e-03 0.000000000000000e+00
1.867030000000000e-02 3.250000000000000e-03 0.000000000000000e+00
1.737360000000000e-02 2.856720000000000e-03 0.000000000000000e+00
1.779610000000000e-02 3.279220000000000e-03 0.000000000000000e+00
2.122440000000000e-02 7.500000000000000e-04 0.000000000000000e+00
1.368210000000000e-02 8.238250000000001e-03 0.000000000000000e+00
1.277480000000000e-02 9.145550000000001e-03 0.000000000000000e+00
1.458940000000000e-02 7.330940000000000e-03 0.000000000000000e+00
1.186750000000000e-02 1.005290000000000e-02 0.000000000000000e+00
1.549670000000000e-02 6.423630000000000e-03 0.000000000000000e+00
1.640400000000000e-02 5.516330000000000e-03 0.000000000000000e+00
1.731130000000000e-02 4.609020000000000e-03 0.000000000000000e+00
1.849530000000000e-02 4.350000000000000e-03 0.000000000000000e+00
2.002590000000000e-02 3.250000000000000e-03 0.000000000000000e+00
2.406670000000000e-02 0.000000000000000e+00 0.000000000000000e+00
1.821860000000000e-02 3.701710000000000e-03 0.000000000000000e+00
1.985400000000000e-02 4.350000000000000e-03 0.000000000000000e+00
2.266570000000000e-02 7.500000000000000e-04 0.000000000000000e+00
2.410700000000000e-02 7.500000000000000e-04 0.000000000000000e+00
2.121270000000000e-02 4.350000000000000e-03 0.000000000000000e+00
2.138140000000000e-02 3.250000000000000e-03 0.000000000000000e+00
2.700000000000000e-02 0.000000000000000e+00 0.000000000000000e+00
1.931850000000000e-02 5.176380000000000e-03 0.000000000000000e+00
2.554830000000000e-02 7.500000000000000e-04 0.000000000000000e+00
2.134650000000000e-02 5.322280000000000e-03 0.000000000000000e+00
2.698960000000000e-02 7.500000000000000e-04 0.000000000000000e+00
2.257130000000000e-02 4.350000000000000e-03 0.000000000000000e+00
2.273700000000000e-02 3.250000000000000e-03 0.000000000000000e+00
2.725000000000000e-02 0.000000000000000e+00 0.000000000000000e+00
2.085090000000000e-02 7.017100000000000e-03 0.000000000000000e+00
1.873340000000000e-02 7.004150000000000e-03 0.000000000000000e+00
2.338490000000000e-02 5.398830000000000e-03 0.000000000000000e+00
2.295130000000000e-02 7.016920000000000e-03 0.000000000000000e+00
2.409260000000000e-02 3.250000000000000e-03 0.000000000000000e+00
2.692760000000000e-02 1.583330000000000e-03 0.000000000000000e+00
2.723530000000000e-02 8.939720000000000e-04 0.000000000000000e+00
2.393000000000000e-02 4.350000000000000e-03 0.000000000000000e+00
1.631350000000000e-02 7.607130000000000e-03 0.000000000000000e+00
2.686570000000000e-02 2.416670000000000e-03 0.000000000000000e+00
2.750000000000000e-02 0.000000000000000e+00 0.000000000000000e+00
2.748320000000000e-02 9.597360000000000e-04 0.000000000000000e+00
1.272790000000000e-02 1.272790000000000e-02 0.000000000000000e+00
2.719130000000000e-02 1.786980000000000e-03 0.000000000000000e+00
2.749580000000000e-02 4.799410000000000e-04 0.000000000000000e+00
2.528860000000000e-02 4.350000000000000e-03 0.000000000000000e+00
2.544810000000000e-02 3.250000000000000e-03 0.000000000000000e+00
2.240590000000000e-02 8.600830000000000e-03 0.000000000000000e+00
2.022100000000000e-02 8.666719999999999e-03 0.000000000000000e+00
2.746230000000000e-02 1.439240000000000e-03 0.000000000000000e+00
2.497710000000000e-02 7.221080000000000e-03 0.000000000000000e+00
1.797590000000000e-02 8.767420000000000e-03 0.000000000000000e+00
1.411950000000000e-02 1.116420000000000e-02 0.000000000000000e+00
1.532010000000000e-02 9.449580000000001e-03 0.000000000000000e+00
2.439300000000000e-02 8.999040000000000e-03 0.000000000000000e+00
2.543180000000000e-02 5.405700000000000e-03 0.000000000000000e+00
2.711810000000000e-02 2.678070000000000e-03 0.000000000000000e+00
2.680370000000000e-02 3.250000000000000e-03 0.000000000000000e+00
1.705280000000000e-02 1.045000000000000e-02 0.000000000000000e+00
2.734940000000000e-02 2.874530000000000e-03 0.000000000000000e+00
1.597270000000000e-02 1.203630000000000e-02 0.000000000000000e+00
1.946080000000000e-02 1.026050000000000e-02 0.000000000000000e+00
2.175140000000000e-02 1.014280000000000e-02 0.000000000000000e+00
2.664730000000000e-02 4.350000000000000e-03 0.000000000000000e+00
2.743300000000000e-02 1.918300000000000e-03 0.000000000000000e+00
2.739540000000000e-02 2.396780000000000e-03 0.000000000000000e+00
1.555630000000000e-02 1.355630000000000e-02 0.000000000000000e+00
2.619080000000000e-02 6.560460000000000e-03 0.000000000000000e+00
2.368250000000000e-02 1.073040000000000e-02 0.000000000000000e+00
2.565110000000000e-02 8.427450000000000e-03 0.000000000000000e+00
2.533120000000000e-02 9.345160000000000e-03 0.000000000000000e+00
2.593780000000000e-02 7.498810000000000e-03 0.000000000000000e+00
2.701560000000000e-02 3.566270000000000e-03 0.000000000000000e+00
2.641000000000000e-02 5.613620000000000e-03 0.000000000000000e+00
2.497840000000000e-02 1.025080000000000e-02 0.000000000000000e+00
2.729500000000000e-02 3.351410000000000e-03 0.000000000000000e+00
2.723240000000000e-02 3.827260000000000e-03 0.000000000000000e+00
2.656300000000000e-02 7.117520000000000e-03 0.000000000000000e+00
2.600180000000000e-02 8.953120000000000e-03 0.000000000000000e+00
2.679520000000000e-02 6.186150000000000e-03 0.000000000000000e+00
1.857520000000000e-02 1.178820000000000e-02 0.000000000000000e+00
2.688410000000000e-02 4.450630000000000e-03 0.000000000000000e+00
2.629840000000000e-02 8.040220000000001e-03 0.000000000000000e+00
2.459330000000000e-02 1.114310000000000e-02 0.000000000000000e+00
2.567350000000000e-02 9.855120000000000e-03 0.000000000000000e+00
2.549760000000000e-02 1.030170000000000e-02 0.000000000000000e+00
2.584150000000000e-02 9.405550000000000e-03 0.000000000000000e+00
2.615410000000000e-02 8.497970000000001e-03 0.000000000000000e+00
2.699470000000000e-02 5.247250000000000e-03 0.000000000000000e+00
2.099090000000000e-02 1.163540000000000e-02 0.000000000000000e+00
1.757000000000000e-02 1.323990000000000e-02 0.000000000000000e+00
1.697060000000000e-02 1.414210000000000e-02 0.000000000000000e+00
2.643470000000000e-02 7.580030000000000e-03 0.000000000000000e+00
2.284920000000000e-02 1.240610000000000e-02 0.000000000000000e+00
2.668310000000000e-02 6.652850000000000e-03 0.000000000000000e+00
2.689910000000000e-02 5.717570000000000e-03 0.000000000000000e+00
2.531390000000000e-02 1.074510000000000e-02 0.000000000000000e+00
2.417640000000000e-02 1.202100000000000e-02 0.000000000000000e+00
2.512250000000000e-02 1.118530000000000e-02 0.000000000000000e+00
2.716140000000000e-02 4.301950000000000e-03 0.000000000000000e+00
1.755630000000000e-02 1.555630000000000e-02 0.000000000000000e+00
2.012810000000000e-02 1.307130000000000e-02 0.000000000000000e+00
1.916730000000000e-02 1.444360000000000e-02 0.000000000000000e+00
2.708220000000000e-02 4.775320000000000e-03 0.000000000000000e+00
2.492350000000000e-02 1.162200000000000e-02 0.000000000000000e+00
2.471680000000000e-02 1.205520000000000e-02 0.000000000000000e+00
1.697060000000000e-02 1.697060000000000e-02 0.000000000000000e+00
2.189760000000000e-02 1.401760000000000e-02 0.000000000000000e+00
2.372810000000000e-02 1.288330000000000e-02 0.000000000000000e+00
2.324900000000000e-02 1.372890000000000e-02 0.000000000000000e+00
2.450270000000000e-02 1.248470000000000e-02 0.000000000000000e+00
2.428110000000000e-02 1.291050000000000e-02 0.000000000000000e+00
2.273990000000000e-02 1.455670000000000e-02 0.000000000000000e+00
2.381570000000000e-02 1.375000000000000e-02 0.000000000000000e+00
2.357210000000000e-02 1.416350000000000e-02 0.000000000000000e+00
2.405200000000000e-02 1.333230000000000e-02 0.000000000000000e+00
2.083260000000000e-02 1.555640000000000e-02 0.000000000000000e+00
1.965960000000000e-02 1.701470000000000e-02 0.000000000000000e+00
1.838480000000000e-02 1.838480000000000e-02 0.000000000000000e+00
2.332130000000000e-02 1.457280000000000e-02 0.000000000000000e+00
2.220120000000000e-02 1.536570000000000e-02 0.000000000000000e+00
2.306340000000000e-02 1.497760000000000e-02 0.000000000000000e+00
2.163390000000000e-02 1.615480000000000e-02 0.000000000000000e+00
2.279850000000000e-02 1.537780000000000e-02 0.000000000000000e+00
2.252670000000000e-02 1.577340000000000e-02 0.000000000000000e+00
1.976660000000000e-02 1.839240000000000e-02 0.000000000000000e+00
1.909190000000000e-02 1.909190000000000e-02 0.000000000000000e+00
2.103840000000000e-02 1.692290000000000e-02 0.000000000000000e+00
2.041580000000000e-02 1.766910000000000e-02 0.000000000000000e+00
2.224800000000000e-02 1.616410000000000e-02 0.000000000000000e+00
2.196250000000000e-02 1.654990000000000e-02 0.000000000000000e+00
2.011220000000000e-02 1.875500000000000e-02 0.000000000000000e+00
2.167030000000000e-02 1.693070000000000e-02 0.000000000000000e+00
2.043650000000000e-02 1.840110000000000e-02 0.000000000000000e+00
2.106620000000000e-02 1.767670000000000e-02 0.000000000000000e+00
2.075450000000000e-02 1.804160000000000e-02 0.000000000000000e+00
2.137150000000000e-02 1.730630000000000e-02 0.000000000000000e+00
1.978180000000000e-02 1.910310000000000e-02 0.000000000000000e+00
CELLS 756 2914
2 236 26
2 27 29
2 29 34
2 34 44
2 44 49
2 49 51
2 51 59
2 60 72
2 70 74
2 100 87
2 90 104
2 102 98
2 104 105
2 105 110
2 110 112
2 93 91
2 94 95
2 235 236
2 239 237
2 244 239
2 253 244
2 258 253
2 260 258
2 267 260
2 268 267
2 279 268
2 281 277
2 311 298
2 305 309
2 312 311
2 317 312
2 319 317
2 299 301
2 26 27
2 59 60
2 72 70
2 74 90
2 107 100
2 114 107
2 98 97
2 112 121
2 96 93
2 120 114
2 131 120
2 125 142
2 142 131
2 237 235
2 277 279
2 298 281
2 295 307
2 307 314
2 314 321
2 304 305
2 328 319
2 301 303
2 321 327
2 327 339
2 350 332
2 339 350
2 91 92
2 95 302
2 97 96
2 92 94
2 300 299
2 303 304
2 302 300
2 87 102
2 121 125
2 309 295
2 332 328
2 41 42
2 73 75
2 88 85
2 89 88
2 102 89
2 91 93
2 94 92
2 93 96
2 96 97
2 97 98
2 98 102
2 251 250
2 282 280
2 293 296
2 296 297
2 297 309
2 301 299
2 300 302
2 303 301
2 304 303
2 305 304
2 309 305
2 85 73
2 92 91
2 95 94
2 302 95
2 280 293
2 299 300
2 42 40
2 46 45
2 53 46
2 66 53
2 75 66
2 254 255
2 255 262
2 262 273
2 273 282
2 45 41
2 250 254
2 40 251
3 153 157 163
3 140 118 135
3 155 173 168
3 178 163 157
3 118 119 135
3 168 178 157
3 153 135 157
3 155 168 157
3 106 111 113
3 111 118 113
3 123 114 113
3 116 132 119
3 155 156 164
3 171 170 160
3 119 139 135
3 103 100 87
3 160 169 182
3 109 117 116
3 136 147 133
3 182 171 160
3 156 139 160
3 139 154 160
3 107 100 106
3 109 111 103
3 113 107 106
3 87 99 103
3 98 117 109
3 183 191 190
3 157 135 155
3 135 139 155
3 164 173 155
3 109 116 111
3 120 114 123
3 111 119 118
3 131 120 130
3 118 140 123
3 149 131 130
3 114 107 113
3 124 136 117
3 101 105 110
3 33 37 38
3 39 38 48
3 50 39 48
3 61 50 70
3 70 74 61
3 74 76 61
3 90 104 76
3 110 108 101
3 122 115 108
3 129 115 122
3 122 134 127
3 129 122 127
3 108 112 122
3 112 121 122
3 134 122 128
3 48 47 59
3 60 72 59
3 48 59 72
3 150 128 151
3 44 43 35
3 122 121 128
3 121 141 128
3 151 128 141
3 34 44 35
3 36 32 35
3 28 34 35
3 145 141 161
3 134 128 150
3 29 34 28
3 35 32 28
3 16 21 17
3 9 11 15
3 16 17 15
3 14 9 15
3 15 18 14
3 18 19 14
3 37 33 30
3 18 25 19
3 72 50 48
3 43 36 35
3 145 151 141
3 121 125 141
3 125 142 141
3 15 17 18
3 29 22 27
3 25 31 30
3 43 47 37
3 24 30 33
3 36 43 37
3 24 19 30
3 51 59 47
3 25 30 19
3 43 51 47
3 49 51 43
3 31 36 37
3 44 49 43
3 153 180 165
3 117 133 116
3 163 180 153
3 140 153 159
3 165 181 159
3 140 135 153
3 99 109 103
3 111 106 103
3 106 100 103
3 154 139 132
3 98 109 99
3 87 102 99
3 102 98 99
3 148 179 154
3 198 193 194
3 200 196 193
3 183 179 193
3 198 200 193
3 148 175 179
3 146 176 166
3 203 199 194
3 193 179 194
3 179 192 194
3 117 136 133
3 143 166 147
3 193 195 183
3 198 194 199
3 97 124 117
3 138 143 136
3 172 164 156
3 119 132 139
3 170 172 156
3 155 139 156
3 160 170 156
3 111 116 119
3 133 148 132
3 138 146 143
3 175 192 179
3 207 197 204
3 205 203 197
3 194 192 197
3 207 205 197
3 175 187 192
3 208 207 204
3 136 143 147
3 152 177 176
3 146 166 143
3 192 201 204
3 212 208 204
3 197 192 204
3 192 187 201
3 177 188 176
3 206 212 204
3 216 210 220
3 206 201 210
3 201 202 210
3 218 220 210
3 177 186 188
3 213 212 206
3 204 201 206
3 216 213 206
3 187 188 201
3 216 206 210
3 166 176 187
3 137 146 138
3 92 137 138
3 152 176 146
3 124 138 136
3 137 152 146
3 97 96 124
3 211 218 210
3 188 202 201
3 188 186 202
3 217 211 209
3 219 218 211
3 210 202 211
3 217 219 211
3 209 215 217
3 96 93 124
3 211 202 209
3 202 411 209
3 221 215 209
3 221 209 419
3 93 91 138
3 91 92 138
3 144 152 137
3 214 221 419
3 209 411 419
3 186 399 202
3 335 144 137
3 137 94 335
3 37 30 31
3 154 179 183
3 195 191 183
3 169 154 183
3 15 11 16
3 11 13 16
3 28 21 22
3 16 20 22
3 29 28 22
3 11 225 13
3 21 16 22
3 236 26 23
3 13 225 20
3 92 94 137
3 94 95 335
3 20 27 22
3 23 20 225
3 23 26 20
3 26 27 20
3 16 13 20
3 203 194 197
3 147 166 175
3 176 188 187
3 184 182 169
3 132 148 154
3 190 184 169
3 160 154 169
3 183 190 169
3 116 133 132
3 147 175 148
3 98 97 117
3 93 138 124
3 399 411 202
3 11 12 225
3 161 141 158
3 162 161 158
3 126 115 129
3 162 167 185
3 149 167 158
3 167 162 158
3 141 142 158
3 174 167 159
3 167 149 159
3 39 33 38
3 37 47 38
3 47 48 38
3 70 50 72
3 74 90 76
3 104 101 76
3 101 104 105
3 112 108 110
3 113 118 123
3 140 130 123
3 130 120 123
3 165 159 153
3 181 174 159
3 149 140 159
3 189 185 167
3 142 149 158
3 130 140 149
3 189 167 174
3 142 131 149
3 133 147 148
3 166 187 175
3 196 195 193
3 89 88 78
3 85 80 88
3 98 86 77
3 78 71 86
3 96 97 79
3 73 75 85
3 86 71 77
3 78 68 71
3 97 77 79
3 71 69 77
3 93 96 81
3 98 102 86
3 80 85 75
3 78 88 80
3 102 89 86
3 89 78 86
3 97 98 77
3 80 66 68
3 78 80 68
3 75 66 80
3 77 69 79
3 71 58 69
3 96 79 81
3 69 67 79
3 91 93 83
3 68 53 58
3 71 68 58
3 66 53 68
3 79 67 81
3 69 52 67
3 93 81 83
3 67 64 81
3 92 91 84
3 58 46 52
3 69 58 52
3 53 46 58
3 81 64 83
3 67 54 64
3 91 83 84
3 64 63 83
3 94 92 82
3 56 42 57
3 63 56 57
3 41 42 56
3 82 62 65
3 62 55 65
3 54 41 56
3 64 54 56
3 45 41 54
3 84 63 62
3 63 57 62
3 94 82 289
3 82 65 289
3 52 45 54
3 67 52 54
3 46 45 52
3 83 63 84
3 64 56 63
3 92 84 82
3 84 62 82
3 95 94 289
3 57 40 55
3 62 57 55
3 42 40 57
3 9 5 7
3 3 7 2
3 11 9 7
3 11 7 6
3 8 6 4
3 12 11 6
3 12 6 8
3 10 12 8
3 0 2 1
3 2 5 1
3 0 3 2
3 7 5 2
3 0 4 3
3 6 7 3
3 6 3 4
3 364 360 370
3 325 348 343
3 380 362 375
3 370 385 364
3 326 325 343
3 385 375 364
3 343 360 364
3 375 362 364
3 318 313 320
3 325 318 320
3 321 330 320
3 340 323 326
3 363 362 371
3 377 378 367
3 347 326 343
3 307 310 295
3 376 367 389
3 324 316 323
3 354 344 341
3 378 389 367
3 347 363 367
3 361 347 367
3 307 314 313
3 318 316 310
3 314 320 313
3 306 295 310
3 324 305 316
3 398 390 397
3 343 364 362
3 347 343 362
3 380 371 362
3 323 316 318
3 321 327 330
3 326 318 325
3 327 339 338
3 348 325 330
3 339 356 338
3 314 321 320
3 344 331 324
3 312 308 317
3 247 243 248
3 248 249 257
3 249 259 257
3 259 269 277
3 281 277 269
3 283 281 269
3 311 298 283
3 315 317 308
3 322 329 315
3 322 337 329
3 342 329 334
3 329 337 334
3 319 315 329
3 328 319 329
3 329 342 336
3 256 257 267
3 279 268 267
3 267 257 279
3 336 357 358
3 252 253 245
3 328 329 336
3 349 328 336
3 336 358 349
3 253 244 245
3 242 246 245
3 244 238 245
3 349 352 368
3 336 342 357
3 244 239 238
3 242 245 238
3 231 226 227
3 12 10 224
3 227 226 224
3 10 223 224
3 228 224 223
3 229 228 223
3 243 247 240
3 234 228 229
3 259 279 257
3 246 252 245
3 358 352 349
3 332 328 349
3 350 332 349
3 227 224 228
3 232 239 237
3 241 234 240
3 256 252 247
3 240 233 243
3 252 246 247
3 229 233 240
3 267 260 256
3 240 234 229
3 260 252 256
3 260 258 252
3 246 241 247
3 258 253 252
3 387 360 372
3 341 324 323
3 387 370 360
3 360 348 366
3 388 372 366
3 343 348 360
3 316 306 310
3 313 318 310
3 307 313 310
3 347 361 340
3 316 305 306
3 309 295 306
3 305 309 306
3 386 355 361
3 401 406 402
3 404 408 401
3 386 390 401
3 408 406 401
3 382 355 386
3 383 353 373
3 407 412 402
3 386 401 402
3 400 386 402
3 344 324 341
3 373 351 354
3 403 401 390
3 402 406 407
3 331 304 324
3 351 346 344
3 371 379 363
3 340 326 347
3 379 377 363
3 347 362 363
3 377 367 363
3 323 318 326
3 355 341 340
3 353 346 351
3 400 382 386
3 405 416 413
3 412 414 405
3 400 402 405
3 414 416 405
3 394 382 400
3 416 417 413
3 351 344 354
3 384 359 383
3 373 353 351
3 409 400 413
3 417 422 413
3 400 405 413
3 394 400 409
3 395 384 383
3 422 415 413
3 420 425 429
3 409 415 420
3 410 409 420
3 429 427 420
3 393 384 395
3 422 423 415
3 409 413 415
3 423 425 415
3 395 394 409
3 415 425 420
3 383 373 394
3 353 345 346
3 345 300 346
3 383 359 353
3 346 331 344
3 359 345 353
3 303 304 331
3 427 421 420
3 410 395 409
3 393 395 410
3 421 426 418
3 427 428 421
3 410 420 421
3 428 426 421
3 424 418 426
3 301 303 331
3 410 421 418
3 411 410 418
3 424 430 418
3 418 430 419
3 299 301 346
3 300 299 346
3 359 144 345
3 430 214 419
3 411 418 419
3 399 393 410
3 144 335 345
3 302 345 335
3 240 247 241
3 386 361 390
3 398 403 390
3 361 376 390
3 12 224 226
3 222 12 226
3 231 238 232
3 230 226 232
3 238 239 232
3 225 12 222
3 226 231 232
3 235 236 23
3 225 222 230
3 302 300 345
3 95 302 335
3 237 230 232
3 230 23 225
3 235 23 230
3 237 235 230
3 222 226 230
3 402 412 405
3 373 354 382
3 395 383 394
3 389 391 376
3 355 340 361
3 391 397 376
3 361 367 376
3 397 390 376
3 341 323 340
3 382 354 355
3 304 305 324
3 346 301 331
3 411 399 410
3 349 368 365
3 368 369 365
3 322 333 337
3 374 369 392
3 374 356 365
3 369 374 365
3 350 349 365
3 374 381 366
3 356 374 366
3 243 249 248
3 256 247 248
3 257 256 248
3 259 277 279
3 298 281 283
3 308 311 283
3 311 308 312
3 315 319 317
3 325 320 330
3 338 348 330
3 327 338 330
3 366 372 360
3 381 388 366
3 348 356 366
3 392 396 374
3 356 350 365
3 348 338 356
3 374 396 381
3 339 350 356
3 354 341 355
3 394 373 382
3 403 404 401
3 296 297 285
3 287 293 296
3 294 305 284
3 278 285 294
3 304 303 286
3 282 280 293
3 278 294 284
3 275 285 278
3 284 304 286
3 276 278 284
3 303 301 288
3 309 305 294
3 293 287 282
3 296 285 287
3 297 309 294
3 285 297 294
3 305 304 284
3 273 287 275
3 287 285 275
3 273 282 287
3 276 284 286
3 266 278 276
3 286 303 288
3 274 276 286
3 301 299 291
3 262 275 266
3 275 278 266
3 262 273 275
3 274 286 288
3 261 276 274
3 288 301 291
3 272 274 288
3 299 300 292
3 255 266 261
3 266 276 261
3 255 262 266
3 272 288 291
3 263 274 272
3 291 299 292
3 271 272 291
3 300 302 290
3 251 264 265
3 264 271 265
3 251 250 264
3 270 290 65
3 55 270 65
3 250 263 264
3 263 272 264
3 250 254 263
3 271 292 270
3 265 271 270
3 290 302 289
3 65 290 289
3 254 261 263
3 261 274 263
3 254 255 261
3 271 291 292
3 264 272 271
3 292 300 290
3 270 292 290
3 302 95 289
3 40 265 55
3 265 270 55
3 40 251 265
CELL_TYPES 756
3
3
3
3
3
3
3
3
3
3
3
3
3
3
3
3
3
3
3
3
3
3
3
3
3
3
3
3
3
3
3
3
3
3
3
3
3
3
3
3
3
3
3
3
3
3
3
3
3
3
3
3
3
3
3
3
3
3
3
3
3
3
3
3
3
3
3
3
3
3
3
3
3
3
3
3
3
3
3
3
3
3
3
3
3
3
3
3
3
3
3
3
3
3
3
3
3
3
3
3
3
3
3
3
3
3
3
3
3
3
5
5
5
5
5
5
5
5
5
5
5
5
5
5
5
5
5
5
5
5
5
5
5
5
5
5
5
5
5
5
5
5
5
5
5
5
5
5
5
5
5
5
5
5
5
5
5
5
5
5
5
5
5
5
5
5
5
5
5
5
5
5
5
5
5
5
5
5
5
5
5
5
5
5
5
5
5
5
5
5
5
5
5
5
5
5
5
5
5
5
5
5
5
5
5
5
5
5
5
5
5
5
5
5
5
5
5
5
5
5
5
5
5
5
5
5
5
5
5
5
5
5
5
5
5
5
5
5
5
5
5
5
5
5
5
5
5
5
5
5
5
5
5
5
5
5
5
5
5
5
5
5
5
5
5
5
5
5
5
5
5
5
5
5
5
5
5
5
5
5
5
5
5
5
5
5
5
5
5
5
5
5
5
5
5
5
5
5
5
5
5
5
5
5
5
5
5
5
5
5
5
5
5
5
5
5
5
5
5
5
5
5
5
5
5
5
5
5
5
5
5
5
5
5
5
5
5
5
5
5
5
5
5
5
5
5
5
5
5
5
5
5
5
5
5
5
5
5
5
5
5
5
5
5
5
5
5
5
5
5
5
5
5
5
5
5
5
5
5
5
5
5
5
5
5
5
5
5
5
5
5
5
5
5
5
5
5
5
5
5
5
5
5
5
5
5
5
5
5
5
5
5
5
5
5
5
5
5
5
5
5
5
5
5
5
5
5
5
5
5
5
5
5
5
5
5
5
5
5
5
5
5
5
5
5
5
5
5
5
5
5
5
5
5
5
5
5
5
5
5
5
5
5
5
5
5
5
5
5
5
5
5
5
5
5
5
5
5
5
5
5
5
5
5
5
5
5
5
5
5
5
5
5
5
5
5
5
5
5
5
5
5
5
5
5
5
5
5
5
5
5
5
5
5
5
5
5
5
5
5
5
5
5
5
5
5
5
5
5
5
5
5
5
5
5
5
5
5
5
5
5
5
5
5
5
5
5
5
5
5
5
5
5
5
5
5
5
5
5
5
5
5
5
5
5
5
5
5
5
5
5
5
5
5
5
5
5
5
5
5
5
5
5
5
5
5
5
5
5
5
5
5
5
5
5
5
5
5
5
5
5
5
5
5
5
5
5
5
5
5
5
5
5
5
5
5
5
5
5
5
5
5
5
5
5
5
5
5
5
5
5
5
5
5
5
5
5
5
5
5
5
5
5
5
5
5
5
5
5
5
5
5
5
5
5
5
5
5
5
5
5
5
5
5
5
5
5
5
5
5
5
5
5
5
5
5
5
5
5
5
5
5
5
5
5
5
5
5
5
5
5
5
5
5
5
5
5
5
5
5
5
5
5
5
5
5
5
5
5
5
5
5
5
5
5
5
5
5
5
5
5
5
5
5
5
5
5
5
5
5
5
5
5
5
5
5
5
5
5
5
5
5
5
5
5
5
5
5
5
5
5
5
5
5
5
5
POINT_DATA 431
SCALARS node_id int 1
LOOKUP_TABLE default
1
2
3
4
5
6
7
8
9
10
11
12
13
14
15
16
17
18
19
20
21
22
23
24
25
26
27
28
30
31
32
33
34
35
38
40
41
43
44
45
46
47
48
49
50
52
53
54
55
56
57
58
59
60
61
63
64
65
66
67
69
70
71
72
73
74
75
76
77
78
80
81
83
84
85
87
88
89
90
91
92
93
94
95
96
99
100
101
102
103
105
106
107
108
109
110
111
112
113
114
116
117
119
120
122
125
127
128
129
130
137
141
142
147
148
149
153
155
156
157
158
159
160
161
162
163
164
165
166
167
168
169
170
171
172
173
174
175
176
177
178
179
180
182
183
185
186
187
188
189
190
191
192
193
194
195
196
197
199
200
201
203
205
209
210
211
212
213
216
217
218
219
220
221
222
223
224
225
228
229
230
231
233
234
236
237
239
240
248
250
252
253
264
267
274
275
278
299
300
301
302
305
316
320
321
324
344
345
346
371
372
373
385
397
398
399
427
428
429
430
431
456
1680
1681
1682
1683
1684
1685
1686
1687
1688
1689
1690
1691
1692
1693
1694
1695
1697
1698
1699
1700
1701
1702
1705
1708
1709
1711
1712
1713
1714
1715
1716
1717
1719
1720
1721
1722
1723
1724
1725
1726
1727
1728
1730
1731
1732
1733
1735
1736
1737
1738
1739
1740
1741
1742
1743
1745
1746
1748
1749
1750
1752
1753
1754
1755
1756
1757
1758
1759
1760
1761
1762
1765
1766
1767
1768
1769
1771
1772
1773
1774
1775
1776
1777
1778
1779
1781
1782
1784
1785
1787
1790
1792
1793
1794
1795
1801
1805
1806
1810
1811
1812
1816
1818
1819
1820
1821
1822
1823
1824
1825
1826
1827
1828
1829
1830
1831
1832
1833
1834
1835
1836
1837
1838
1839
1840
1841
1842
1843
1844
1846
1848
1849
1850
1851
1852
1853
1854
1855
1856
1857
1858
1859
1860
1862
1863
1864
1866
1868
1872
1873
1874
1875
1876
1879
1880
1881
1882
1883
1884
1885
1886
1887
1888
1891
1892
1893
1894
1897
1898
1900
1901
1902
1903
1908
1910
1912
1913
1923
1924
1927
1931
1932
1935
1948
1949
1950
1951
1954
1961
1962
1964
1965
1966
1969
1970
1971
1979
1980
1981
1982
1988
1993
1994
1999
2000
2001
2002
2003
2006
CELL_DATA 756
SCALARS element_id int 1
LOOKUP_TABLE default
1
2
3
4
5
6
7
8
9
10
11
12
13
14
15
16
17
18
19
20
21
22
23
24
25
26
27
28
29
30
31
32
33
35
36
37
38
39
40
41
42
43
44
45
46
47
48
50
51
52
53
54
55
56
57
58
59
60
61
62
63
64
65
66
67
68
69
70
71
72
73
74
75
76
77
78
79
80
81
82
83
84
85
86
87
88
89
90
91
92
93
94
95
96
97
98
99
100
101
102
103
104
105
106
107
108
109
110
111
112
949
950
951
952
953
954
955
956
957
958
959
960
961
962
963
964
965
966
967
968
969
970
971
972
973
974
975
976
977
978
979
980
981
982
983
984
985
986
987
988
989
990
991
992
993
994
995
996
997
998
999
1000
1001
1002
1003
1004
1005
1006
1007
1008
1009
1010
1011
1012
1013
1014
1015
1016
1017
1018
1019
1020
1021
1022
1023
1024
1025
1026
1027
1028
1029
1030
1031
1032
1033
1034
1035
1036
1037
1038
1039
1040
1041
1042
1043
1044
1045
1046
1047
1048
1049
1050
1051
1052
1053
1054
1055
1056
1057
1058
1059
1060
1061
1062
1063
1064
1065
1066
1067
1068
1069
1070
1071
1072
1073
1074
1075
1076
1077
1078
1079
1080
1081
1082
1083
1084
1085
1086
1087
1088
1089
1090
1091
1092
1093
1094
1095
1096
1097
1098
1099
1100
1101
1102
1103
1104
1105
1106
1107
1108
1109
1110
1111
1112
1113
1114
1115
1116
1117
1118
1119
1120
1121
1122
1123
1124
1125
1126
1127
1128
1129
1130
1131
1132
1133
1134
1135
1136
1137
1138
1139
1140
1141
1142
1143
1144
1145
1146
1147
1148
1149
1150
1151
1152
1153
1154
1155
1156
1157
1158
1159
1160
1161
1162
1163
1164
1165
1166
1167
1168
1169
1170
1171
1172
1173
1174
1175
1176
1177
1178
1179
1180
1181
1182
1183
1184
1185
1186
1187
1188
1189
1190
1191
1192
1193
1194
1195
1196
1197
1198
1199
1200
1201
1202
1203
1204
1205
1206
1207
1208
1209
1210
1211
1212
1213
1214
1215
1216
1217
1218
1219
1220
1221
1222
1223
1224
1225
1226
1227
1228
1229
1230
1231
1232
1233
1234
1235
1236
1237
1238
1239
1240
1241
1242
1243
1244
1245
1246
1247
1248
1249
1250
1251
1252
1253
1254
1255
1256
1257
1258
1259
1260
1261
1262
1263
1264
1817
1818
1819
1820
1821
1822
1823
1824
1825
1826
1827
1828
1829
1830
1831
3254
3255
3256
3257
3258
3259
3260
3261
3262
3263
3264
3265
3266
3267
3268
3269
3270
3271
3272
3273
3274
3275
3276
3277
3278
3279
3280
3281
3282
3283
3284
3285
3286
3287
3288
3289
3290
3291
3292
3293
3294
3295
3296
3297
3298
3299
3300
3301
3302
3303
3304
3305
3306
3307
3308
3309
3310
3311
3312
3313
3314
3315
3316
3317
3318
3319
3320
3321
3322
3323
3324
3325
3326
3327
3328
3329
3330
3331
3332
3333
3334
3335
3336
3337
3338
3339
3340
3341
3342
3343
3344
3345
3346
3347
3348
3349
3350
3351
3352
3353
3354
3355
3356
3357
3358
3359
3360
3361
3362
3363
3364
3365
3366
3367
3368
3369
3370
3371
3372
3373
3374
3375
3376
3377
3378
3379
3380
3381
3382
3383
3384
3385
3386
3387
3388
3389
3390
3391
3392
3393
3394
3395
3396
3397
3398
3399
3400
3401
3402
3403
3404
3405
3406
3407
3408
3409
3410
3411
3412
3413
3414
3415
3416
3417
3418
3419
3420
3421
3422
3423
3424
3425
3426
3427
3428
3429
3430
3431
3432
3433
3434
3435
3436
3437
3438
3439
3440
3441
3442
3443
3444
3445
3446
3447
3448
3449
3450
3451
3452
3453
3454
3455
3456
3457
3458
3459
3460
3461
3462
3463
3464
3465
3466
3467
3468
3469
3470
3471
3472
3473
3474
3475
3476
3477
3478
3479
3480
3481
3482
3483
3484
3485
3486
3487
3488
3489
3490
3491
3492
3493
3494
3495
3496
3497
3498
3499
3500
3501
3502
3503
3504
3505
3506
3507
3508
3509
3510
3511
3512
3513
3514
3515
3516
3517
3518
3519
3520
3521
3522
3523
3524
3525
3526
3527
3528
3529
3530
3531
3532
3533
3534
3535
3536
3537
3538
3539
3540
3541
3542
3543
3544
3545
3546
3547
3548
3549
3550
3551
3552
3553
3554
3555
3556
3557
3558
3559
3560
3561
3562
3563
3564
3565
3566
3567
3568
SCALARS property_id int 1
LOOKUP_TABLE default
102
102
102
102
102
102
102
102
102
102
102
102
102
102
102
102
102
102
102
102
102
102
102
102
102
102
102
102
102
102
102
102
102
102
102
102
102
102
102
102
102
102
102
102
102
102
102
102
102
102
102
102
102
102
102
102
102
102
102
102
102
102
102
102
102
102
102
102
102
102
104
104
104
104
104
104
104
104
104
104
104
104
104
104
104
104
104
104
104
104
104
104
104
104
104
104
104
104
104
104
104
104
104
104
104
104
104
104
104
104
2
2
2
2
2
2
2
2
2
2
2
2
2
2
2
2
2
2
2
2
2
2
2
2
2
2
2
2
2
2
2
2
2
2
2
2
2
2
2
2
2
2
2
2
2
2
2
2
2
2
2
2
2
2
2
2
2
2
2
2
2
2
2
2
2
2
2
2
2
2
2
2
2
2
2
2
2
2
2
2
2
2
2
2
2
2
2
2
2
2
2
2
2
2
2
2
2
2
2
2
2
2
2
2
2
2
2
2
2
2
2
2
2
2
2
2
2
2
2
2
2
2
2
2
2
2
2
2
2
2
2
2
2
2
2
2
2
2
2
2
2
2
2
2
2
2
2
2
2
2
2
2
2
2
2
2
2
2
2
2
2
2
2
2
2
2
2
2
2
2
2
2
2
2
2
2
2
2
2
2
2
2
2
2
2
2
2
2
2
2
2
2
2
2
2
2
2
2
2
2
2
2
2
2
2
2
2
2
2
2
2
2
2
2
2
2
2
2
2
2
2
2
2
2
2
2
2
2
2
2
2
2
2
2
2
2
2
2
2
2
2
2
2
2
2
2
2
2
2
2
2
2
4
4
4
4
4
4
4
4
4
4
4
4
4
4
4
4
4
4
4
4
4
4
4
4
4
4
4
4
4
4
4
4
4
4
4
4
4
4
4
4
4
4
4
4
4
4
4
4
4
4
4
4
4
4
4
4
4
4
4
4
4
4
4
4
17
17
17
17
17
17
17
17
17
17
17
17
17
17
17
2
2
2
2
2
2
2
2
2
2
2
2
2
2
2
2
2
2
2
2
2
2
2
2
2
2
2
2
2
2
2
2
2
2
2
2
2
2
2
2
2
2
2
2
2
2
2
2
2
2
2
2
2
2
2
2
2
2
2
2
2
2
2
2
2
2
2
2
2
2
2
2
2
2
2
2
2
2
2
2
2
2
2
2
2
2
2
2
2
2
2
2
2
2
2
2
2
2
2
2
2
2
2
2
2
2
2
2
2
2
2
2
2
2
2
2
2
2
2
2
2
2
2
2
2
2
2
2
2
2
2
2
2
2
2
2
2
2
2
2
2
2
2
2
2
2
2
2
2
2
2
2
2
2
2
2
2
2
2
2
2
2
2
2
2
2
2
2
2
2
2
2
2
2
2
2
2
2
2
2
2
2
2
2
2
2
2
2
2
2
2
2
2
2
2
2
2
2
2
2
2
2
2
2
2
2
2
2
2
2
2
2
2
2
2
2
2
2
2
2
2
2
2
2
2
2
2
2
2
2
2
2
2
2
2
2
2
2
2
2
2
2
2
2
2
2
2
2
2
2
2
4
4
4
4
4
4
4
4
4
4
4
4
4
4
4
4
4
4
4
4
4
4
4
4
4
4
4
4
4
4
4
4
4
4
4
4
4
4
4
4
4
4
4
4
4
4
4
4
4
4
4
4
4
4
4
4
4
4
4
4
4
4
4
4
SCALARS element_kind int 1
LOOKUP_TABLE default
2
2
2
2
2
2
2
2
2
2
2
2
2
2
2
2
2
2
2
2
2
2
2
2
2
2
2
2
2
2
2
2
2
2
2
2
2
2
2
2
2
2
2
2
2
2
2
2
2
2
2
2
2
2
2
2
2
2
2
2
2
2
2
2
2
2
2
2
2
2
2
2
2
2
2
2
2
2
2
2
2
2
2
2
2
2
2
2
2
2
2
2
2
2
2
2
2
2
2
2
2
2
2
2
2
2
2
2
2
2
2
2
2
2
2
2
2
2
2
2
2
2
2
2
2
2
2
2
2
2
2
2
2
2
2
2
2
2
2
2
2
2
2
2
2
2
2
2
2
2
2
2
2
2
2
2
2
2
2
2
2
2
2
2
2
2
2
2
2
2
2
2
2
2
2
2
2
2
2
2
2
2
2
2
2
2
2
2
2
2
2
2
2
2
2
2
2
2
2
2
2
2
2
2
2
2
2
2
2
2
2
2
2
2
2
2
2
2
2
2
2
2
2
2
2
2
2
2
2
2
2
2
2
2
2
2
2
2
2
2
2
2
2
2
2
2
2
2
2
2
2
2
2
2
2
2
2
2
2
2
2
2
2
2
2
2
2
2
2
2
2
2
2
2
2
2
2
2
2
2
2
2
2
2
2
2
2
2
2
2
2
2
2
2
2
2
2
2
2
2
2
2
2
2
2
2
2
2
2
2
2
2
2
2
2
2
2
2
2
2
2
2
2
2
2
2
2
2
2
2
2
2
2
2
2
2
2
2
2
2
2
2
2
2
2
2
2
2
2
2
2
2
2
2
2
2
2
2
2
2
2
2
2
2
2
2
2
2
2
2
2
2
2
2
2
2
2
2
2
2
2
2
2
2
2
2
2
2
2
2
2
2
2
2
2
2
2
2
2
2
2
2
2
2
2
2
2
2
2
2
2
2
2
2
2
2
2
2
2
2
2
2
2
2
2
2
2
2
2
2
2
2
2
2
2
2
2
2
2
2
2
2
2
2
2
2
2
2
2
2
2
2
2
2
2
2
2
2
2
2
2
2
2
2
2
2
2
2
2
2
2
2
2
2
2
2
2
2
2
2
2
2
2
2
2
2
2
2
2
2
2
2
2
2
2
2
2
2
2
2
2
2
2
2
2
2
2
2
2
2
2
2
2
2
2
2
2
2
2
2
2
2
2
2
2
2
2
2
2
2
2
2
2
2
2
2
2
2
2
2
2
2
2
2
2
2
2
2
2
2
2
2
2
2
2
2
2
2
2
2
2
2
2
2
2
2
2
2
2
2
2
2
2
2
2
2
2
2
2
2
2
2
2
2
2
2
2
2
2
2
2
2
2
2
2
2
2
2
2
2
2
2
2
2
2
2
2
2
2
2
2
2
2
2
2
2
2
2
2
2
2
2
2
2
2
2
2
2
2
2
2
2
2
2
2
2
2
2
2
2
2
2
2
2
2
2
2
2
2
2
2
2
2
2
2
2
2
2
2
2
2
2
2
2
2
2
2
2
2
2
2
2
2
2
2
2
2
2
2
2
2
2
2
2
2
2
2
2
2
2
2
2
2
2
2
2
2
2
2
2
2
2
2
2
2
2
2
2
2
2
2
2
2
2
2
2
2
2
2
2
2
2
2
2
2
2
2
2
2
2
2
2
2
2
2
2
2
2
2
2
2
2
2
2
2
2
2
2
2
2
2
2
2
2
2
2
SCALARS vtk_cell_type int 1
LOOKUP_TABLE default
3
3
3
3
3
3
3
3
3
3
3
3
3
3
3
3
3
3
3
3
3
3
3
3
3
3
3
3
3
3
3
3
3
3
3
3
3
3
3
3
3
3
3
3
3
3
3
3
3
3
3
3
3
3
3
3
3
3
3
3
3
3
3
3
3
3
3
3
3
3
3
3
3
3
3
3
3
3
3
3
3
3
3
3
3
3
3
3
3
3
3
3
3
3
3
3
3
3
3
3
3
3
3
3
3
3
3
3
3
3
5
5
5
5
5
5
5
5
5
5
5
5
5
5
5
5
5
5
5
5
5
5
5
5
5
5
5
5
5
5
5
5
5
5
5
5
5
5
5
5
5
5
5
5
5
5
5
5
5
5
5
5
5
5
5
5
5
5
5
5
5
5
5
5
5
5
5
5
5
5
5
5
5
5
5
5
5
5
5
5
5
5
5
5
5
5
5
5
5
5
5
5
5
5
5
5
5
5
5
5
5
5
5
5
5
5
5
5
5
5
5
5
5
5
5
5
5
5
5
5
5
5
5
5
5
5
5
5
5
5
5
5
5
5
5
5
5
5
5
5
5
5
5
5
5
5
5
5
5
5
5
5
5
5
5
5
5
5
5
5
5
5
5
5
5
5
5
5
5
5
5
5
5
5
5
5
5
5
5
5
5
5
5
5
5
5
5
5
5
5
5
5
5
5
5
5
5
5
5
5
5
5
5
5
5
5
5
5
5
5
5
5
5
5
5
5
5
5
5
5
5
5
5
5
5
5
5
5
5
5
5
5
5
5
5
5
5
5
5
5
5
5
5
5
5
5
5
5
5
5
5
5
5
5
5
5
5
5
5
5
5
5
5
5
5
5
5
5
5
5
5
5
5
5
5
5
5
5
5
5
5
5
5
5
5
5
5
5
5
5
5
5
5
5
5
5
5
5
5
5
5
5
5
5
5
5
5
5
5
5
5
5
5
5
5
5
5
5
5
5
5
5
5
5
5
5
5
5
5
5
5
5
5
5
5
5
5
5
5
5
5
5
5
5
5
5
5
5
5
5
5
5
5
5
5
5
5
5
5
5
5
5
5
5
5
5
5
5
5
5
5
5
5
5
5
5
5
5
5
5
5
5
5
5
5
5
5
5
5
5
5
5
5
5
5
5
5
5
5
5
5
5
5
5
5
5
5
5
5
5
5
5
5
5
5
5
5
5
5
5
5
5
5
5
5
5
5
5
5
5
5
5
5
5
5
5
5
5
5
5
5
5
5
5
5
5
5
5
5
5
5
5
5
5
5
5
5
5
5
5
5
5
5
5
5
5
5
5
5
5
5
5
5
5
5
5
5
5
5
5
5
5
5
5
5
5
5
5
5
5
5
5
5
5
5
5
5
5
5
5
5
5
5
5
5
5
5
5
5
5
5
5
5
5
5
5
5
5
5
5
5
5
5
5
5
5
5
5
5
5
5
5
5
5
5
5
5
5
5
5
5
5
5
5
5
5
5
5
5
5
5
5
5
5
5
5
5
5
5
5
5
5
5
5
5
5
5
5
5
5
5
5
5
5
5
5
5
5
5
5
5
5
5
5
5
5
5
5
5
5
5
5
5
5
5
5
5
5
5
5
5
5
5
5
5
5
5
5
5
5
5
5
5
5
5
5
5
5
5
5
5
5
5
5
5
5
5
5
5
5
5
5
5
5
5
5
5
5
5
5
5
5
5
5
5
5
